<?xml version="1.0" encoding="UTF-8"?>
<svg id="Capa_2" data-name="Capa 2" xmlns="http://www.w3.org/2000/svg" viewBox="0 0 89.06 81.46">
  <defs>
    <style>
      .cls-1 {
        fill: #d6b438;
        stroke-width: 0px;
      }
    </style>
  </defs>
  <g id="Capa_1-2" data-name="Capa 1">
    <g>
      <g>
        <path class="cls-1" d="m9.14,65h2.92v16.07h-2.92v-1.23c-.57.54-1.14.93-1.72,1.17-.57.24-1.2.36-1.87.36-1.5,0-2.81-.58-3.9-1.74-1.1-1.16-1.65-2.6-1.65-4.33s.53-3.26,1.59-4.4c1.06-1.14,2.35-1.72,3.87-1.72.7,0,1.35.13,1.97.39.61.26,1.18.66,1.7,1.18v-5.75Zm-3.07,6.86c-.9,0-1.65.32-2.25.95-.6.64-.9,1.45-.9,2.45s.3,1.83.91,2.47c.61.65,1.36.97,2.25.97s1.68-.32,2.28-.95c.6-.64.91-1.47.91-2.5s-.3-1.83-.91-2.45c-.6-.62-1.37-.94-2.29-.94Z"/>
        <path class="cls-1" d="m19.19,69.18c1.1,0,2.13.27,3.1.82.97.55,1.72,1.29,2.27,2.23s.81,1.95.81,3.04-.27,2.12-.82,3.07c-.55.95-1.29,1.7-2.23,2.23s-1.98.8-3.12.8c-1.67,0-3.1-.59-4.28-1.77-1.18-1.18-1.77-2.62-1.77-4.31,0-1.81.67-3.32,2-4.53,1.17-1.05,2.52-1.58,4.04-1.58Zm.05,2.74c-.91,0-1.66.31-2.27.94-.6.63-.91,1.43-.91,2.41s.3,1.83.9,2.45,1.35.94,2.27.94,1.68-.32,2.29-.95c.61-.63.91-1.44.91-2.44s-.3-1.8-.9-2.42c-.6-.62-1.36-.93-2.29-.93Z"/>
        <path class="cls-1" d="m26.46,69.47h2.96v5.58c0,1.09.08,1.84.23,2.26.15.42.39.75.72.99.33.23.74.35,1.23.35s.9-.12,1.24-.35.59-.57.76-1.02c.12-.33.18-1.05.18-2.14v-5.68h2.92v4.91c0,2.02-.16,3.41-.48,4.16-.39.91-.97,1.61-1.73,2.09-.76.49-1.73.73-2.91.73-1.28,0-2.31-.28-3.1-.85-.79-.57-1.34-1.36-1.67-2.38-.23-.7-.34-1.98-.34-3.84v-4.83Z"/>
        <path class="cls-1" d="m41.24,65v5.75c.53-.53,1.1-.92,1.71-1.18.61-.26,1.27-.39,1.97-.39,1.52,0,2.81.57,3.88,1.72,1.06,1.14,1.6,2.61,1.6,4.4s-.55,3.17-1.65,4.33c-1.1,1.16-2.4,1.74-3.91,1.74-.67,0-1.3-.12-1.87-.36s-1.15-.63-1.72-1.17v1.23h-2.9v-16.07h2.9Zm3.07,6.86c-.92,0-1.69.31-2.29.94-.61.62-.91,1.44-.91,2.45s.3,1.86.91,2.5c.61.64,1.37.95,2.29.95s1.64-.32,2.25-.97c.61-.65.92-1.47.92-2.47s-.3-1.81-.9-2.45-1.36-.95-2.27-.95Z"/>
        <path class="cls-1" d="m51.2,65h2.92v16.07h-2.92v-16.07Z"/>
        <path class="cls-1" d="m67.16,76.11h-9.39c.14.82.5,1.48,1.09,1.97.59.49,1.34.73,2.25.73,1.09,0,2.03-.38,2.82-1.14l2.46,1.15c-.61.87-1.35,1.51-2.21,1.92-.86.42-1.87.62-3.05.62-1.83,0-3.32-.57-4.47-1.72-1.15-1.15-1.72-2.58-1.72-4.31s.57-3.24,1.72-4.41c1.15-1.17,2.58-1.75,4.31-1.75,1.84,0,3.33.58,4.48,1.75,1.15,1.17,1.72,2.71,1.72,4.63v.55Zm-2.92-2.29c-.19-.65-.57-1.17-1.14-1.58s-1.23-.61-1.98-.61c-.82,0-1.53.23-2.15.68-.39.28-.74.78-1.07,1.5h6.34Z"/>
        <path class="cls-1" d="m87.94,67.95l-2.11,2.08c-1.34-1.41-2.89-2.11-4.67-2.11-1.55,0-2.85.51-3.9,1.53s-1.57,2.27-1.57,3.73.54,2.79,1.63,3.85c1.09,1.05,2.43,1.58,4.02,1.58,1.04,0,1.91-.22,2.62-.65s1.28-1.11,1.72-2.04h-4.56v-2.8h7.93l.02.66c0,1.37-.36,2.67-1.07,3.9-.71,1.23-1.64,2.17-2.77,2.81s-2.47.97-3.99.97c-1.63,0-3.09-.35-4.37-1.06s-2.3-1.71-3.04-3.02-1.12-2.72-1.12-4.23c0-2.07.69-3.88,2.07-5.41,1.63-1.83,3.76-2.74,6.38-2.74,1.37,0,2.65.25,3.84.76,1.01.43,1.99,1.16,2.96,2.19Z"/>
      </g>
      <path class="cls-1" d="m44.47,0C28.07,0,14.77,13.23,14.77,29.54s13.29,29.54,29.69,29.54,29.69-13.23,29.69-29.54S60.87,0,44.47,0Zm13.05,21.76c1.3,0,2.36,1.05,2.36,2.35s-1.06,2.35-2.36,2.35-2.36-1.05-2.36-2.35,1.06-2.35,2.36-2.35Zm4.96,9.69c-.94,9.72-8.66,17.03-17.97,17.03-9.96,0-18.06-8.5-18.06-18.94s8.1-18.95,18.06-18.95c2.75,0,5.4.64,7.87,1.89l.23.12-1.89,2.94-.19-.09c-1.89-.9-3.92-1.36-6.03-1.36-8.1,0-14.69,6.93-14.69,15.44s6.59,15.44,14.69,15.44c7.33,0,13.54-5.69,14.55-13.29h-3.31c-1.02,5.13-5.54,8.83-10.83,8.83-6.09,0-11.04-4.93-11.04-10.98s4.95-10.98,11.04-10.98c1.49,0,2.94.29,4.3.87l.26.11-1.94,3.03-.18-.06c-.78-.27-1.6-.41-2.44-.41-4.13,0-7.49,3.34-7.49,7.45s3.36,7.45,7.49,7.45c3.32,0,6.22-2.16,7.17-5.3h-9.19v-.3l.04-.09,1.84-2.87h17.7v3.03Z"/>
    </g>
  </g>
</svg>