<?xml version="1.0" encoding="UTF-8" standalone="no"?>
<svg
   xmlns:dc="http://purl.org/dc/elements/1.1/"
   xmlns:cc="http://creativecommons.org/ns#"
   xmlns:rdf="http://www.w3.org/1999/02/22-rdf-syntax-ns#"
   xmlns:svg="http://www.w3.org/2000/svg"
   xmlns="http://www.w3.org/2000/svg"
   xmlns:sodipodi="http://sodipodi.sourceforge.net/DTD/sodipodi-0.dtd"
   xmlns:inkscape="http://www.inkscape.org/namespaces/inkscape"
   version="1.0"
   width="2266.000000pt"
   height="1464.000000pt"
   viewBox="0 0 2266.000000 1464.000000"
   preserveAspectRatio="xMidYMid meet"
   id="svg2"
   inkscape:version="0.48.3.1 r9886"
   sodipodi:docname="Sin nombre.png.svg">
  <defs
     id="defs448" />
  <sodipodi:namedview
     pagecolor="#ffffff"
     bordercolor="#666666"
     borderopacity="1"
     objecttolerance="10"
     gridtolerance="10"
     guidetolerance="10"
     inkscape:pageopacity="0"
     inkscape:pageshadow="2"
     inkscape:window-width="1152"
     inkscape:window-height="840"
     id="namedview446"
     showgrid="false"
     inkscape:zoom="0.10698005"
     inkscape:cx="1505.7479"
     inkscape:cy="1189.2223"
     inkscape:window-x="0"
     inkscape:window-y="24"
     inkscape:window-maximized="1"
     inkscape:current-layer="svg2" />
  <metadata
     id="metadata4">
Created by potrace 1.10, written by Peter Selinger 2001-2011
<rdf:RDF>
  <cc:Work
     rdf:about="">
    <dc:format>image/svg+xml</dc:format>
    <dc:type
       rdf:resource="http://purl.org/dc/dcmitype/StillImage" />
  </cc:Work>
</rdf:RDF>
</metadata>
  <path
     id="path396"
     style="fill:#000000;stroke:none"
     d="m 1379.991,1266.6521 c 0,1.1 1.9,1.5 2.5,0.6 0.3,-0.5 -0.1,-1 -0.9,-1 -0.9,0 -1.6,0.2 -1.6,0.4 z m -521.70002,-5.8 c 0.3,0.3 1.2,0.4 1.9,0.1 0.8,-0.3 0.5,-0.6 -0.6,-0.6 -1.1,-0.1 -1.7,0.2 -1.3,0.5 z m 819.00002,-12 c 0.3,0.3 1.2,0.4 1.9,0.1 0.8,-0.3 0.5,-0.6 -0.6,-0.6 -1.1,-0.1 -1.7,0.2 -1.3,0.5 z m -418.3,-16.6 c 0,0.5 0.7,1 1.6,1 0.8,0 1.2,-0.5 0.9,-1 -0.3,-0.6 -1,-1 -1.6,-1 -0.5,0 -0.9,0.4 -0.9,1 z m 523.7,-25.3 c 0.7,0.2 2.1,0.2 3,0 1,-0.3 0.5,-0.5 -1.2,-0.5 -1.6,0 -2.4,0.2 -1.8,0.5 z m -108.4,-10.1 c 0.3,0.3 1.2,0.4 1.9,0.1 0.8,-0.3 0.5,-0.6 -0.6,-0.6 -1.1,-0.1 -1.7,0.2 -1.3,0.5 z m -16,-2 c 0.3,0.3 1.2,0.4 1.9,0.1 0.8,-0.3 0.5,-0.6 -0.6,-0.6 -1.1,-0.1 -1.7,0.2 -1.3,0.5 z m -1260.50002,-1.9 c 0.6,0.2 1.8,0.2 2.5,0 0.6,-0.3 0.1,-0.5 -1.3,-0.5 -1.4,0 -1.9,0.2 -1.2,0.5 z m 78.3,-3.3 c -0.1,1.1 0.2,1.7 0.5,1.3 0.3,-0.3 0.4,-1.2 0.1,-1.9 -0.3,-0.8 -0.6,-0.5 -0.6,0.6 z m 59.2,-2.8 c 0.3,0.3 1.2,0.4 1.9,0.1 0.8,-0.3 0.5,-0.6 -0.6,-0.6 -1.1,-0.1 -1.7,0.2 -1.3,0.5 z m 165,-6 c 0.3,0.3 1.2,0.4 1.9,0.1 0.8,-0.3 0.5,-0.6 -0.6,-0.6 -1.1,-0.1 -1.7,0.2 -1.3,0.5 z m 15.5,-1.9 c 0.6,0.2 1.8,0.2 2.5,0 0.6,-0.3 0.1,-0.5 -1.3,-0.5 -1.4,0 -1.9,0.2 -1.2,0.5 z m -25,0.5 c 0.9,0.9 1.5,0.9 2.4,0 0.9,-0.9 0.7,-1.2 -1.2,-1.2 -1.9,0 -2.1,0.3 -1.2,1.2 z m -68.5,-0.6 c 0.3,0.3 1.2,0.4 1.9,0.1 0.8,-0.3 0.5,-0.6 -0.6,-0.6 -1.1,-0.1 -1.7,0.2 -1.3,0.5 z m 888.70002,-0.6 c -1.2,0.8 -1,1 0.8,1 1.3,0 2,-0.4 1.7,-1 -0.7,-1.2 -0.6,-1.2 -2.5,0 z m -893.00002,0.6 c 0,0.8 0.5,1.2 1,0.9 0.6,-0.3 1,-1 1,-1.6 0,-0.5 -0.4,-0.9 -1,-0.9 -0.5,0 -1,0.7 -1,1.6 z m 64,-2.6 c 0,0.6 0.7,1 1.5,1 1.9,0 1.9,-0.6 0,-1.4 -0.8,-0.3 -1.5,-0.1 -1.5,0.4 z m 412.30002,-13.4 c 0.3,0.3 1.2,0.4 1.9,0.1 0.8,-0.3 0.5,-0.6 -0.6,-0.6 -1.1,-0.1 -1.7,0.2 -1.3,0.5 z m -732.30002,-100.2 c 0,1.1 1.9,1.5 2.5,0.6 0.3,-0.5 -0.1,-1 -0.9,-1 -0.9,0 -1.6,0.2 -1.6,0.4 z M 1190.491,924.25212 c -0.4,0.6 0.7,1 2.5,1 1.8,0 2.9,-0.4 2.5,-1 -0.3,-0.6 -1.5,-1 -2.5,-1 -1,0 -2.2,0.4 -2.5,1 z m -22.9,-2.1 c -0.4,0.5 -0.2,1.2 0.3,1.5 0.5,0.4 1.2,0.2 1.5,-0.3 0.4,-0.5 0.2,-1.2 -0.3,-1.5 -0.5,-0.4 -1.2,-0.2 -1.5,0.3 z m 15.9,-47.9 c -0.3,0.5 -0.1,1 0.4,1 0.6,0 1.1,-0.5 1.1,-1 0,-0.6 -0.2,-1 -0.4,-1 -0.3,0 -0.8,0.4 -1.1,1 z m -25.5,-4 c 0,0.5 0.7,1 1.6,1 0.8,0 1.2,-0.5 0.9,-1 -0.3,-0.6 -1,-1 -1.6,-1 -0.5,0 -0.9,0.4 -0.9,1 z m 58,-46.1 c 0,0.6 0.5,1.1 1,1.1 0.6,0 1,-0.2 1,-0.4 0,-0.3 -0.4,-0.8 -1,-1.1 -0.5,-0.3 -1,-0.1 -1,0.4 z m -49,-72.9 c 2,1.3 4,1.3 4,0 0,-0.6 -1.2,-1 -2.7,-1 -2.2,0 -2.5,0.2 -1.3,1 z m 8.8,-5.3 c -1.4,0.4 -1.6,0.8 -0.8,2.4 1.3,2.4 3.2,2.4 4.7,0 1.8,-2.8 0.5,-3.6 -3.9,-2.4 z m -3.8,-141.8 c 0,0.6 0.5,1.1 1,1.1 0.6,0 1,-0.2 1,-0.4 0,-0.3 -0.4,-0.8 -1,-1.1 -0.5,-0.3 -1,-0.1 -1,0.4 z m 300.3,536.69998 c 0.3,0.3 1.2,0.4 1.9,0.1 0.8,-0.3 0.5,-0.6 -0.6,-0.6 -1.1,-0.1 -1.7,0.2 -1.3,0.5 z m -269.3,-20.7 c 1.2,2.3 1.6,2.5 2.5,1.2 0.3,-0.6 -0.4,-1.5 -1.5,-2.1 -2,-1.1 -2.1,-1 -1,0.9 z m -511.80002,16 c -1,0.6 -1,1 0.3,2.1 1.3,1.1 1.5,0.9 1.5,-0.9 0,-2.4 0,-2.4 -1.8,-1.2 z m -20.2,-0.9 c 0,0.5 0.5,1 1,1 0.6,0 1,-0.5 1,-1 0,-0.6 -0.4,-1 -1,-1 -0.5,0 -1,0.4 -1,1 z m 6.4,-3.6 c -0.8,2.1 0,5.2 1.1,4.6 0.6,-0.3 0.9,-0.9 0.7,-1.3 -0.1,-0.4 0.2,-1.7 0.8,-2.7 0.9,-1.6 0.7,-2 -0.5,-2 -0.9,0 -1.8,0.6 -2.1,1.4 z m -47.4,-1.6 c -3.69424,2.737 -0.15363,5.6483 3.24844,4.5625 3.56715,2.6199 -7.19705,3.9578 -0.8125,5.2406 4.46683,1.3794 6.38668,-8.1211 7.88906,-1.3281 5.37366,-3.4483 12.10618,-0.864 17.9125,0.075 4.85615,-1.6009 10.87446,-1.5365 13.49219,-6.2562 3.7028,1.1784 5.55722,-2.8595 0.89961,-2.3413 -5.1281,0.4214 -10.70255,-0.6661 -14.90957,2.976 -1.52678,1.4946 -10.64897,4.698 -6.21973,1.2715 4.4053,-3.0161 -6.56863,-4.6845 -9.00183,-3.9971 -3.39207,-1.0671 -7.5522,6.4276 -7.89817,0 -1.51511,-0.2476 -3.11269,-0.9877 -4.6,-0.2 z m 15,2.8 c -3.70684,2.0586 -4.13284,-3.5505 0,0 z m 3,2.4 c -2.08725,3.5382 -2.56024,-3.4937 0,0 z m 43.2,-6.3 c -0.9,1.3 -1.4,1.5 -1.8,0.5 -0.8,-1.7 -3.4,-1.5 -3.4,0.2 0,0.8 -0.9,2.1 -2,2.9 -2.4,1.6 -1.8,4.3 1.1,5 2.2,0.6 2.6,-0.8 0.4,-1.7 -2.6,-1 -1.7,-2.9 1.1,-2.2 1.9,0.5 3.2,0 5.4,-2.1 1.6,-1.5 2.7,-3 2.4,-3.5 -0.8,-1.3 -1.8,-1 -3.2,0.9 z m 22.2,-1.6 c -0.3,0.6 -0.2,1.5 0.4,2.1 0.6,0.6 1.1,0.2 1.5,-1.1 0.5,-2.2 -0.7,-2.9 -1.9,-1 z m -12.4,-0.2 c 0,0.5 0.7,1.2 1.6,1.5 2.2,0.9 2.4,0.8 2.4,-0.9 0,-0.8 -0.9,-1.5 -2,-1.5 -1.1,0 -2,0.4 -2,0.9 z m 102.6,-6.1 c -0.8,1.3 1,5.2 2.4,5.2 1.8,0 1.8,-1.6 0.1,-3.9 -1.2,-1.5 -2.1,-2 -2.5,-1.3 z m 19.4,-2.4 c 0,1.2 5.2,5.6 6.1,5 0.7,-0.4 0.1,-1.5 -1.7,-3 -2.7,-2.1 -4.4,-2.9 -4.4,-2 z m -65,-0.4 c -5.50723,-0.074 -11.72019,1.8621 -15.2,6.9 -2.13369,2.1415 -7.4885,6.3812 -6.66211,0.6742 -0.69077,-4.3209 -5.49267,-4.1981 -3.9668,0.5518 0.72875,2.035 5.10995,7.6731 -0.14609,4.974 -2.0271,-3.3108 -6.10264,-7.6479 -6.2125,-1 -2.05221,0.399 -9.91419,-0.99 -6.96875,2.6953 4.67594,0.1496 10.13998,3.945 15.14531,0.9156 3.61025,-1.1152 8.33846,-0.452 11.46875,-1.6156 -2.0598,-6.2417 8.34354,-3.4372 8.13047,-9.9631 2.73914,-6.8663 2.6759,8.3014 4.68672,0.3178 2.30316,-1.3505 -0.28576,4.9787 4.01523,2.2395 6.50338,0.7206 6.60358,-9.2498 0.30977,-7.6895 -1.46984,0.1592 -3.50262,-0.182 -4.6,1 z m 72,0 c 0,1.1 0.2,2 0.5,2 0.2,0 0.9,-0.9 1.5,-2 0.9,-1.6 0.8,-2 -0.5,-2 -0.8,0 -1.5,0.9 -1.5,2 z m -125.9,-0.6 c -0.1,1.1 0.2,1.7 0.5,1.3 0.3,-0.3 0.4,-1.2 0.1,-1.9 -0.3,-0.8 -0.6,-0.5 -0.6,0.6 z m 91.4,-3.5 c -2.61732,1.1938 -6.98071,6.8931 -9.00937,4.5094 5.6686,-2.1028 -1.19984,-5.0077 -2.59063,-1.4094 0.45675,-6.3942 -10.228,-0.6708 -5.2625,3.6 -3.78627,1.3917 -2.35843,-8.1519 -5.6375,-3.1 -1.58857,2.3105 -4.96825,5.5296 0.0719,5.7625 4.45722,2.2163 9.6169,5.6892 14.73574,5.4377 -2.47454,-3.1608 -3.53225,-7.8453 2.69707,-6.8455 3.19715,-2.0173 4.44572,-6.317 8.83437,-6.1735 0.96653,-2.7535 -2.29818,-2.5651 -3.83906,-1.7812 z m -117.5,-0.5 c 0,0.9 0.5,1.6 1,1.6 0.6,0 1,-0.4 1,-0.9 0,-0.6 -0.4,-1.3 -1,-1.6 -0.5,-0.3 -1,0.1 -1,0.9 z m 147.6,-1.5 c -0.3,0.5 0.7,1.1 2.2,1.4 3,0.6 4.5,0 3.7,-1.4 -0.8,-1.2 -5.2,-1.2 -5.9,0 z m -39.8,-6.7 c 0.9,0.9 1.5,0.9 2.4,0 0.9,-0.9 0.7,-1.2 -1.2,-1.2 -1.9,0 -2.1,0.3 -1.2,1.2 z m 67.2,10.3 c 0.7,0.9 1.5,1.3 1.7,1.1 0.7,-0.7 -0.7,-2.6 -1.9,-2.6 -0.6,0 -0.6,0.6 0.2,1.5 z m 49,-5.5 c 0,0.5 0.7,1 1.5,1 0.8,0 1.5,-0.5 1.5,-1 0,-0.6 -0.7,-1 -1.5,-1 -0.8,0 -1.5,0.4 -1.5,1 z m -18.6,0.1 c -0.8,1.4 1.1,1.7 5.1,1 l 4,-0.7 -4.3,-0.5 c -2.4,-0.3 -4.5,-0.1 -4.8,0.2 z m -7.9,-0.2 c -0.3,0.5 -0.1,1.3 0.5,1.6 1.5,0.9 4.3,-0.3 3.5,-1.5 -0.8,-1.3 -3.2,-1.3 -4,-0.1 z m 72.3,-3.2 c 0.6,0.2 1.2,0.9 1.2,1.4 0,1.3 -2.8,1.1 -3.2,-0.3 -0.3,-0.7 -1,-0.8 -1.7,-0.4 -1.7,1.1 2,4.6 4.7,4.6 2.7,0 3.6,-3.7 1.2,-5 -1,-0.6 -2.2,-1 -2.7,-0.9 -0.4,0 -0.2,0.3 0.5,0.6 z m -16.6,0.6 c -0.9,1.1 -1,1.7 -0.2,2.2 1.5,0.9 2.3,0.1 1.8,-2.1 -0.3,-1.5 -0.4,-1.6 -1.6,-0.1 z m -53.9,-4.7 c 0.3,0.3 1.2,0.4 1.9,0.1 0.8,-0.3 0.5,-0.6 -0.6,-0.6 -1.1,-0.1 -1.7,0.2 -1.3,0.5 z m -15.7,-1.1 c -1.9,1.5 -1.9,1.5 0.1,1.5 1.1,0 2.3,-0.7 2.7,-1.5 0.7,-1.9 -0.3,-1.9 -2.8,0 z M 1228.291,564.45212 c -21.1815,9.88519 -1.3601,26.87754 -32,23 -21.9089,3.25675 -32.1749,17.09515 -3.3,25.5 18.7239,29.18175 -19.9229,18.3126 -31.5,30.6 -22.6506,12.19191 -18.9203,58.71885 10,40.6 28.8456,8.81246 30.064,16.33522 13.5,14.7 -1.8691,18.89207 -48.9081,20.38553 -16.7,40.2 5.3429,-1.64631 -38.325,5.76598 -11.4,24.3 8.5069,11.22396 -8.5447,62.47416 -16.1,55.7 -8.2356,13.91981 -56.263,50.40433 -6.8,52.8 12.3909,-12.24694 23.8354,0.67166 40.1,-7 16.8165,-6.63737 21.2835,-0.20866 40,-2.7 26.5564,11.15177 4.4726,20.44862 -18.6875,14.5375 4.7236,-1.15826 -18.075,-0.7679 -32.3,-2.4 -40.2307,-2.69202 -43.9442,27.91058 -20.7125,26.7625 12.0987,4.58731 41.7656,8.72926 -9,14.3 -46.6354,-2.33876 -27.484,34.51009 -37.8875,49.175 -9.5777,19.94094 31.7891,38.29078 10.9875,45.22498 -14.1439,7.8271 -68.4361,35.814 -28.1,39.7 33.2434,-17.3951 63.3254,14.7299 103.8,10 -54.5426,3.8504 -126.3913,4.8395 -186.97502,-2.55 -56.11912,12.186 -110.89811,41.5895 -169.525,39.95 -52.72727,-10.0947 -106.81489,8.2922 -159.9,10.8 -42.20404,9.6735 -71.73058,18.5665 -114.2,27.5 -60.39482,19.4622 -124.01599,23.303 -186.8,25 -32.99375,11.0412 11.98262,15.5335 19.1,4.2 61.11247,0.05 3.98756,16.7433 -32.9,14.8 -34.33163,4.7591 -44.96301,6.7836 -9.8,-10.4 -15.28419,-3.965 -53.76731,17.3555 -75.4,20.9 -22.84041,14.3009 -102.89299,11.6312 -81.8,42.4 25.54756,0.3789 38.7954,-12.1451 59.7,-13.5 19.31064,-8.9178 38.54825,-12.8684 57.7375,-4.4375 14.81895,-13.2804 12.10512,-9.9722 31.775,-12.5375 13.52447,8.6589 23.31498,-9.0496 38.0875,-8.525 17.82263,5.1791 20.78596,-8.5903 32.525,0.175 29.4608,-7.8142 53.63749,0.3544 79.275,-6.3125 25.85097,-3.3722 28.27052,1.5307 51.4,-2.6625 14.93625,-5.7555 20.28309,7.1199 20.8,-4.3 15.18412,-6.8223 32.45069,7.9191 56.2,-0.3 16.80161,-7.7146 25.50013,-1.2313 47.1875,-1.3 1.44318,-5.0834 49.69722,-9.0395 39.8125,-6.1 1.36548,10.9989 42.76263,-2.1092 41.3,1.4 14.06491,-0.1573 44.02108,4.2935 66.6,3.8 18.70237,5.3633 27.85712,-0.8966 40.8,4.8 22.01464,-5.0134 20.87796,6.7822 40.9,1.1 12.4313,7.1618 71.2074,10.1432 31.3,-1.2 -26.4204,-6.3756 -64.51103,-2.1772 -84.375,-10.35 -28.01962,0.175 -84.09402,-8.9598 -122.125,-5.95 -47.20569,6.9251 -7.14068,-13.5164 17.1,-4.1 20.2345,0.6384 36.05999,-11.03 52.4,0.8 4.01888,-6.3576 38.9135,-9.065 57.925,-5.45 17.81129,-2.2782 35.84753,-0.7913 51.375,-0.85 35.34067,-0.2135 74.92274,0.9257 105.5125,-0.7625 22.45612,5.6869 45.36362,-0.2705 48.78752,0.8625 24.8076,6.3323 34.7703,1.0159 58.0375,4.875 15.1736,-4.6757 42.8772,1.7362 70.6,0.2875 19.4697,-2.0446 44.7923,-6.3439 63.8625,-1.2625 11.7757,4.0678 27.7647,-1.3818 41.1,-1.1 15.2518,9.306 41.9437,-7.0039 60.2,5.2 21.6852,2.0871 31.901,-0.6539 46,3.8 10.0622,5.4129 42.8082,4.253 34.2,2.1 18.4813,1.5798 35.894,4.8489 68.9,7.5 22.2643,-2.7989 45.7665,6.3379 69.825,0.7125 17.0013,7.4098 44.1189,7.587 59.975,5.3875 13.9371,7.8597 74.3114,4.1175 58.8,8.8 18.5227,-1.7191 34.7748,8.975 49,4 25.2042,5.5648 92.2859,13.8649 78.5,10.7 -28.6661,21.6571 -59.8524,23.103 -97,28 -70.2676,0.9178 -140.175,8.5744 -210,-2.9 -60.6234,-8.1297 -121.1984,-9.1771 -182.6,-8.7 -33.6791,2.1274 -68.8209,-1.7752 -102.1,-5.8 -29.0605,-2.6008 -44.7752,-1.6405 -73.7,-7 -50.2149,-10.8305 -98.75,-33.229 -151.42502,-25.2625 -25.21711,-5.3519 -69.72471,7.065 -31.675,4.3625 11.91402,12.2628 27.66253,2.3408 41.7,6.4 15.61512,4.0048 41.66112,-10.2397 47.60002,4 24.5342,-1.4766 41.8483,9.939 56.9,8.0875 1.7943,-0.8172 35.531,18.6372 30.8,11.8125 17.0511,1.0215 50.8852,6.3249 79,7.9 24.036,6.1341 36.9656,2.5167 65.9,2.1 14.4125,0.3 34.6876,5.2861 56.7,6.5 16.5458,2.1172 30.0565,-4.2851 49.8875,-0.7 18.2281,-9.3612 32.9186,4.1486 51.0125,3.5 15.2086,-0.491 33.1792,-1.2936 55.3,3.7 29.281,-2.2351 68.7803,11.526 97,2.3 17.3867,7.2527 52.4909,-4.6939 75.4875,3.5875 15.1303,-7.3277 46.4476,3.3805 60.3125,-9.1875 14.3217,7.1326 34.7031,0.9072 31.35,-0.9125 31.5937,-3.8367 56.6981,-28.7794 85.45,-29.2875 23.7486,-0.2768 54.8167,-2.3131 81.7,3 42.5913,-0.1934 84.7779,29.9013 129,34.5 56.4836,20.1903 35.4752,-27.7685 -12.2625,-21.5 -60.2207,-8.6245 -112.815,-44.08 -173.1375,-51.9 -94.9537,-20.2918 -189.1491,-59.6698 -288.7045,-44.5945 -57.5159,10.1421 -109.4249,-22.8539 -166.7205,-17.0805 -58.9611,-9.7264 -121.5342,3.8636 -173.875,-29.025 -54.8114,-13.8178 44.4711,-10.3389 -8.2,-28.4 -18.0732,-5.7322 -123.9847,-3.0412 -86,-21.7 20.5084,-15.2263 101.6058,32.1873 73.0625,-15.6125 -22.1457,-1.8854 -114.3148,-12.7082 -87.325,-31.26248 14.8377,1.22153 44.1851,11.51081 66.5625,13.275 71.9149,22.26768 4.3398,-50.40201 -37.925,-29.675 -48.6712,10.01639 -58.7391,-10.83032 -9.075,-12.125 20.0339,-0.81489 31.3448,3.44274 52.7875,9.2375 2.5547,1.26333 76.8566,22.45702 22.4125,-16.8375 -21.3491,-27.5535 -131.7044,17.85841 -107.8375,-22.7375 13.9264,-6.82499 55.2449,-17.31625 45.5375,-10.3625 9.1914,1.93786 35.9778,4.07222 46.95,8.2875 22.8856,9.25011 36.2839,-12.84787 -4.85,-18.6875 -16.1094,7.31338 -79.1109,-19.67581 -50.8375,-17.5 15.9625,-5.57812 39.2443,-7.94422 57.4375,-5.6 29.694,19.62113 47.2095,3.73367 16.9125,-25.13125 -19.3148,-16.37948 -137.7951,16.29424 -88.0125,-16.16875 27.3141,-12.75893 27.3101,2.11821 44.5,-5 14.6002,6.15299 37.5808,5.1224 54,22.7 47.5463,15.82459 -19.556,-42.48963 -41.8,-37 20.9433,-11.29391 47.3702,18.65732 57.3,5.7 -23.8337,-23.90371 -44.1982,-37.52513 3.3,-18.8 31.073,-27.53095 -73.9819,-49.05746 -90.9125,-61.5 28.9292,-6.33428 33.8398,0.88356 67.1125,4.9 50.1936,31.2322 -5.3338,-29.67884 33.2,-14.3 25.0329,-10.02714 1.9277,-42.32092 -13.2,-42.7 -1.5208,-14.121 -50.8384,-5.2559 -29,-15 -5.9425,-12.57329 31.387,9.60579 26,1.5 21.5244,12.66639 55.7288,11.30564 18.2,-12.7 13.823,-30.91384 -43.4063,-39.06155 15.825,-37.075 10.2428,-34.095 -118.7688,-22.27792 -48.975,-37.5125 20.5544,-5.31343 67.22,20.89499 33.95,-13.7125 -4.9354,-12.16273 -25.9156,-13.87195 -39.7,-17.3 z m 13.1,3.4 c -12.9604,22.38642 -19.7688,9.99096 -5.8,0.8 2.2097,0.69402 4.4316,-4.93564 5.8,-0.8 z m -13.4,5.3 c -1.8166,5.1047 -3.1807,-3.50605 0,0 z m -24.2,17 c -7.2913,7.00896 4.1504,-8.07508 0,0 z m 16.2,3.1 c -2.5549,3.58745 -2.5549,-3.58745 0,0 z m -14.5,1 c -2.4882,3.7182 -3.9002,-3.58377 0,0 z m -29.5,2.6 c -2.9133,1.789 -2.3109,-3.52527 0,0 z m 49.7,25.1 c -11.6501,13.1275 -8.4572,-6.06416 0,0 z m 11.3,2.3 c -17.4709,5.31649 -1.4725,-8.61565 0,0 z m -24,-0.5 c -15.4456,6.00837 3.1722,-4.57093 0,0 z m 28.6,0 c 2.999,5.61936 -8.2163,-5.96643 0,0 z m -16.4,5.1 c -9.4687,8.52489 3.0162,-9.71004 0,0 z m 22.7,1.2 c -0.3218,11.0094 -13.6708,-6.68535 0,0 z m -12.2,1.8 c -5.1314,0.44579 -0.2988,-5.1644 0,0 z m -4.5,1.1 c -4.3564,1.3602 -0.4228,-1.89473 0,0 z m -32.7,5.3 c -2.4882,3.7182 -3.9002,-3.58377 0,0 z m -9,2 c -8.1453,11.53644 -5.3084,-5.19555 0,0 z m 22.9,0.5 c -4.2396,5.34951 -0.3563,-5.22091 0,0 z m -11.6,2.7 c 3.2277,8.77836 -10.3814,-6.25928 0,0 z m 16.5,3.5 c 40.1193,14.81239 28.7557,9.51799 -5.8,11 -17.5186,1.20177 -67.6759,27.05148 -47,-2.3 8.5512,-3.57809 31.3343,-9.50298 52.8,-8.7 z m 9.9,15.5 c -3.8627,-0.56569 2.7314,-5.22843 0,0 z m 29.8,-1.1 c -2.9133,1.789 -2.3109,-3.52527 0,0 z m -38,4.9 c -5.2428,3.68475 -5.2428,-3.68475 0,0 z m 38,1.6 c -7.3281,10.6714 -4.3144,-2.03726 0,0 z m -28,1.4 c -3.9032,3.65313 -3.9032,-3.65313 0,0 z m -19.8,5.7 c -4.3564,1.3602 -0.4228,-1.89473 0,0 z m -44.9,2 c -5.5114,1.63294 -0.9968,-1.7589 0,0 z m 33.9,0 c -4.3564,1.3602 -0.4228,-1.89473 0,0 z m 12.4,10.3 c 3.9105,10.05485 -14.2275,-6.71653 0,0 z m 24.2,1.6 c 7.1339,14.15768 -11.8246,-7.32318 0,0 z m -6.8,1.4 c -7.1708,3.71327 -4.7689,-3.79856 0,0 z m -8.4,3.5 c -10.0512,2.45725 -26.3739,-0.61855 0,0 z m 10.4,2.6 c -3.1807,3.50605 -1.8166,-5.1047 0,0 z m 10.5,0.9 c -7.1708,3.71327 -4.7689,-3.79856 0,0 z m -19.7,2.3 c -6.2513,7.05807 -3.6505,-7.33464 0,0 z m -6,-0.3 c -1.2675,12.38266 -25.7189,2.45446 0,0 z m 21.4,2.2 c -5.2284,2.73137 -0.5657,-3.86274 0,0 z m 11.3,4.8 c -3.611,3.77107 -5.5827,-3.66369 0,0 z m -28.9,8.7 c -2.1933,-0.94331 2.11,-3.91456 0,0 z m 27.4,0.3 c -3.9002,3.58377 -2.4882,-3.7182 0,0 z m -76.7,2.6 c -5.0303,2.62089 0.3814,-6.26981 0,0 z m 15.2,1.4 c -5.8038,1.52078 -3.2399,-3.29863 0,0 z m 24,3.1 c 10.3761,21.72336 -28.8505,8.01474 -5,3.1 1.8749,-4.65318 -1.9974,-8.55431 5,-3.1 z m 47,-0.6 c -4.4206,8.24373 -4.4206,-8.24373 0,0 z m -60.2,1.8 c -15.6656,-0.048 11.1976,-4.73572 0,0 z m 20.7,-1.8 c -6.6639,3.09029 1.2959,-4.86622 0,0 z m 47,2 c -2.4919,4.88495 -5.423,-5.87708 0,0 z m -39.6,0.2 c 22.7552,1.5724 -23.0949,12.21713 0,0 z m -31.6,3.4 c -4.1951,8.36656 -6.1335,-6.88381 0,0 z m -2.5,6.5 c -9.3445,5.47769 1.9203,-6.65387 0,0 z m 48.5,0.6 c -12.3285,12.48815 -8.0576,-3.28058 0,0 z m -11.8,1.8 c -2.5549,3.58745 -2.5549,-3.58745 0,0 z m -32.7,2 c -2.2576,6.96066 -0.7589,-6.95824 0,0 z m 49.8,1.3 c -5.0936,2.20944 1.19,-5.31254 0,0 z m -42.1,3.3 c -3.2485,3.49379 -0.5341,-5.09343 0,0 z m -39,3.9 c -3.3662,4.9735 -3.7116,-5.57187 0,0 z m 19,17.3 c -6.4821,6.81471 -7.3055,-2.66493 0,0 z m 7.3,1.7 c 1.3462,8.94804 -13.9303,-3.86175 0,0 z m 29.2,4.5 c 19.4931,4.23103 -32.121,3.00363 0,0 z m -22,5 c 8.7601,11.84889 -12.7746,-6.75143 0,0 z m 35.5,0.1 c -2.9133,1.789 -2.3109,-3.52527 0,0 z m -50.4,3.9 c 4.1015,8.9777 -10.5637,-4.85171 0,0 z m 6.4,0 c 1.9923,7.36788 -7.9042,-4.84654 0,0 z m -13,2.1 c -2.9133,1.789 -2.3109,-3.52527 0,0 z m -8.8,7.6 c -4.3564,1.3602 -0.4228,-1.89473 0,0 z m 44.9,8.3 c 5.5714,5.91832 -13.0295,-4.01834 0,0 z m -12.6,0.9 c -7.5852,7.53039 -3.6821,-3.96734 0,0 z m -13.3,0.8 c -4.3564,1.3602 -0.4228,-1.89473 0,0 z m 36.2,0.8 c -13.9553,8.90858 -0.1501,-5.36415 0,0 z m 12.6,0.5 c -2.5505,3.58635 -1.1073,-3.68426 0,0 z m -36.8,10.6 c 11.9534,13.41142 -15.5124,-2.8507 0,0 z m 13.3,-3.6 c 14.5666,10.51623 -26.0087,-2.96282 0,0 z m -29.8,1.7 c 15.3374,14.96951 -23.0619,4.19547 0,0 z m 52.1,5.1 c -3.2551,4.4605 -3.8399,-5.16649 0,0 z m -44.4,1.7 c -3.613,5.44425 -0.6877,-5.53886 0,0 z m -38.4,1.5 c -2.5549,3.58745 -2.5549,-3.58745 0,0 z m 7,1 c 3.1198,3.47056 -11.7779,-2.50269 0,0 z m 51,-0.1 c -1.8166,5.1047 -3.1807,-3.50605 0,0 z m -27.2,1.9 c -4.4667,5.53632 -13.5429,-3.31979 0,0 z m 8.7,14.1 c -1.4315,5.67975 -4.176,-3.25672 0,0 z m -9.6,2 c 1.4837,4.88885 -11.4325,-0.93591 0,0 z m -57.9,12.7 c -4.0157,1.81346 -3.8959,-3.36028 0,0 z m 85,28.3 c -5.2104,7.12114 -1.5959,-4.01432 0,0 z m -14.7,32.6 c 16.9072,9.34695 -37.4344,-5.40976 0,0 z m -12.3,0.5 c -5.5827,3.66369 -3.611,-3.77107 0,0 z m 21,0 c -1.7331,3.35184 -9.913,-3.05431 0,0 z m -7.8,6.7 c -4.3564,1.3602 -0.4228,-1.89473 0,0 z m 9.2,2.8 c -0.6877,5.53886 -3.613,-5.44425 0,0 z m -77.4,2.6 c -3.1807,3.50605 -1.8166,-5.1047 0,0 z m -13.7,10.7 c -12.5354,-0.0833 4.5179,-9.29069 0,0 z m 87.3,18.1 c 36.4723,3.36634 -5.0325,4.96075 0,0 z m -40.6,4.1 c -2.4882,3.7182 -3.9002,-3.58377 0,0 z m -19.8,2.2 c -5.2284,2.73137 -0.5657,-3.86274 0,0 z m 85.8,0.8 c -2.5505,3.58635 -1.1073,-3.68426 0,0 z m -70.4,16.7 c -4.2664,0.30738 1.7022,-4.70727 0,0 z m 7.9,5.2 c 26.0046,-6.66139 82.2336,17.16859 19.5,5.7 -0.7937,-0.0151 -51.2945,-9.51288 -19.5,-5.7 z m -46.6,5.5 c 2.6472,7.69248 -15.7716,-7.88689 0,0 z m 77.1,11.6 c -6.8354,0.64557 -2.9383,-2.66176 0,0 z m -60,10.99998 c -1.9857,3.4148 -11.0054,-3.1499 0,0 z m 30,16.4 c -0.9835,2.513 -7.8843,-1.0709 0,0 z m -46,1.6 c -3.9032,3.6531 -3.9032,-3.6531 0,0 z m 10.5,12 c -2.4882,3.7182 -3.9002,-3.5838 0,0 z m 70,22 c -3.9032,3.6531 -3.9032,-3.6531 0,0 z m -180.4,7.1 c -9.0551,4.5586 5.8781,-6.6668 0,0 z m -14.1,1.4 c 27.6731,-0.9699 51.5912,7.7438 59.1,8.2 29.84,11.6457 55.7372,29.0932 1.375,27.2125 -33.7377,-1.4963 -74.00661,4.6917 -99.26252,2.55 -18.11538,14.4522 -17.59828,-0.9234 -36.4125,6.2375 -5.97614,-10.8911 -52.43923,0.9312 -38,3.4 -36.71859,15.5795 -11.86693,-10.1354 -31,-4.9 -6.12959,27.2268 -17.26809,-16.1164 5.7,-13.2 28.51036,2.0677 45.07913,-7.6249 73.6,-13.2 20.52367,-7.7004 37.06498,-6.9845 59.7,-17.6 l 4.21252,-0.9625 0.9875,2.2625 0,0 z m 148.3,7.6 c -5.7471,0.7409 1.1955,-6.348 0,0 z m 22.2,-1.1 c -1.2921,3.9208 -3.5479,-3.7819 0,0 z m -23.5,3 c 52.3873,5.2498 -46.4392,1.1074 0,0 l 0,0 z m 39,7 c 22.0544,4.6234 61.2956,7.9361 78.8,23.8 -33.3361,6.4192 -119.4318,-3.532 -121.1,-13.5 16.0777,6.6595 27.6726,-15.9319 42.3,-10.3 z m -82,8.9 c -6.9735,6.9396 -3.2408,-3.2673 0,0 z m -235.50002,3.1 c -2.55047,3.5864 -1.10731,-3.6843 0,0 z m -67.6,4.2 c 9.76405,12.5922 31.2673,21.4553 35,11.6 -3.88018,22.4114 -12.21055,7.9644 -24.9,8.7 -6.13209,8.7688 -25.70165,10.2862 -43.5,14.4 -38.95469,9.2474 -82.50957,8.1993 -120,6.2 -36.14767,-2.1292 -20.91987,-14.728 -47.9,-1.1 8.57442,-2.7427 1.89368,-11.0297 22.5,-16.2 19.60797,-1.2306 38.63195,-8.6878 55.55,-16.675 15.17974,8.0806 20.74078,3.0797 35.45,-2.125 14.43527,2.3611 28.89377,0.7033 47.6,-4.9 14.20387,3.0995 30.42169,-1.0096 40.2,0.1 z m -56.5,2.3 c -3.97811,3.5024 -1.91157,-4.9848 0,0 z m -14.9,1.5 c -4.04836,2.1182 -2.34203,-3.5546 0,0 z m 399.70002,0 c 16.5681,9.2497 18.5284,7.5463 42.2,8.9 20.375,5.0992 43.7806,-0.3724 58.6,7 26.3276,-1.796 55.0533,-4.0183 88.4,1.2 27.0907,3.5319 60.8322,-6.6788 84.8,5.3 20.8987,0.2208 38.6677,9.1427 57.1,9.5 36.6878,3.3418 67.0641,14.7578 105.5,18.8 29.4258,1.1805 69.1007,12.6026 86.8,20.2 -194.8158,-22.0663 -391.1765,-35.1875 -587.5,-33.3 -55.0836,-3.1499 -112.81769,-2.3219 -170.80002,-3.9 -40.07432,3.9181 -88.13388,-0.8566 -26.4,-7.3 4.71727,1.3546 19.98736,-3.2835 34.725,-0.9 11.89575,-6.5852 46.82393,-9.5981 39.375,-6.7 24.08849,4.0733 59.01382,-0.3001 73.93752,-4.65 28.2949,2.445 33.1116,3.3454 49.0625,-4.05 -2.9616,6.9121 35.8161,0.8629 24.5,1.9 11.7596,-7.0256 33.4477,-8.4821 39.7,-12 z m -310.90002,1.4 c -2.55768,4.6145 -3.25112,-4.3681 0,0 z m 339.00002,0.3 c -5.5114,1.6329 -0.9968,-1.7589 0,0 z m -161.30002,1.3 c -3.9002,3.5838 -2.48817,-3.7182 0,0 z m 19.00002,2 c -1.9694,4.0128 -11.0267,-3.7075 0,0 z m -106.50002,6 c -3.9002,3.5838 -2.48817,-3.7182 0,0 z m -260.5,1.1 c -2.91333,1.789 -2.31088,-3.5253 0,0 z m 195.2,2.5 c 1.47732,11.7571 -8.16949,-4.8488 0,0 z m 483.00002,1.1 c -4.3564,1.3602 -0.4228,-1.8947 0,0 z m -507.20002,3.2 c -3.52858,5.4697 -7.06928,-4.0978 0,0 z m 108,0.7 c -1.58314,2.4097 -4.87204,-3.5643 0,0 z m 529.20002,0.1 c -4.3564,1.3602 -0.4228,-1.8947 0,0 z m -27.8,2.4 c -4.4519,1.6957 -0.147,-4.7617 0,0 z m 13.6,3.9 c -2.4882,3.7182 -3.9002,-3.5838 0,0 z m 97.5,1 c -2.4882,3.7182 -3.9002,-3.5838 0,0 z m 111.9,4.5 c 16.9671,12.4826 55.1771,-3.1311 66.1,13.5 23.8038,4.7867 30.8664,4.6221 45.1,11.6 28.7468,0.8946 43.1521,8.617 67.55,16.9125 21.1306,-0.2479 44.5995,7.3837 64.15,12.4875 -42.178,5.1287 -105.9855,-9.9947 -154.8,-15.6 -57.3132,-8.7059 -114.1339,-18.8528 -171.0125,-29.7125 16.9078,-9.0167 30.0214,-4.2512 45.2125,-3.9875 -11.9325,-7.8994 33.0858,0.447 37.7,-5.2 z m 25.6,1.7 c -6.2977,5.9553 -9.0531,-11.2077 0,0 z m -1107.50002,-1.2 c -3.9002,3.5838 -2.48817,-3.7182 0,0 z m 15.3,0.2 c -3.40805,3.7999 -3.29492,-4.2419 0,0 z m 219.4,-0.5 c -4.35641,1.3602 -0.4228,-1.8947 0,0 z m -211.2,3.3 c 8.00557,10.0589 -16.00865,-9.4024 0,0 z m 175,-1.4 c -4.01574,1.8135 -3.89586,-3.3603 0,0 z m 57.5,0.4 c -2.55047,3.5864 -1.10731,-3.6843 0,0 z m -250.2,3.2 c 34.62841,7.1943 -24.61159,-1.2829 0,0 z m 209.7,-0.2 c -5.66479,7.0676 -0.11411,-7.0284 0,0 z m 948.20002,0.7 c -4.3564,1.3602 -0.4228,-1.8947 0,0 z m -1177.30002,1.2 c -9.60822,10.0117 -11.80162,-1.1759 0,0 z m -18.9,4 c -5.21037,7.1211 -1.59591,-4.0143 0,0 z m -5.5,2.1 c -4.98887,3.6254 -2.66966,-3.846 0,0 z m 52.9,1.1 c -4.45192,1.6957 -0.14698,-4.7617 0,0 z m 6.1,-1.1 c -3.90318,3.6531 -3.90318,-3.6531 0,0 z m 453.50002,0.6 c -3.2485,3.4938 -0.5341,-5.0934 0,0 z m -525.00002,1.2 c -4.22893,6.3478 -9.00746,-1.3404 0,0 z m 109,1.7 c -2.44437,5.2528 -0.89204,-5.2929 0,0 z m -36.8,1.4 c -9.9158,9.3286 -0.0729,-7.6646 0,0 z m 30.5,-0.7 c 9.28943,7.0282 -19.59754,-0.044 0,0 z m 32.5,0.5 c -4.35641,1.3602 -0.4228,-1.8947 0,0 z m 469.40002,2 c -2.1933,-0.9433 2.11,-3.9146 0,0 z m 6.4,-0.2 c -6.2754,4.7057 -1.4893,-0.2481 -0.5,-2.5 l 0.5,2.5 z m -534.00002,-0.5 c -2.55047,3.5864 -1.10731,-3.6843 0,0 z m 10,0 c -3.90318,3.6531 -3.90318,-3.6531 0,0 z m 80.9,0.6 c -0.99688,6.9888 -16.11175,-7.6836 0,0 z m 1096.60002,-0.6 c -3.9032,3.6531 -3.9032,-3.6531 0,0 z m -1130.30002,2.7 c -4.35641,1.3602 -0.4228,-1.8947 0,0 z m 44,0 c -4.35641,1.3602 -0.4228,-1.8947 0,0 z m 443.90002,0.4 c 4.0317,8.1281 -11.5565,-4.1429 0,0 z m 232.5,2.6 c -2.1933,-0.9433 2.11,-3.9146 0,0 z m -673.60002,-0.6 c -2.91333,1.789 -2.31088,-3.5253 0,0 z m -100.4,3.5 c 16.76646,6.4211 -15.31476,-4.6068 0,0 z m 78.4,0.1 c -10.00147,8.0563 -25.12641,-6.7431 0,0 z m -282.5,0.3 c -4.04836,2.1182 -2.34203,-3.5546 0,0 z m 55.7,-0.3 c -4.35641,1.3602 -0.4228,-1.8947 0,0 z m 142.4,0.7 c 3.67506,8.5353 -8.30952,-5.525 0,0 z m -57.1,0.6 c -2.55047,3.5864 -1.10731,-3.6843 0,0 z m 12,-0.1 c -0.66504,5.7447 -7.36157,-2.7248 0,0 z m 62.5,2.1 c -5.58271,3.6637 -3.61105,-3.7711 0,0 z m 792.50002,0 c -2.4882,3.7182 -3.9002,-3.5838 0,0 z m 24.7,1.2 c -5.2284,2.7314 -0.5657,-3.8627 0,0 z m -875.10002,0.8 c 1.64189,8.4185 -9.99409,-3.4324 0,0 z m 11.7,1.2 c -6.64603,9.5021 -8.83671,-7.8781 0,0 z m 197.6,-0.1 c -4.45192,1.6957 -0.14698,-4.7617 0,0 z m -32.2,1.6 c -4.35641,1.3602 -0.4228,-1.8947 0,0 z m -407.2,5.5 c -8.62686,0.4217 -3.40524,-7.7229 0,0 z m 1510.00002,-2.6 c -2.9133,1.789 -2.3109,-3.5253 0,0 z m -161.6,0 c 5.3427,4.1848 -10.5036,-1.5514 0,0 z m -878.40002,1.9 c -13.85859,4.0488 7.64339,-5.69 0,0 z m 791.30002,0.9 c -2.5577,4.6145 -3.2511,-4.3681 0,0 z m 110,-0.6 c 1.8561,5.1233 -14.2111,-1.0871 0,0 z m -145.8,1.2 c -2.5505,3.5864 -1.1073,-3.6843 0,0 z m 137.8,-0.3 c -5.5114,1.6329 -0.9968,-1.7589 0,0 z m -111,2.3 c -6.5737,7.3845 -1.834,-7.9134 0,0 z m -1269.70002,0.1 c 19.53557,6.1967 -22.71367,6.5862 0,0 z m 240.7,2 c -5.65256,0.9297 1.18553,-6.339 0,0 z m 1159.60002,-1.7 c 13.6936,2.0016 -9.7648,2.6387 0,0 z m -1414.90002,2.6 c -2.55494,3.5875 -2.55494,-3.5875 0,0 z m 6,1.8 c -5.65413,13.6379 -6.59858,-4.2794 0,0 z m 121.4,0.1 c -1.6603,5.0363 -5.6368,-2.6833 0,0 z m 1286.80002,0.8 c -4.3564,1.3602 -0.4228,-1.8947 0,0 z m -688.2,5.9 c -2.9134,1.789 -2.3109,-3.5253 0,0 z m -753.00002,3.1 c -17.62221,10.2447 -21.77084,-4.1286 0,0 z m 1646.30002,-1 c -5.5114,1.6329 -0.9968,-1.7589 0,0 z m 23.7,1.3 c -2.5505,3.5864 -1.1073,-3.6843 0,0 z m -866,1.5 c -2.4793,5.269 -2.4793,-5.269 0,0 z m -14,1.6 c -2.9133,1.789 -2.3109,-3.5253 0,0 z m 717.9,0.2 c 3.3529,6.0309 -8.1331,-3.7854 0,0 z m -1527.10002,0.9 c -5.25869,5.4387 -4.55453,-4.5618 0,0 z m 34.2,4.8 c -2.55494,3.5875 -2.55494,-3.5875 0,0 z m 1582.20002,1.7 c -4.3564,1.3602 -0.4228,-1.8947 0,0 z m -1559.20002,2.4 c -2.91333,1.789 -2.31088,-3.5253 0,0 z m -98,2.8 c -2.68726,4.4958 -4.74593,-1.8187 0,0 z m 950.00002,3.2 c -2.9133,1.789 -2.3109,-3.5253 0,0 z m 22.7,1.2 c -3.7985,4.9428 -3.5516,-5.2165 0,0 z m -12.7,0.8 c -2.9133,1.789 -2.3109,-3.5253 0,0 z m 62.5,2.9 c -3.611,3.7711 -5.5827,-3.6637 0,0 z m 37.8,4.6 c -1.1356,9.4422 -6.4304,-3.3669 0,0 z m 8.2,2.4 c -2.5505,3.5864 -1.1073,-3.6843 0,0 z m 714.5,0 c -2.5549,3.5875 -2.5549,-3.5875 0,0 z m -272.1,12.4 c -1.5039,6.4894 -11.5154,-3.4865 0,0 z m -41.3,4.5 c -5.3284,4.3463 -0.355,-9.3208 0,0 z M 981.69098,551.85212 c -0.9,1 1.5,5.4 3,5.4 0.7,0 1.3,-0.5 1.3,-1 0,-0.6 -0.4,-1 -1,-1 -0.5,0 -1,-0.9 -1,-2 0,-2 -1.1,-2.6 -2.3,-1.4 z m 251.60002,-3 c 0.3,0.3 1.2,0.4 1.9,0.1 0.8,-0.3 0.5,-0.6 -0.6,-0.6 -1.1,-0.1 -1.7,0.2 -1.3,0.5 z m -248.90002,-5.8 c 0.4,1.2 -0.1,2 -1.7,2.7 -2.9,1.3 -3.6,4.5 -0.9,4.5 1.1,0 2.5,0.7 3.2,1.5 1.7,2.1 4.2,-0.3 2.8,-2.8 -1,-2 -0.3,-3.8 1.5,-3.6 2.8,0.3 4.8,-0.2 4.2,-1.1 -0.4,-0.6 -1.2,-1 -1.8,-0.9 -0.7,0.1 -2.5,-0.3 -4,-0.9 -3.7,-1.6 -3.9,-1.5 -3.3,0.6 z m -282.9,-14.8 c -0.3,0.5 -0.1,1 0.4,1 0.6,0 1.1,-0.5 1.1,-1 0,-0.6 -0.2,-1 -0.4,-1 -0.3,0 -0.8,0.4 -1.1,1 z m 309.20002,-3.3 c -1,0.9 -0.9,4.3 0.1,4.3 1.2,0 3.2,-2.3 3.2,-3.7 0,-1.4 -2.2,-1.8 -3.3,-0.6 z m -8,-1 c -0.3,0.4 -0.8,2.3 -1.2,4.1 -0.5,2.4 -1.3,3.3 -3.30002,3.8 -4.1,0.9 -7.2,2.6 -6.6,3.6 0.4,0.6 1.1,0.5 1.7,-0.1 1.5,-1.5 2.7,-1.4 2.7,0.3 0,0.8 -1.1,2.4 -2.5,3.4 -1.6,1.3 -2.2,2.3 -1.5,2.7 0.6,0.4 1.9,0 2.9,-0.9 1,-0.9 2.3,-1.6 2.9,-1.6 0.6,0 1.4,-1 1.7,-2.1 0.4,-1.2 2.30002,-3.7 4.20002,-5.6 2.2,-2.3 3.3,-4.2 3.1,-5.6 -0.3,-2.2 -3.2,-3.6 -4.1,-2 z m -78.70002,-1.8 c 0,0.6 0.5,1.1 1,1.1 0.6,0 1,-0.2 1,-0.4 0,-0.3 -0.4,-0.8 -1,-1.1 -0.5,-0.3 -1,-0.1 -1,0.4 z m 90.10002,-6 c 0.4,1.2 1.9,1.5 1.9,0.3 0,-0.4 -0.5,-0.9 -1.1,-1.1 -0.6,-0.2 -1,0.2 -0.8,0.8 z m 121.3,-3.5 c -1,2.1 -0.9,2.5 0.7,2.9 2.5,0.7 5.3,-2.5 3.7,-4.1 -1.8,-1.8 -3.2,-1.4 -4.4,1.2 z m 1.6,-6.9 c 0.7,0.8 1.9,1.5 2.6,1.5 0.8,0 1.1,-0.6 0.8,-1.5 -0.4,-0.8 -1.5,-1.5 -2.6,-1.5 -1.7,0 -1.8,0.3 -0.8,1.5 z m -283.50002,-1.5 c -0.3,0.5 0.3,1 1.4,1 1.2,0 2.1,-0.5 2.1,-1 0,-0.6 -0.6,-1 -1.4,-1 -0.8,0 -1.8,0.4 -2.1,1 z m 97.5,-7.6 c 0,1.1 1.9,1.5 2.5,0.6 0.3,-0.5 -0.1,-1 -0.9,-1 -0.9,0 -1.6,0.2 -1.6,0.4 z m -30,-3.4 c 0,0.5 0.5,1 1,1 0.6,0 1,-0.5 1,-1 0,-0.6 -0.4,-1 -1,-1 -0.5,0 -1,0.4 -1,1 z m 22.6,-2.5 c -0.8,0.8 -1.9,1.5 -2.5,1.5 -0.6,0 -1.1,0.6 -1.1,1.4 0,1.6 -2.1,2.6 -5.8,2.6 -1.5,0 -3.2,0.4 -3.7,0.8 -1.7,1.2 -4.7,6.3 -4.1,6.9 0.3,0.4 0.1,1.2 -0.4,1.8 -0.8,0.9 -0.2,1.4 2.2,1.9 2.8,0.6 3.6,0.3 5.3,-1.9 1.2,-1.4 3.1,-2.5 4.3,-2.5 1.2,0 2.2,-0.5 2.2,-1.1 0,-0.7 1,-0.9 2.6,-0.5 2,0.5 3.3,0.1 5,-1.5 2.9,-2.7 3.1,-4.9 0.4,-4.9 -1.6,0 -1.9,-0.5 -1.3,-3 0.6,-3.3 -0.6,-3.9 -3.1,-1.5 z m 1.4,5.5 c 0,0.5 -0.5,1 -1.1,1 -0.5,0 -0.7,-0.5 -0.4,-1 0.3,-0.6 0.8,-1 1.1,-1 0.2,0 0.4,0.4 0.4,1 z m -8,5 c 0,0.5 -0.7,1 -1.5,1 -0.8,0 -1.5,-0.5 -1.5,-1 0,-0.6 0.7,-1 1.5,-1 0.8,0 1.5,0.4 1.5,1 z m -26,-11.1 c 5.53008,3.67547 -7.03374,6.98956 -2.80677,2.25977 -6.76952,0.97545 -11.2831,6.80124 -13.76696,12.72452 -3.20951,5.71632 -7.49377,10.47464 -10.59529,15.89225 -2.00668,5.64695 -3.98158,10.7249 -7.03225,15.99588 -3.96895,5.82948 -4.72656,12.93398 -8.58767,19.0611 0.14361,8.29572 -2.06421,16.4162 -2.96854,24.64398 -0.0552,6.90985 -2.72674,13.59734 -1.76582,20.58843 -0.44898,10.3337 -2.31036,20.67036 -1.75099,31.06884 -0.82018,6.08756 4.60022,14.92028 11.53198,12.16073 7.32078,-3.58159 1.80359,-12.09458 4.51064,-17.97739 0.47901,-7.17185 3.83001,-13.82026 3.34568,-21.09822 -0.68946,-5.82164 3.62065,-10.3285 3.84492,-15.96606 -0.82091,-5.92669 4.79141,-10.26228 4.40357,-16.12883 3.15062,-2.70347 6.10667,-9.23045 4.1764,-10.92773 5.1001,1.13653 4.35584,-5.46323 5.19509,-6.65712 4.72768,-2.69886 8.95513,-9.49168 8.89668,-14.49759 -1.76766,-3.70449 6.78274,-0.0152 3.11212,-4.82684 0.44521,-2.04531 3.44056,-1.18369 1.7988,-3.98575 6.20142,2.00116 3.64343,-3.77375 -0.002,-5.07919 -1.63038,-0.61238 4.98673,-1.33083 5.35021,-4.2919 2.53282,-4.12439 7.49113,-4.49184 10.09242,-8.89892 2.56688,0.33781 8.78528,-2.30222 2.82432,-2.56819 -2.66688,-1.75455 -13.17242,-5.67175 -12.38178,1.35391 3.66549,1.63934 1.53071,7.31293 -1.72371,3.55329 -1.45248,0.44026 -7.68818,0.78888 -7.91413,4.48415 -4.41006,1.3592 -5.99603,6.02704 -6.41285,9.25593 -4.29767,3.05053 -4.88547,7.24761 -10.01738,9.66762 -5.68444,3.39789 1.53367,-6.9677 1.15329,-9.80524 0.59045,-2.01526 0.81712,-4.04026 2.98422,-2.68904 2.71751,-5.17838 7.38464,-8.78947 10.33882,-14.27028 2.87502,-1.93608 2.01585,-2.9391 1.30346,-5.53595 3.8671,-1.89286 7.12231,-4.13872 4.69972,-8.75742 0.7213,-3.27381 5.11635,-9.53527 -1.8361,-8.74874 z m -3.1,10.8 c -0.69768,5.30777 -8.87974,-0.30241 -2.14441,-1.5945 0.88534,0.22 1.69827,0.77281 2.14441,1.5945 z m -1.6,8.8 c -1.36245,7.83924 -4.85746,-5.2524 0,0 z m 7.7,12 c -6.91967,3.5821 0.94051,-5.64946 0,0 z m -28,26.4 c 0.29507,3.19359 -5.50758,7.6335 -2.32901,2.35451 -0.36958,-1.93123 0.79835,-7.02514 2.32901,-2.35451 z m -2,9.5 c -1.43434,2.47451 -1.4988,8.01852 -3.32117,2.33627 -0.52514,-1.68491 2.52877,-5.86825 3.32117,-2.33627 z m 64,-69 c 0,1 2.8,1.3 4.1,0.5 1,-0.6 0.7,-0.9 -1.3,-0.9 -1.6,0 -2.8,0.2 -2.8,0.4 z m 156.00002,-1.1 c 0,0.8 0.7,1.7 1.5,2.1 0.8,0.3 1.5,0.3 1.5,0 0,-0.3 -0.7,-1.2 -1.5,-2 -1.3,-1.3 -1.5,-1.3 -1.5,-0.1 z m -27,-3.3 c 0,0.5 0.5,1 1,1 0.6,0 1,-0.5 1,-1 0,-0.6 -0.4,-1 -1,-1 -0.5,0 -1,0.4 -1,1 z m -164.00002,-1.6 c 0,0.3 0.5,0.8 1,1.1 0.6,0.3 1,0.1 1,-0.4 0,-0.6 -0.4,-1.1 -1,-1.1 -0.5,0 -1,0.2 -1,0.4 z m 60,-1.4 c 0,0.5 0.6,1 1.4,1 0.8,0 1.8,-0.5 2.1,-1 0.3,-0.6 -0.3,-1 -1.4,-1 -1.2,0 -2.1,0.4 -2.1,1 z m -11.5,0 c 0.3,0.5 1,1 1.6,1 0.5,0 0.9,-0.5 0.9,-1 0,-0.6 -0.7,-1 -1.6,-1 -0.8,0 -1.2,0.4 -0.9,1 z m -85.2,-0.3 c -1.5,0.6 -1.7,3.3 -0.3,3.3 0.5,0 1.4,-0.9 2,-2 1.1,-2 0.6,-2.3 -1.7,-1.3 z m 102,-2.1 c 0.3,0.3 1.2,0.4 1.9,0.1 0.8,-0.3 0.5,-0.6 -0.6,-0.6 -1.1,-0.1 -1.7,0.2 -1.3,0.5 z m -92.4,-1.2 c -0.3,0.4 -0.4,1.8 -0.1,3.1 0.3,1.8 1.1,2.5 2.6,2.5 1.9,-0.1 1.9,-0.2 0.5,-1.3 -0.9,-0.7 -1.8,-2.1 -2,-3.1 -0.2,-1 -0.7,-1.5 -1,-1.2 z m 109.4,-2.8 c 0.3,0.3 1.2,0.4 1.9,0.1 0.8,-0.3 0.5,-0.6 -0.6,-0.6 -1.1,-0.1 -1.7,0.2 -1.3,0.5 z m -102.1,-2 c -2.9,2 -2.8,3.4 0.2,3.4 2.6,0 5.1,-2.4 4.1,-4 -0.8,-1.4 -1.7,-1.3 -4.3,0.6 z m -76.5,-1.1 c -0.9,0.9 -1.7,2.1 -1.7,2.6 0,0.5 -0.5,0.9 -1.1,0.9 -0.6,0 -2.2,0.8 -3.5,1.9 -2.8,2.2 -1.8,3.5 3.2,4.4 2.6,0.5 3.3,0.2 4.2,-1.9 0.7,-1.4 2,-2.4 3.2,-2.4 2.2,0 1.9,-1.1 -1.2,-5.4 -1.3,-1.7 -1.5,-1.7 -3.1,-0.1 z m 186.00002,-6.9 c -0.8,0.8 0.1,2.4 1.4,2.4 0.5,0 0.9,-0.7 0.9,-1.5 0,-1.5 -1.2,-2 -2.3,-0.9 z m 227.3,-6.6 c -1.4,1 -2.1,2.2 -1.7,2.6 0.4,0.4 0.7,0.2 0.7,-0.4 0,-0.7 0.6,-1.2 1.4,-1.2 0.8,0 1.8,-0.5 2.1,-1.1 1.2,-1.8 0,-1.8 -2.5,0.1 z m -230.70002,-13.4 c 0.3,0.3 1.20002,0.4 1.90002,0.1 0.8,-0.3 0.5,-0.6 -0.6,-0.6 -1.10002,-0.1 -1.70002,0.2 -1.30002,0.5 z m 338.70002,-4.7 c 0,0.6 0.5,1.1 1,1.1 0.6,0 1,-0.2 1,-0.4 0,-0.3 -0.4,-0.8 -1,-1.1 -0.5,-0.3 -1,-0.1 -1,0.4 z m 83.5,-1.9 c 0.5,1.5 0.2,2 -1.4,2 -2.8,0 -3.7,2.1 -1.7,3.6 1.1,0.7 1.5,1.8 1.1,2.5 -0.6,0.9 0.1,1 2.9,0.5 3.9,-0.7 5.3,1.1 1.6,2.1 -3.1,0.8 -2.4,2.1 1.8,2.9 2,0.4 3,0.9 2.2,1.2 -2.5,0.8 -4.1,4.2 -2,4.2 0.6,0 2.3,1.1 3.8,2.5 1.5,1.4 3.3,2.5 4,2.5 0.7,0 1.1,0.4 0.7,0.9 -0.3,0.6 0.8,3.5 2.5,6.6 1.6,3 3,6.2 3,7 0,0.9 1.1,3.3 2.5,5.5 1.4,2.2 2.5,4.2 2.5,4.5 0,0.3 0.8,2.3 1.7,4.5 1.1,2.5 2.4,4 3.5,4 1,0 1.8,-0.5 1.8,-1 0,-0.6 1.2,-1.1 2.8,-1.1 l 2.7,-0.1 -3,-0.7 c -2.7,-0.6 -3.5,-2.6 -1,-2.6 0.6,0 1.1,-0.4 1.3,-0.8 0.5,-1.7 0.1,-2.5 -2,-3 -1.7,-0.5 -1.9,-0.9 -0.9,-2 0.9,-1.2 0.8,-1.6 -0.4,-2.1 -0.9,-0.3 -1.5,-1.8 -1.5,-3.7 0,-3 -2.2,-6.7 -6.7,-11.3 -1.3,-1.3 -2.3,-3 -2.3,-3.9 0,-0.9 -0.4,-1.9 -1,-2.2 -0.5,-0.3 -1,-1.3 -1,-2.1 0,-0.8 -0.6,-2.2 -1.2,-3 -3.2,-3.7 -7.6,-8.2 -9,-9 -0.8,-0.5 -2.5,-3 -3.7,-5.7 -2.2,-4.6 -4.8,-6.6 -3.6,-2.7 z m 11.5,17.1 c 0,0.5 -0.4,0.7 -1,0.4 -0.5,-0.3 -1,-0.8 -1,-1.1 0,-0.2 0.5,-0.4 1,-0.4 0.6,0 1,0.5 1,1.1 z m -113.3,-22.7 c 0.4,2.1 0.8,2.3 2.3,1.3 1.7,-1 1.7,-1.2 0.2,-2.4 -2.5,-1.8 -3,-1.6 -2.5,1.1 z m -262.1,-0.9 c -0.3,0.8 -0.1,1.5 0.4,1.5 0.6,0 1,-0.7 1,-1.5 0,-0.8 -0.2,-1.5 -0.4,-1.5 -0.2,0 -0.6,0.7 -1,1.5 z m 348.7,-6.1 c -2.3,1.1 -2.9,2.7 -1.5,4 0.4,0.4 0.7,2.2 0.7,3.9 0,2.9 0.4,3.3 3.5,3.7 2.6,0.4 3.5,1 3.4,2.3 -0.2,1.4 0.1,1.5 1.1,0.7 0.8,-0.6 1.1,-1.8 0.8,-2.6 -0.6,-1.6 2.2,-2 3.2,-0.4 1.1,1.8 2.3,0.1 1.7,-2.5 -0.5,-2.8 -1.2,-3.1 -3,-1.3 -0.9,0.9 -1.6,0.7 -3,-0.8 -1,-1.1 -1.7,-2.5 -1.5,-3.1 0.5,-1.4 -1.4,-5.4 -2.5,-5.2 -0.4,0.1 -1.7,0.6 -2.9,1.3 z m 3.2,8.6 c 0.3,0.5 -0.1,1 -0.9,1 -0.9,0 -1.6,-0.5 -1.6,-1 0,-0.6 0.4,-1 0.9,-1 0.6,0 1.3,0.4 1.6,1 z m -76.8,-8 c -0.3,1.2 -1.4,2 -2.5,2 -2.5,0 -3.9,3 -1.4,3.1 0.9,0.1 2.5,0.1 3.5,0 0.9,-0.1 1.7,0.2 1.7,0.8 0,1.8 4.3,5.1 6.7,5.1 1.6,0 2.3,-0.6 2.3,-1.9 0,-1.1 0.3,-2.6 0.6,-3.4 0.6,-1.6 -3.6,-3.2 -4.6,-1.8 -0.3,0.5 -1.5,0.5 -2.8,0 -1.9,-0.7 -2.1,-1.2 -1.2,-2.8 1.3,-2.6 1.3,-3.1 -0.4,-3.1 -0.7,0 -1.6,0.9 -1.9,2 z m -55.5,-21 c 0.5,1.5 2.1,1.7 2.6,0.2 0.2,-0.6 -0.4,-1.2 -1.3,-1.2 -0.9,0 -1.5,0.4 -1.3,1 z m 49.8,-2 c 0,0.6 -1.4,1.7 -3.1,2.4 -4.1,1.7 -2.7,2.5 4.1,2.3 6.2,-0.3 7.9,-2.5 3.5,-4.5 -3.2,-1.5 -4.5,-1.5 -4.5,-0.2 z m -43,-2.5 c 0,0.9 0.6,1.5 1.3,1.2 1.4,-0.4 1.2,-2 -0.3,-2.5 -0.5,-0.2 -1,0.4 -1,1.3 z m -312.40002,-3.8 c -0.3,0.3 -0.3,1 0,1.4 0.7,1.2 3.4,1.1 3.4,0 0,-1.1 -2.6,-2.2 -3.4,-1.4 z m 518.10002,-1.3 c -0.7,1.9 1.1,3.2 2.4,1.9 0.6,-0.6 0.5,-1.4 -0.4,-2.2 -1.2,-0.9 -1.6,-0.8 -2,0.3 z m -112.5,-8.2 c 0.3,0.7 1.2,1.4 2.1,1.6 1.2,0.2 1.5,-0.1 1.1,-1.2 -0.7,-1.9 -3.8,-2.2 -3.2,-0.4 z m 58.8,-6.6 c 0,1.6 0.9,1.8 2.8,0.5 1,-0.6 0.9,-1 -0.7,-1.4 -1.4,-0.3 -2.1,0 -2.1,0.9 z m -65,-3.1 c 0,0.7 -0.7,1.8 -1.5,2.3 -2,1 -0.9,4.2 1.4,4.2 3.3,0 4.2,-1.4 3,-4.8 -1.1,-3.3 -2.9,-4.3 -2.9,-1.7 z m -24.7,-4.9 c -0.9,2.3 1.3,4 3.2,2.4 1.2,-1 1.5,-1 1.5,0.4 0,1.6 1.6,2 5.5,1.6 2.6,-0.3 2.7,-0.4 1.9,-2.3 -1.1,-3 -11.1,-4.7 -12.1,-2.1 z m 18,-1.4 c -2.6,1.2 -3,2.8 -0.8,2.8 0.8,0 1.9,-0.9 2.5,-2 0.6,-1.1 0.9,-2 0.8,-1.9 -0.2,0 -1.3,0.5 -2.5,1.1 z m -30.3,-3.2 c 0,0.5 0.7,1 1.5,1 0.8,0 1.5,-0.5 1.5,-1 0,-0.6 -0.7,-1 -1.5,-1 -0.8,0 -1.5,0.4 -1.5,1 z m 4.9,1 c -2.3,2.2 -4,2.9 -5.6,2.6 -2.6,-0.7 -7.6,0.9 -5.3,1.7 3.5,1.2 9.9,1.6 10.5,0.7 0.3,-0.5 1.7,-1 3.1,-1 1.4,0 2.4,-0.6 2.4,-1.4 0,-0.8 1.2,-1.7 2.8,-2.1 l 2.7,-0.7 -3.4,-1.4 c -1.8,-0.8 -3.4,-1.4 -3.5,-1.4 -0.1,0 -1.8,1.4 -3.7,3 z m 115.7,-7.5 c -1.8,1.3 -1.7,1.4 0.8,2.1 2,0.5 2.6,1.2 2.6,3.5 0,1.7 0.8,3.4 2.3,4.4 2,1.5 2.1,1.7 0.5,2.9 -1.6,1.2 -1.6,1.4 0.3,3.4 2.3,2.6 3.7,2.8 4.5,0.7 0.4,-0.8 1,-1.3 1.5,-1 0.4,0.3 0.6,1.2 0.3,2 -0.4,0.9 0.1,1.8 1.2,2.2 1.1,0.3 3.7,1.9 6,3.5 3.8,2.7 7.4,3 7.4,0.7 0,-1.1 1.1,-1.1 2.9,0 0.8,0.5 1.1,1.6 0.7,2.8 -0.5,1.5 -1.3,1.9 -3.4,1.6 l -2.7,-0.5 2.4,1.7 c 2,1.6 2.8,1.6 6.3,0.4 4,-1.3 6.2,-3.9 4,-4.7 -0.7,-0.2 -1.2,-1 -1.2,-1.7 0,-1.9 -1.9,-2.9 -3.3,-1.7 -1.9,1.6 -4.7,-1 -4,-3.7 0.5,-1.9 0.3,-2.2 -1.3,-1.8 -5.9,1.6 -9.2,1.7 -9.8,0.2 -0.3,-0.8 -0.3,-2.2 0,-3 0.4,-0.9 0,-1.5 -1,-1.5 -1.2,0 -1.6,-1 -1.6,-3.5 0,-1.9 -0.4,-3.5 -1,-3.5 -0.5,0 -1,0.9 -1,1.9 0,2.5 -2,3.8 -3,2.1 -0.4,-0.7 -1.3,-0.9 -1.9,-0.6 -1.1,0.7 -1.6,-1.1 -1.2,-5.2 0.1,-1.5 -0.4,-2.2 -1.5,-2.2 -1.3,0 -1.4,-0.3 -0.4,-1.5 1,-1.3 0.9,-1.5 -1.1,-1.5 -1.3,0 -3.2,0.7 -4.3,1.5 z m -123.8,-0.3 c 0.9,0.9 1.5,0.9 2.4,0 0.9,-0.9 0.7,-1.2 -1.2,-1.2 -1.9,0 -2.1,0.3 -1.2,1.2 z m 119.7,-4.2 c -0.3,0.5 -1.7,1 -3,1 -2.2,0 -4.2,1.6 -3.3,2.6 0.7,0.6 9.8,-2.9 9.8,-3.8 0,-1.2 -2.8,-1 -3.5,0.2 z m -572.50002,-34.4 c 0,0.8 0.5,1.2 1,0.9 0.6,-0.3 1,-1 1,-1.6 0,-0.5 -0.4,-0.9 -1,-0.9 -0.5,0 -1,0.7 -1,1.6 z m 220.30002,-59.6 c -2.4,1 -3.2,4 -1,4 0.7,0 2.1,1.6 3.1,3.5 1,1.9 2.7,3.7 3.8,4.1 1,0.3 1.8,1.3 1.7,2.2 -0.4,2.8 1.8,6.9 4,7.5 1.3,0.3 2.3,1.9 3.1,4.7 0.8,2.8 1.6,4 2.5,3.7 0.7,-0.3 1.5,0.3 1.8,1.4 0.3,1.1 1.4,1.9 2.6,1.9 1.2,0 2.4,0.1 2.8,0.2 0.3,0.2 0.8,-0.2 1,-0.9 0.2,-0.6 -1.2,-2.9 -3.1,-5.1 -2,-2.2 -3.6,-4.2 -3.6,-4.6 0,-0.4 -0.5,-1.2 -1,-1.9 -2.6,-3.1 -6.1,-8.5 -7.1,-11 -0.8,-2 -1.7,-2.7 -2.9,-2.4 -1.3,0.3 -1.6,0 -1.3,-1.4 0.4,-1.3 -0.2,-2.2 -2.2,-2.9 -1.8,-0.7 -2.5,-1.5 -2.1,-2.5 0.3,-0.8 0.4,-1.5 0.3,-1.4 -0.1,0 -1.2,0.4 -2.4,0.9 z m -11,-10.4 c -0.8,2.3 1.8,6.5 5.1,8.1 3.2,1.5 3.6,1.5 5.1,-0.1 0.9,-0.9 2.2,-1.6 2.8,-1.7 0.7,0 -0.4,-0.6 -2.2,-1.3 -2.2,-0.8 -3.1,-1.5 -2.3,-2 0.7,-0.4 1.2,-1.3 1.2,-2.1 0,-1.6 -9,-2.6 -9.7,-0.9 z m 94,202 c 0.3,0.3 1.2,0.4 1.9,0.1 0.8,-0.3 0.5,-0.6 -0.6,-0.6 -1.1,-0.1 -1.7,0.2 -1.3,0.5 z m 4.7,-3.6 c 0,0.5 0.2,1 0.4,1 0.3,0 0.8,-0.5 1.1,-1 0.3,-0.6 0.1,-1 -0.4,-1 -0.6,0 -1.1,0.4 -1.1,1 z m -5,-2.9 c 1.3,2.4 1.6,2.4 4.6,0 l 2.4,-1.9 -4,0 c -3.7,-0.1 -3.9,0.1 -3,1.9 z m 9.5,-2.1 c -0.4,0.6 0.6,1 2.2,1 2.2,0 2.5,-0.2 1.3,-1 -1.9,-1.2 -2.7,-1.2 -3.5,0 z m 5.5,-9 c 0,1 -0.8,2.4 -1.7,2.9 -2.4,1.4 -0.7,1.4 1.8,0 1.5,-0.7 2.4,-0.7 3.5,0.2 1.7,1.4 1.7,0.9 0.4,-2.5 -1.1,-3 -4,-3.5 -4,-0.6 z m 83,21 c 0,0.5 0.5,1 1,1 0.6,0 1,-0.5 1,-1 0,-0.6 -0.4,-1 -1,-1 -0.5,0 -1,0.4 -1,1 z m -10.1,-6.3 c -1.3,1.6 -1.2,1.7 0.4,0.4 0.9,-0.7 1.7,-1.5 1.7,-1.7 0,-0.8 -0.8,-0.3 -2.1,1.3 z m -255.9,-78.8 c 0,0.5 0.3,1.7 0.6,2.6 0.5,1.3 0.8,1.4 1.5,0.3 1.3,-2 1.1,-3.8 -0.6,-3.8 -0.8,0 -1.5,0.4 -1.5,0.9 z m 5.5,-5 c -0.5,0.9 3.5,4.5 4.2,3.8 0.1,-0.2 0,-1.3 -0.4,-2.5 -0.5,-2.2 -2.7,-3 -3.8,-1.3 z m 8.8,0.2 c 1.4,2.3 0.2,4.9 -2.3,4.9 -1.1,0 -2,0.4 -2,1 0,1.7 3.3,1.1 7.2,-1.3 3.2,-2 3.5,-2.4 2,-3.4 -1.5,-1 -1.5,-1.3 -0.2,-2.2 1.1,-0.7 0.5,-0.9 -2.1,-0.8 -3,0.2 -3.4,0.5 -2.6,1.8 z m 52.7,26.9 c 0,0.5 0.5,1 1,1 0.6,0 1,-0.5 1,-1 0,-0.6 -0.4,-1 -1,-1 -0.5,0 -1,0.4 -1,1 z m 61,-7.6 c 0,0.3 0.5,0.8 1,1.1 0.6,0.3 1,0.1 1,-0.4 0,-0.6 -0.4,-1.1 -1,-1.1 -0.5,0 -1,0.2 -1,0.4 z m -7.6,0.1 c 2.6,1.9 4.2,1.9 2.6,0 -0.7,-0.8 -2,-1.5 -2.9,-1.5 -1.3,0.1 -1.3,0.3 0.3,1.5 z m -45.7,-17.9 c -0.8,0.8 0.1,2.4 1.4,2.4 0.5,0 0.9,-0.7 0.9,-1.5 0,-1.5 -1.2,-2 -2.3,-0.9 z m 4,-16.9 c 0.7,0.2 2.1,0.2 3,0 1,-0.3 0.5,-0.5 -1.2,-0.5 -1.6,0 -2.4,0.2 -1.8,0.5 z m 24.3,-8.7 c -1.5,0.3 -2,0.9 -1.3,1.3 0.6,0.4 2.1,0.3 3.4,-0.1 2.9,-1.1 1.2,-2.1 -2.1,-1.2 z m 8,-2 c 0,0.5 0.5,1 1,1 0.6,0 1,-0.5 1,-1 0,-0.6 -0.4,-1 -1,-1 -0.5,0 -1,0.4 -1,1 z m -143.60002,1.5 c -1.8,1.4 -1.8,1.4 0.3,1.5 2.3,0 3.9,-1.5 2.5,-2.4 -0.5,-0.3 -1.8,0.1 -2.8,0.9 z m -11.7,-7.8 c -1.8,1.7 -0.6,3.5 1.9,3 2,-0.3 2.8,0.1 3.6,1.9 1.9,4.1 4.8,2.5 4.8,-2.6 0,-1.2 -1,-2 -3.1,-2.4 -4.1,-0.8 -6.4,-0.8 -7.2,0.1 z m 244.90002,25.8 c 0.4,0.8 0.8,1.5 1,1.5 0.2,0 0.4,-0.7 0.4,-1.5 0,-0.8 -0.4,-1.5 -1,-1.5 -0.5,0 -0.7,0.7 -0.4,1.5 z m 23.6,-22.3 c -1.9,1.9 -1.4,3 0.8,1.8 1.1,-0.6 2,-1.5 2,-2 0,-1.4 -1.4,-1.2 -2.8,0.2 z m 9.1,-7.5 c -1.4,0.5 -1.8,3.3 -0.5,3.3 1,-0.1 4.2,-2.6 4.2,-3.4 0,-0.7 -1.9,-0.7 -3.7,0.1 z m 12.4,-44.1 c -0.8,0.8 0.1,2.4 1.4,2.4 0.5,0 0.9,-0.7 0.9,-1.5 0,-1.5 -1.2,-2 -2.3,-0.9 z m -6.5,-11.4 c 0.3,0.7 1.7,1.4 3.2,1.6 2,0.3 2.7,0 2.4,-1 -0.3,-0.7 -1.7,-1.4 -3.2,-1.6 -2,-0.3 -2.7,0 -2.4,1 z m -284.70002,-79.1 c -26.55027,4.7416 -53.08442,11.98329 -75.7875,21.4625 -30.29907,2.4602 -48.07852,62.40288 -2.2125,44.4375 18.13977,-10.86801 53.70777,-22.85619 29.625,9.8 -28.11193,20.92302 18.35505,21.47112 19.675,11.6 28.37906,-8.87302 57.21519,-17.59335 86.55002,-25.075 18.8752,-11.48733 55.8731,-6.62529 64.8,-13.975 18.0505,-6.75371 52.2026,9.42928 50.8125,31.775 7.2389,11.60869 26.8029,-7.19558 32.0375,16.875 11.4196,15.72897 39.5942,52.5309 25.4,63.5 -19.165,-14.87333 -32.3135,-60.17832 -64.7625,-43.0625 -9.8992,-22.29252 -16.6977,-12.21812 -4.8063,2.70313 -31.1883,-6.02283 -60.8228,-26.44758 -94.8176,-26.08274 -37.32664,-5.452 -72.89983,9.31321 -110.05112,9.40461 -26.74942,1.52321 -39.75644,30.0616 -58.3625,23.5375 -20.81916,5.20453 -39.02991,17.07866 -59.2,20.5375 -25.12131,18.08477 13.92909,22.63067 27.1,8.4625 12.13573,-8.46443 45.14479,-8.2224 22.5,13.3 -3.93565,19.7042 -13.76838,44.79701 -40.3,47.7 -22.11374,12.96213 -43.78887,18.61966 -65.5,34 -18.15268,14.42549 -34.70164,29.55174 -50.7,48.7 -14.96662,17.53555 -35.19132,49.87244 -16.4,69.7 11.05387,-14.2881 12.60716,-36.24227 25.4,-50.8 17.28768,-19.14563 32.99874,-40.76282 56.0625,-50.8375 18.91249,-14.97616 32.18501,-26.62104 51.0375,-32.8625 11.11922,-0.27767 19.77629,-12.3932 31.8,-9 7.15312,-1.94447 49.40842,-27.36753 38.6,-6.9 -11.56965,4.67043 -24.42332,11.40307 -17.4,12.5 -9.851,2.04831 -24.35101,14.75857 -37.2125,25.25 -17.80922,10.06927 -4.76722,26.26022 3.625,9.2625 14.61687,-12.83642 31.16807,-26.23908 45.9875,-37.0125 19.35385,-18.13761 48.33487,-29.13202 73.2,-27 2.01534,-9.20355 14.536,-0.89714 25.8,-4.3 20.84242,5.78187 -0.51615,13.50556 -12.3375,21.775 -22.94776,8.33054 -47.5543,10.87049 -67.875,25.6875 -22.2469,6.34316 -45.24504,21.18657 -61.9875,32.1375 -5.75968,0.71605 -16.39714,31.16495 -28.3,41.3 -8.00888,5.98233 -26.11184,25.42472 -22.7,10.7 9.18441,-11.38401 38.32345,-54.92073 12.3875,-35.95 -20.73784,9.76444 -17.50669,40.94791 -31.44531,57.77344 -22.22934,12.47379 -9.1219,68.15938 2.75781,27.57656 9.47648,-20.05584 25.07574,-31.45508 41.2,-44.6 22.64399,-8.98599 32.80262,-27.73604 57.3,-32.1 14.54418,-6.78494 41.96511,-16.51151 9.1,-12.2 -12.76963,-4.79897 -39.38572,21.34001 -21.925,-6.5625 32.43207,-19.994 67.01057,-36.46541 103.825,-46.9375 30.00679,-2.03547 70.62792,-29.90598 94.00002,-8.6 9.1282,8.83556 -2.9143,-24.48126 21.7688,-14.04375 10.6768,-3.03401 32.8025,18.43834 28.659,24.454 13.7649,10.50214 -22.3255,-5.67477 -9.8403,-8.06025 -18.7559,-1.73982 -15.7538,17.41858 -38.6781,8.875 -8.7943,21.27725 -16.7634,1.03077 -16.8094,7.375 -19.6803,-1.31182 -33.892,6.0327 -51.60002,3.4375 -1.08436,-5.01834 -35.93194,10.62413 -31.725,9.8 -1.20383,-11.84807 -26.6427,6.5712 -33.775,11.5625 -19.03736,1.46615 -12.77529,9.23085 -11.2,7.6 -15.79049,5.05284 -22.46658,3.14479 -4.0625,7 3.8017,11.83583 9.65244,-11.39955 15.775,1.75 -8.09914,10.72049 35.11843,-16.60209 31.4625,-13.325 0.26157,1.56408 44.39803,-21.34364 37.9875,-5.6125 -12.25383,4.69497 -7.33782,17.87927 2.2375,-2.6125 5.10457,-8.85174 53.40822,-2.09935 34.60002,2.1 2.5998,21.21954 -15.3525,8.76516 -23.5,22.375 -28.09578,9.1993 -40.43828,39.85372 -58.20002,61.825 -1.62561,19.02497 -11.8153,53.69409 3.7,66.6 5.69439,-12.0952 12.23403,-31.80243 18.35,-39.1625 11.40642,-10.88062 12.8074,-34.29639 -2.75,-15.7375 25.09654,-12.56366 -9.80908,27.47138 -8.24219,10.20938 9.67244,-6.06119 6.63299,-35.01943 27.54219,-38.50938 14.30631,-15.54911 21.14352,-26.44159 32.48022,-33.92557 1.022,19.45405 2.2405,18.62244 -4.4302,41.35682 0.1941,15.01148 -31.53879,65.48974 -1.8,53.48125 -4.0226,-7.28204 18.8893,-13.34349 21.55,-22.5125 2.3069,-3.18757 18.2175,-16.76967 17.2,-15.7 7.0162,-8.74375 11.6987,-11.19301 21.3,-23.9 14.5456,-10.3616 13.8183,-14.20891 24.575,-21.9875 18.6468,-20.5215 13.0629,21.60279 11.8984,35.64375 4.7203,14.57004 20.9508,-20.31393 16.4266,-19.55625 9.7339,-11.34814 -12.4868,-17.39579 -17.4,-33.675 -13.7925,-5.16504 -20.9924,6.68086 -25.3875,14.925 -9.0075,8.56569 -19.2544,16.41544 -26.275,26.4 -6.8653,9.39167 -22.0315,15.52941 -16.8375,20.35 -8.9806,2.83331 -25.3967,29.23677 -16.4959,-1.1293 6.4647,-17.69261 10.1844,-38.85815 19.5959,-51.9707 10.0766,-3.87085 1.4064,-7.97337 15,-14.3 -25.5928,1.90986 27.534,-20.30185 1.9,-3.2 8.1632,2.38473 26.3677,-1.47089 13.5,-6.3 14.8837,-4.32365 23.7575,-7.61121 31.3,-8.6 8.6418,13.19155 29.2053,43.56157 21.2,9.9 4.8765,-9.88468 23.7405,8.46557 24.05,18.9375 -15.8509,18.39665 15.1884,-0.89605 22.4703,10.78438 13.5828,10.30644 -7.9584,9.29144 0.8797,14.27812 -14.8529,11.22573 -36.9298,19.2766 -16.4,38.9 -9.6352,11.28922 1.695,42.91733 13.3875,23.25 12.5459,8.17091 25.7253,-19.2037 33.5125,-5.65 9.1889,-2.79249 -9.6415,-9.19883 8.1,-4.9 -2.766,-8.20428 24.1121,-12.58152 -4,-11 -7.868,3.1146 -36.4964,8.87866 -39.5,4.5 15.8524,-9.48831 -5.1817,-4.95212 8.6,-16.5 5.7195,-18.195 1.2544,22.24394 9.5375,1.1375 15.8849,8.76559 48.706,-18.57504 71.4625,-0.0375 19.873,24.64061 36.3519,-5.17526 9.3,-13.5 -17.6233,-11.50375 -43.2936,-10.20069 -59,-6.8 -14.1696,4.91509 -48.3997,-5.71111 -19.7,-14.7 11.5191,3.28248 0.109,-26.28293 17.3,-11.6 16.6698,-15.03355 33.2197,6.14904 52.2,11.2 10.1615,0.86757 21.5819,8.68217 11.8406,-12.1625 -18.6127,-10.70808 -45.1695,-6.97949 -54.7031,-17.69219 -9.6809,8.18862 -8.3269,-16.74653 2.6625,-14.14531 -17.7252,-18.75297 17.9693,-4.20147 -2.8187,-16.29375 9.6194,1.36381 24.9116,-4.45373 29.8562,-0.80625 13.9381,8.32028 19.3289,8.23659 33.25,20.7625 10.2797,7.33384 25.4783,25.68513 34.5125,37.4375 7.8229,16.02756 40.6617,35.24536 40.5472,46.35275 19.246,22.0618 26.1439,54.32512 29.1507,83.94725 -3.2273,36.85021 28.1442,17.30926 11.6771,-4.7125 8.2628,-23.16563 -14.3462,-46.86027 -12.175,-69.3875 6.4097,-40.0021 21.2025,9.28449 33,22.5 16.31,13.0828 10.4735,69.41636 32.5,57.3 -6.5006,-29.05751 -14.8516,-57.37988 -24.9,-85.2 -6.7717,-18.28621 -7.6429,-41.39174 -13.3359,-55.40625 -1.7064,-12.72983 -13.725,-43.09078 10.9359,-20.99375 9.79,7.49932 18.2875,33.23556 29.0375,52.3125 3.8531,13.58299 24.9863,68.31748 24.6625,25.4875 -5.6283,-22.6145 -7.0838,-42.49261 -14.3,-64.1 -20.2648,-14.56075 5.8273,27.61978 -0.4875,23.6 -10.3076,-1.4199 -25.0498,-47.25517 -46.3125,-56.5 -25.7527,-9.35239 -22.9801,-36.44778 -43.2,-49 -9.6061,-12.71521 -49.1493,-1.15736 -20.8,3.8 14.5374,-4.9318 38.0419,31.33299 21.8,22.6 -7.6731,-7.90259 -12.1404,-1.98181 -24.1,-11.9 6.3895,17.79143 27.4459,20.19343 33.9,28.4 18.3862,11.1964 19.846,43.32279 25.1,64.5 4.6719,16.61971 11.1218,56.47013 -7.5,21.6 -9.3819,-18.86222 -23.6686,-32.83963 -31.55,-51.775 -8.1594,-3.96345 -13.3411,-24.96117 -22.95,-35.525 -1.0716,-17.23399 -45.4397,-35.14847 -10.4,-36.5 -0.5077,-12.25511 -4.2447,-6.82176 -17.5,-10.1375 -33.4241,1.26542 27.6511,-17.77003 -0.8,-14.1625 -9.4453,10.8575 -15.5362,-4.74952 -32.5094,4.77188 2.3715,13.27916 -25.9363,-10.50028 -1.4625,-7.79688 -6.3967,-0.46964 -23.1629,-8.4286 -4.0781,-4.2 5.3025,-7.72361 15.6855,11.15933 6.7094,-9.09531 -18.662,7.13923 22.8826,-23.15708 6.8406,-2.57969 7.8069,-10.52515 38.0805,2.2571 37.7,-7.5 -0.6641,-9.12402 3.9665,-8.34172 -6.2891,-13.37187 10.0796,-10.92475 13.2983,-5.64798 32.4891,-12.42813 21.0937,-6.12134 28.3796,25.96814 46.925,6.1375 16.7274,1.84912 30.6179,29.42976 36.875,17.1625 6.3579,10.14487 11.5353,21.88143 19.8,21.2 2.2069,10.89738 4.0496,-0.21074 10.7,17.7 27.6399,32.22917 -21.0335,0.0136 -33,-9.1 -20.6944,-2.3177 -29.2418,-21.90831 -51.5125,-20.6875 -19.2099,-1.09327 22.3228,13.06389 9.1125,13.3875 15.9881,-7.52129 23.8175,18.67965 -1.8875,6.4125 -10.093,1.08072 -36.2182,-14.78079 -54.3705,-5.96691 18.2568,11.4014 -12.3698,16.288 17.158,12.25441 20.4734,0.77512 38.8802,8.63919 39.8,13.7 4.9015,-23.22029 7.2593,31.4751 8.2125,1.625 3.4544,-2.24948 14.9529,-17.88651 21.125,-1.15 17.3807,-7.64587 28.3794,17.01574 49.3625,21.125 8.662,11.25263 34.411,34.50009 31.3875,7.7375 9.6002,21.61955 29.9831,43.66423 40.7125,68.7625 0.8922,19.22527 14.7509,66.46758 18.35,22.5125 -1.9557,-23.65272 -13.6818,-41.85599 -12.9125,-53.8125 -10.2028,-0.7062 -5.4372,-25.11693 -12.9375,-34.2 -1.5995,-12.38704 -11.1716,-8.45992 -13.4,-19.6 13.406,-3.2304 -11.1515,-10.37678 -5.4625,-24.05 -16.1308,-5.31576 -26.9279,-25.82636 -19.3703,-1.46562 17.4877,9.00597 18.8283,26.24954 30.5328,46.31562 4.7338,6.35647 14.3032,31.32815 7.775,26.7625 -26.8135,-34.65827 -47.6154,-74.32059 -82.575,-101.8625 -13.9377,-13.40984 -28.3431,-27.20407 -36.5484,-32.0625 -15.4307,-6.55548 -9.7356,-16.80907 14.7484,-14.4375 32.1336,5.35128 63.978,19.36149 92.8625,35.55 25.1983,11.09273 41.116,44.88801 62.3875,50.8 -1.4159,-36.56509 -33.9495,-63.73602 -58.45,-87.35 -16.7517,-7.25611 -47.6023,-30.30743 -62.025,-14.5875 -12.3869,-14.1618 -72.3017,8.53795 -42.1,-21.5625 23.0242,-10.79272 36.4029,-12.93041 63.7,-11.025 18.2866,12.75375 43.5075,32.92873 58.7375,54.4125 27.7213,8.39108 -10.0372,-40.01311 -23.1125,-49.0375 0.3513,-9.80989 42.9538,6.1728 57.4125,12.1 22.3501,-17.87531 -29.9761,-61.29545 -56.7125,-44.1 -24.1986,3.7619 -43.3726,4.81417 -66.5879,0.52969 -29.4891,-2.81887 -55.8778,16.90483 -67.9121,-16.62969 -18.7507,-26.7548 -58.5914,-26.85136 -87.7,-19.9 -19.5367,3.17938 -41.3137,7.80707 -63.1891,6.66094 -22.7385,1.12504 -34.3299,-27.56324 -56.1109,-19.46094 -14.8592,-10.16578 -28.5375,0.29389 -48.2375,-2.5 2.6179,5.69856 -32.5393,-10.81071 -36.2625,3.5 -14.3522,-5.34981 -25.236,-2.20799 -42.5,-1.2 -6.9974,-1.04403 -31.7541,-5.5249 -23.7,-8.8 -17.9996,-6.88682 -35.0176,1.58132 -47.90002,-4 -6.34441,4.61141 -11.06304,-1.39929 -16.9,1.1 z m 45.00002,5.9 c -1.2481,10.27994 -6.5903,-4.27006 0,0 z m -30.30002,4.2 c -11.17231,19.99589 -57.03437,27.91992 -64.4,37.8 -11.66505,-8.33665 -47.23984,19.09576 -42.3,-1.4 14.14836,-9.20865 26.53865,-19.83328 33.42344,-22.4875 23.46421,-5.2571 52.74037,-9.7235 73.27656,-13.9125 z m 127.10002,1.5 c 2.3676,8.42402 -12.7079,-4.97365 0,0 z m 39.7,0.8 c -4.6363,5.67852 -0.8439,-4.87787 0,0 z m -6,0.5 c -2.5505,3.58635 -1.1073,-3.68426 0,0 z m -12.5,1 c -5.5827,3.66369 -3.611,-3.77107 0,0 z m 27.7,-0.3 c -5.5238,0.82773 1.653,-1.70319 0,0 z m -54.9,4 c 15.9925,-1.17598 50.9238,-2.0271 74.425,0.25 20.1396,0.0866 42.9988,11.94714 8.275,10.05 -24.364,0.6164 -60.7501,-2.40824 -76.55,1.25 -19.4553,0.74272 -40.7529,-13.28008 -10.35,-12.25 0.3283,-1.92229 7.0149,-1.87601 4.2,0.7 z m -24.3,1.4 c -5.6903,7.747 -11.839,-7.24479 0,0 z m -60.2,10.2 c 12.9937,-5.52894 63.4576,2.64433 33.4125,14.3875 -8.8868,-1.64061 -33.4568,9.5346 -36.7125,9.3125 -24.23778,2.03041 -52.78886,20.07193 -81.00002,19 9.15642,-23.82731 40.60381,-36.33962 57.9125,-38.45 9.87122,0.0922 15.06042,-8.98042 26.38752,-4.25 z m -35.00002,2.6 c -1.34112,4.16714 -4.43637,-6.11041 0,0 z m 173.20002,-0.9 c -2.5549,3.58745 -2.5549,-3.58745 0,0 z m -90,4 c -2.5505,3.58635 -1.1073,-3.68426 0,0 z m 276.1,1.4 c 20.4348,1.00874 59.8532,14.24647 44.4625,34.9 -23.8239,3.90465 -46.2392,9.2218 -65.4625,17.8 -32.9038,18.75544 -23.8724,-27.30646 -43.6,-39.7 -2.7431,-18.06864 31.247,-7.94727 46.8559,-13.83203 5.919,0.11868 11.8527,0.18326 17.7441,0.83203 z m -176.1,2.3 c 4.0857,5.88462 -13.8983,26.40854 -25,16 -38.4003,-19.07774 8.2375,-16.73409 25,-16 l 0,0 z m 26.5,9.3 c -16.5373,17.6356 -15.1322,-6.84873 0,0 z m -257.00002,1 c -3.27104,3.70091 -6.31727,-3.63962 0,0 z m 120.70002,0.7 c -5.5238,0.82773 1.653,-1.70319 0,0 z m 203.5,2.9 c 32.5983,6.22817 36.1622,62.68393 3.3,54.3 -17.0437,-12.839 8.6592,-4.1161 -14.5,-20.8 -9.5216,-13.5364 -40.6639,-45.78367 -6.5,-29 6.6602,17.81332 17.6777,26.32828 6.5,2.225 -8.2227,-5.31963 0.1282,-15.92199 11.2,-6.725 z m -255.7,3.9 c -4.7845,5.71959 -3.2921,-5.16798 0,0 z m 210.5,4.5 c 17.07,15.45994 41.7267,40.53237 39.725,62.175 -3.3464,15.83045 11.9386,24.38443 -8.8625,17.65 -1.6989,3.88696 -6.2629,6.89714 -0.4,15.1375 -12.192,-1.39584 -8.9284,3.43225 -10.6234,-5.72813 -25.4004,13.50251 2.4302,2.85126 -4.1391,14.36563 -18.021,7.6143 -25.3601,2.23261 -25.2,-21.1 -5.7582,-24.99779 -21.2273,-48.10037 -37.7,-68.625 12.6807,-7.22061 32.6348,-15.03032 47.2,-13.875 z m 231,4 c -3.611,3.77107 -5.5827,-3.66369 0,0 z m 34.5,2.2 c -2.4876,2.90546 -2.3222,-3.63932 0,0 z m 10,0.4 c -3.2485,3.49379 -0.5341,-5.09343 0,0 z m -64.8,0.1 c -5.5238,0.82773 1.653,-1.70319 0,0 z m 125.1,7.2 c 8.9459,10.96026 -34.8074,-4.78659 -4.0125,-0.8375 l 4.0125,0.8375 0,0 z m 7.7,5.1 c -2.5549,3.58745 -2.5549,-3.58745 0,0 z m -133.2,4.3 c 13.2715,3.65102 -31.0079,13.23556 -4.4125,-1.7625 l 4.4125,1.7625 0,0 z m 132.2,-1.3 c -2.5549,3.58745 -2.5549,-3.58745 0,0 z m -153.5,4.6 c 4.1579,15.98191 -11.0478,18.32337 -11.2,24.6 -12.9413,-1.5621 -31.709,16.56791 -51.8,11.2 -12.2703,-7.00677 -26.7061,11.3964 -27.1625,-4.75 14.2973,-6.05558 26.3063,-19.18078 40.85,-19.25 13.0228,-5.25714 33.3976,-16.06298 49.3125,-11.8 z m 44.5,-1.6 c -2.4882,3.7182 -3.9002,-3.58377 0,0 z m -16.5,5 c -19.1928,8.2134 6.5392,-6.43008 0,0 z m -12.9,3.4 c 6.2593,9.27502 -12.4259,-6.40038 0,0 z m -78.1,1.6 c -2.5505,3.58635 -1.1073,-3.68426 0,0 z m -302.5,2.5 c -2.4793,5.26898 -2.4793,-5.26898 0,0 z m 283.1,2.5 c 3,10.6227 -9.38,-4.37722 0,0 z m -5.4,3 c 11.5174,12.5421 -23.7305,3.85904 0,0 z m -270.3,0.9 c -2.2957,5.10525 -5.2508,-3.72608 0,0 z m 15.1,5.6 c 19.2928,3.28608 71.7336,23.36206 24.15,26.525 -10.1743,-2.84692 -58.3372,-34.73181 -24.15,-26.525 z m 240.8,2.2 c 12.8242,0.33572 -2.787,10.24364 -0.6,16.1 -5.6793,7.24241 -6.2308,-25.4025 0.6,-16.1 z m 103.4,0.9 c 10.5408,19.43354 -34.4456,8.22484 0,0 z m -133.2,0.5 c 0.7719,5.2175 -6.9222,-4.90703 0,0 z m -273.10002,1.9 c 24.00092,5.56985 63.77072,7.45076 69.60002,34.8 -15.9912,-20.29631 -44.3215,-6.11313 -66.1,-6.9 -7.37701,3.15895 3.5602,-7.04178 -16.31721,-1.34062 7.98093,6.35262 19.59671,9.70434 -3.75781,15.84062 -22.47778,18.18798 -51.00331,20.39684 -78.325,24.3 -16.75596,8.25158 -48.42717,7.23867 -20.69863,-17.94707 14.2885,-23.50851 40.0457,-23.87599 57.09863,-19.25293 11.60692,-2.42327 36.37892,-1.08276 16.1375,-9.4625 -13.1177,1.15482 -59.6165,5.12197 -24.2375,-10.4375 20.24509,-13.34313 43.56199,-12.38545 66.6,-9.6 z m 295.10002,2 c -3.9002,3.58377 -2.4882,-3.7182 0,0 z m 127.5,-0.6 c -2.7534,5.39579 -4.3913,-1.51676 0,0 z m -138.5,3.6 c -2.7696,5.85577 -4.6172,-3.47604 0,0 z m 106.5,0 c -3.32,6.13756 -6.9036,-4.2298 0,0 z m -96,2.9 c -7.2925,9.05157 -3.5675,-5.08911 0,0 z m -133.3,2.2 c 16.9231,7.44403 25.4555,31.82701 1.6,13.04688 -22.2314,-6.57768 -34.574,-18.71119 -1.6,-13.04688 z m -254.70002,0.9 c -3.9002,3.58377 -2.48817,-3.7182 0,0 z m 374.00002,0 c -3.9002,3.58377 -2.4882,-3.7182 0,0 z m -21.4,3.7 c -1.7013,-1.82013 1.1592,-3.63199 0,0 z m 15.4,-0.2 c -5.7405,3.97672 3.3985,-6.31305 0,0 z m 17,-1.5 c -4.5011,3.80066 -1.5632,-2.80444 0,0 z m -389.00002,2.6 c -2.91333,1.789 -2.31088,-3.52527 0,0 z m 553.20002,0.1 c -5.5238,0.82773 1.653,-1.70319 0,0 z m 33.2,2.5 c 19.2517,-3.10113 70.9216,43.2736 31.5375,19.7375 -18.3774,-8.40272 -28.0851,-13.91282 -40.3375,-20.4375 2.7971,-0.0487 7.5376,-3.35821 8.8,0.7 z m -212.1,1.3 c -5.2211,4.77564 -3.9815,-4.12453 0,0 z m -149.3,2.6 c -9.7584,5.09774 -4.7686,-7.52717 0,0 z m 176.2,-2.4 c -5.5238,0.82773 1.653,-1.70319 0,0 z m 27.6,5.1 c -3.2551,4.4605 -3.8399,-5.16649 0,0 z m -252.9,1.7 c 7.8981,14.56396 -16.5886,-6.15646 0,0 z m 39.6,-0.5 c -2.5505,3.58635 -1.1073,-3.68426 0,0 z m 20.1,2.6 c 8.9823,16.39777 8.1537,21.34323 12.6,4.2 16.6266,7.80632 51.4018,19.66145 31.1,43.2 -13.2646,12.32731 -26.7506,-24.10177 -36.7875,-27.5875 -1.8423,10.57693 -22.3414,-6.3101 -29.2125,-13.4125 -20.0525,-8.48942 19.7485,-9.83206 22.3,-6.4 z m 168.4,-1.7 c -3.9789,7.75842 -2.7356,-5.57719 0,0 z m -478.70002,2.6 c -2.53137,5.17866 -0.48454,-6.87359 0,0 z m 557.50002,-1.3 c -6.9578,6.37584 -2.8046,-5.41862 0,0 z m -130.8,5.9 c -3.1807,3.50605 -1.8166,-5.1047 0,0 z m 53.3,-0.2 c -0.7294,11.58157 -14.0813,-8.58054 0,0 z m -201.3,4.6 c 10.1143,7.81067 66.258,36.5194 35.7625,40.6625 -10.1977,1.41321 -20.4883,9.59971 -26.5625,3.8375 -5.4598,14.89104 30.5449,-2.55416 39.8,3.9 -0.2875,10.86956 5.8892,24.58043 -4.425,30.375 -14.6377,5.07365 -14.9949,2.4225 -1.575,10.825 -6.785,4.93871 -23.428,-4.38329 -19.7,-9.5 4.261,-0.9491 -23.5889,-3.5116 -24.6125,-25.025 8.8935,-10.18894 -30.2039,-49.73161 -11.5875,-18.575 14.531,23.10007 -27.7283,9.58908 -30.1,-2 2.0826,-17.95014 13.3479,-27.72074 25.375,-21.725 -9.7004,-14.11574 6.5083,-18.40639 17.625,-12.775 z m -95.7,0.6 c -6.6313,7.04679 -5.3898,-7.86663 0,0 z m 285.7,-0.1 c -2.5549,3.58745 -2.5549,-3.58745 0,0 z m -259.2,1.6 c 17.4722,0.91238 -2.5243,31.68331 -17.8,27.4 -10.061,-8.58427 -34.11735,-4.96412 -41.23752,-12.175 20.0604,-8.72335 39.37602,-18.07686 59.03752,-15.225 z m 272.2,2.4 c 9.3496,11.45845 -14.0924,1.40827 0,0 l 0,0 z m 8.9,1.6 c -10.0531,5.11103 0.2755,-5.95427 0,0 z m -77.4,0.4 c -1.2921,3.92082 -3.5479,-3.78188 0,0 z m 11,1 c -2.5505,3.58635 -1.1073,-3.68426 0,0 z m 44.5,1.6 c -2.9133,1.789 -2.3109,-3.52527 0,0 z m -421.80002,1.6 c -4.49935,0.99849 3.15785,-4.60524 0,0 z m 373.60002,1 c -3.8399,5.16649 -3.2551,-4.4605 0,0 z m -204.8,1.3 c -2.4444,5.25279 -0.892,-5.2929 0,0 z m 183,0.6 c -5.6102,4.61611 -2.0209,-6.12444 0,0 z m 93.8,-0.1 c 0.2857,7.79804 -8.088,-6.27726 0,0 z m -256.2,6.1 c 5.3065,25.03408 -51.3744,14.62348 -15.3,2.6 2.6123,-0.96408 20.5159,-15.94258 15.3,-2.6 z m 226.4,-4.2 c -1.8166,5.1047 -3.1807,-3.50605 0,0 z m 6.6,1.8 c -1.7013,-1.82013 1.1592,-3.63199 0,0 z m -248.9,0 c -7.5643,3.60633 4.021,-5.37894 0,0 z m 178.3,0.8 c -6.5193,4.90672 2.0505,-5.17558 0,0 z m -182.5,1.5 c -4.0484,2.11824 -2.342,-3.55463 0,0 z m 151.7,3.2 c 11.2361,23.53711 -13.6717,-9.98907 0,0 z m 30.3,0.8 c -4.0484,2.11824 -2.342,-3.55463 0,0 z m 21.7,-0.3 c -5.5238,0.82773 1.653,-1.70319 0,0 z m -250.20002,4.7 c -5.3327,-1.70735 -1.74331,-7.0935 0,0 z m 262.50002,-1.4 c -2.4882,3.7182 -3.9002,-3.58377 0,0 z m -18.3,3.5 c 4.7538,7.85119 -15.5748,-7.71475 0,0 z m 9.2,-1 c -4.3644,5.23564 -4.5567,-5.20919 0,0 z m -249.3,2.9 c -8.64797,0.49783 4.682,-5.55212 0,0 z m -113.00002,2.9 c -3.26976,2.4382 3.25332,-5.4291 0,0 z m 563.70002,-0.5 c -3.7906,4.69775 -4.5879,-4.79605 0,0 z m -204.9,1.3 c 32.5224,26.96576 -24.4267,5.15789 0,0 l 0,0 z m 142.6,-0.1 c -3.9002,3.58377 -2.4882,-3.7182 0,0 z m -155.2,0.7 c -3.9997,8.03549 -12.3663,-4.40704 0,0 z m 21.2,1.3 c -9.2628,2.74233 4.1468,-3.50544 0,0 z m -44.5,2 c -4.0157,1.81346 -3.8959,-3.36028 0,0 z m 53.2,-0.3 c -5.5238,0.82773 1.653,-1.70319 0,0 z m -279.00002,2 c -5.52375,0.82773 1.65297,-1.70319 0,0 z m -33.2,1.9 c -4.16622,1.80309 -2.27537,-3.40746 0,0 z m 196.00002,-0.6 c -5.2428,3.68475 -5.2428,-3.68475 0,0 z m 263,0.6 c -4.0157,1.81346 -3.8959,-3.36028 0,0 z m -247,0.4 c -3.9002,3.58377 -2.4882,-3.7182 0,0 z m 73.4,0.7 c 5.8172,12.05007 -5.9362,-5.4058 0,0 z m -175.9,0.3 c -5.4522,7.39862 -6.6674,-3.18053 0,0 z m 171.5,0.1 c -2.9133,1.789 -2.3109,-3.52527 0,0 z m -236.00002,1.5 c -5.44319,6.02657 -7.09336,-6.95311 0,0 z m 139.20002,-0.9 c -5.5238,0.82773 1.653,-1.70319 0,0 z m 220.3,0.7 c 5.6386,7.04411 -10.3528,-4.37906 0,0 z m -302.5,2.1 c 1.7759,5.19268 -5.2964,-4.74158 0,0 z m 112.8,0 c -4.5703,11.45152 -13.6353,-2.73304 0,0 z m 98.2,-0.6 c -1.8166,5.1047 -3.1807,-3.50605 0,0 z m 151.1,1.4 c 17.0127,8.75157 -19.4545,-3.66441 0,0 l 0,0 z m -391.5,-0.1 c 17.5572,20.10331 -18.2168,8.11171 -28.00002,15.3 -28.49119,3.95846 19.76542,-24.92158 28.00002,-15.3 z m 190.2,3.2 c -1.2544,5.90885 -4.3541,-8.43752 0,0 z m 135.2,1.2 c -2.9133,1.789 -2.3109,-3.52527 0,0 z m -290.7,0.8 c -0.1688,6.83038 -6.2828,-4.95223 0,0 z m 318.7,1.2 c -4.1662,1.80309 -2.2754,-3.40746 0,0 z m -479.80002,2.1 c -5.52375,0.82773 1.65297,-1.70319 0,0 z m 323.80002,2.4 c 8.8916,3.89541 22.0962,24.59515 8.7,22.7 -26.7009,-0.33998 -27.0403,-12.24527 -8.7,-22.7 z m -54,-0.5 c -4.1662,1.80309 -2.2754,-3.40746 0,0 z m 238,-0.2 c -2.4425,6.87961 -5.3744,-5.29883 0,0 z m 7.5,0.6 c -5.3681,1.59867 -1.7689,-3.12697 0,0 z m -319.7,3.7 c -4.2127,5.21657 -6.7021,-5.67918 0,0 z m 153,0.5 c 4.1285,7.34777 -6.6955,-3.87683 0,0 z m 9.2,1.8 c -6.3356,9.38214 -3.1104,-8.79375 0,0 z m 97.2,-0.3 c -5.5238,0.82773 1.653,-1.70319 0,0 z m -74.2,7.4 c -6.1809,0.89783 -4.4374,-11.8604 0,0 z m 0.5,-5.1 c -3.9002,3.58377 -2.4882,-3.7182 0,0 z m 10.5,5.5 c 2.4106,9.21049 -10.9755,-6.27105 0,0 z m 31.8,0.3 c -3.7906,4.69775 -4.5879,-4.79605 0,0 z m -37.5,2.7 c -1.9205,7.91444 -7.3422,-5.87816 0,0 z m -85.1,1.2 c -5.5238,0.82773 1.653,-1.70319 0,0 z m 97.3,2.3 c 13.2704,4.31397 33.8589,30.4307 28.9,35.5 -16.9529,-12.17114 -22.6281,-11.19332 -33.8375,-25.925 -14.293,-4.6284 -6.6809,-16.56701 4.9375,-9.575 z m -44.7,1.5 c 16.2169,-1.07009 13.2198,11.03481 6.2,4.5 10.6251,12.5626 26.0478,20.05896 33.8,35.2 7.9618,-23.65571 31.3305,8.53172 36.7,21.2 7.3499,9.02996 36.4862,55.19312 9.5,37.3 -9.0988,-16.39489 -25.781,-29.31852 -38.275,-41.3 -13.4751,-16.01937 -34.6242,-30.73492 -42.55,-43.2875 2.0586,-4.53018 -21.1388,-18.38708 -5.375,-13.6125 z m -166.8,2.6 c -7.9956,4.65961 -3.1479,-7.79585 0,0 z m 114,-2.1 c 8.8209,13.47398 24.1589,7.99159 27.7703,18.02031 -17.9073,-5.8644 -13.4221,-1.71956 -21.4703,4.67969 -16.5342,0.82475 14.1284,-10.45061 -11.2,-4.45 -8.9694,17.18315 -32.0428,12.22205 -31.8,0.95 13.6538,-3.22688 8.4955,-17.20761 25.1,-10.7 0.9149,-3.91735 8.3069,-9.74541 11.6,-8.5 z m 13,3 c -9.4607,6.84429 4.7031,-8.17889 0,0 z m 281.2,-0.3 c 6.662,11.90814 -11.48,-7.29043 0,0 z m -312.2,1.4 c -2.9133,1.789 -2.3109,-3.52527 0,0 z m 58.8,2 c -9.2974,1.72845 0.4189,-3.70162 0,0 z m -168.8,0.9 c -2.5505,3.58635 -1.1073,-3.68426 0,0 z m 114.5,1 c -2.5505,3.58635 -1.1073,-3.68426 0,0 z m 309.5,1.6 c -4.1662,1.80309 -2.2754,-3.40746 0,0 z m -366.4,3.5 c 15.7956,0.56118 -12.0694,5.40381 0,0 z m -276.80002,1.1 c -3.40805,3.7999 -3.29492,-4.24188 0,0 z m 174.20002,0.8 c -2.555,3.58745 -2.555,-3.58745 0,0 z m 229,1.5 c -4.7035,7.59316 -4.488,-7.8751 0,0 z m -247.6,3.1 c -0.2648,9.85125 -6.0273,-8.88555 0,0 z m 32.4,1 c 8.4829,10.38482 -14.8018,-6.92574 0,0 z m 101.2,2.5 c -14.1308,9.69783 -2.1479,-7.65577 0,0 z m 57,-1.5 c -2.9133,1.789 -2.3109,-3.52527 0,0 z m -205.00002,0.4 c -2.48817,3.7182 -3.9002,-3.58377 0,0 z m 22.50002,0 c -4.0484,2.11824 -2.3421,-3.55463 0,0 z m -30.20002,3.7 c -5.5114,1.63294 -0.99682,-1.7589 0,0 z m 158.70002,1.4 c -3.1807,3.50605 -1.8166,-5.1047 0,0 z m 62.9,1.6 c -9.6095,11.87795 -1.7975,-7.35253 0,0 z m -77.3,1.3 c -6.7912,10.13205 -18.5371,-2.90379 -2.8,0.2 -2.8975,-2.91142 2.8536,0.41283 2.8,-0.2 z m 270.9,2 c -3.9002,3.58377 -2.4882,-3.7182 0,0 z m -341.5,1.5 c -2.8242,5.16647 -2.6876,-5.2189 0,0 z m 11,1.1 c -2.9133,1.789 -2.3109,-3.52527 0,0 z m 136.9,-0.3 c 15.1596,3.14195 -15.3821,12.63065 -5.5,-0.5 l 5.5,0.5 0,0 z m -140.1,1.4 c -5.2365,5.13687 -7.9016,-4.73453 0,0 z m 330.7,0.3 c -5.7869,2.3233 0.6504,4.39955 0,0 l 0,0 z m -65.9,1.2 c 3.811,11.26398 21.3756,27.18629 26.6,46.6 -15.1854,-0.70714 -21.2304,-26.3833 -29.2,-39.8 -3.1041,-1.08716 -3.0693,-12.45986 2.6,-6.8 z m -410.60002,2.1 c -5.96043,8.65699 -6.17153,-3.86564 0,0 z m 150.00002,1.7 c -2.5505,3.58635 -1.1073,-3.68426 0,0 z m 74.4,1.5 c -4.3644,5.23564 -4.5567,-5.20919 0,0 z m -217.40002,7.1 c -4.16622,1.80309 -2.27537,-3.40746 0,0 z m -59.5,9.3 c -1.59409,5.62949 -4.91084,-3.47577 0,0 z m 174.70002,0.8 c -5.5238,0.82773 1.653,-1.70319 0,0 z m 173.5,0.8 c 0.9908,6.88433 -5.1159,-5.76117 0,0 z m -190.8,2.9 c -6.7613,3.16589 -6.2625,-1.78082 0,0 z m 161.6,0.6 c -4.0484,2.11824 -2.342,-3.55463 0,0 z m 241.9,0.9 c -6.2539,7.19387 -2.6069,-4.52603 0,0 z m -237.9,1.1 c -4.0484,2.11824 -2.342,-3.55463 0,0 z m -167.2,4.4 c 3.0319,6.63047 -8.7976,-2.90685 0,0 z m -21.9,6.1 c -5.10445,5.05304 1.1943,-5.0533 0,0 z m 30.6,5.1 c -3.2485,3.49379 -0.5342,-5.09343 0,0 z m 325.8,10.9 c -1.3171,8.52061 -5.3356,-10.56787 0,0 z m 17.1,4.4 c 12.0149,9.13292 2.9987,33.21869 -1.9,6.9 0.3984,-2.13972 -5.1368,-10.53168 1.9,-6.9 z m -195.7,4.8 c -5.5238,0.82773 1.653,-1.70319 0,0 z m 170.8,4.9 c -3.1807,3.50605 -1.8166,-5.1047 0,0 z m 5.6,8.3 c -5.7161,4.24526 -0.5056,-9.83123 0,0 z m -187.6,0.5 c -3.9736,21.90589 -15.3453,-8.63719 0,0 z m -1,13.5 c -3.9789,7.75842 -2.7356,-5.57719 0,0 z m 45,4.2 c -6.6246,4.76318 -8.4381,-2.94915 0,0 z m -246.00002,7 c -2.91333,1.789 -2.31088,-3.52527 0,0 z"
     inkscape:connector-curvature="0" />
</svg>
