<?xml version="1.0" encoding="UTF-8" ?>
<!DOCTYPE svg PUBLIC "-//W3C//DTD SVG 1.1//EN" "http://www.w3.org/Graphics/SVG/1.1/DTD/svg11.dtd">
<svg width="512pt" height="505pt" viewBox="0 0 512 505" version="1.1" xmlns="http://www.w3.org/2000/svg">
<g id="#333f4fff">
<path fill="#333f4f" opacity="1.00" d=" M 218.30 0.00 L 222.43 0.00 C 250.14 0.82 276.22 14.50 295.08 34.39 C 276.35 28.75 256.15 28.24 237.09 32.54 C 219.81 36.49 203.12 45.70 193.02 60.63 C 210.86 56.10 230.31 58.69 246.45 67.50 C 264.19 76.94 277.51 93.35 285.22 111.72 C 295.54 136.31 297.01 163.74 294.06 189.98 C 282.19 164.44 265.10 139.92 240.07 125.87 C 219.54 114.11 194.47 111.48 171.67 117.36 C 193.28 140.66 209.69 168.29 222.94 197.06 C 240.13 234.70 252.15 274.54 260.67 314.98 C 270.53 362.29 275.52 410.61 275.65 458.94 C 275.57 463.64 279.20 468.08 283.88 468.74 C 289.62 469.85 295.47 464.82 295.27 458.98 C 297.75 402.31 307.53 345.78 326.21 292.15 C 336.80 262.25 349.91 233.04 367.50 206.56 C 374.12 196.60 381.50 187.13 389.86 178.55 C 378.87 174.40 366.68 177.05 356.11 181.23 C 334.54 189.99 318.11 208.44 308.37 229.23 C 306.50 209.59 308.00 188.91 317.14 171.09 C 324.08 157.31 336.23 145.84 351.15 141.31 C 360.22 138.38 370.06 138.34 379.29 140.57 C 372.03 129.62 359.72 123.03 347.10 120.38 C 334.57 117.78 321.41 118.10 309.10 121.60 C 320.45 110.24 334.62 101.30 350.43 97.79 C 369.12 93.35 389.60 96.73 405.69 107.30 C 420.88 116.99 431.70 133.11 435.00 150.83 C 462.75 145.33 492.02 162.11 503.32 187.62 C 509.10 199.88 510.99 213.64 510.48 227.09 C 501.27 206.05 482.36 189.64 460.27 183.41 C 475.59 195.48 486.54 213.39 488.83 232.90 C 491.67 255.80 482.04 278.48 467.64 295.87 C 472.11 278.27 471.99 259.27 465.63 242.14 C 461.36 230.52 454.60 219.92 446.38 210.70 C 451.69 226.90 450.55 245.30 442.24 260.30 C 435.64 272.53 425.00 282.19 413.03 289.05 C 403.09 294.78 392.18 298.62 381.09 301.40 C 394.00 290.81 403.39 276.07 407.62 259.92 C 413.23 238.65 411.39 215.96 405.15 195.05 C 369.40 243.05 347.08 300.43 338.20 359.47 C 334.59 382.88 333.06 406.61 333.28 430.29 C 355.40 432.47 377.49 435.55 399.09 440.88 C 409.92 443.74 420.81 446.91 430.65 452.38 C 434.93 454.97 439.55 457.96 441.45 462.82 C 442.97 466.58 441.15 470.74 438.46 473.46 C 433.45 478.53 426.81 481.52 420.30 484.17 C 405.16 490.05 389.17 493.42 373.21 496.21 C 337.99 502.20 302.25 504.27 266.58 505.00 L 245.43 505.00 C 219.39 504.44 193.34 503.26 167.47 500.25 C 147.25 497.91 127.06 494.76 107.41 489.38 C 97.20 486.40 86.82 483.15 77.91 477.18 C 73.90 474.33 69.45 470.25 70.03 464.84 C 70.90 459.41 75.71 455.84 80.06 453.11 C 92.02 446.04 105.67 442.63 119.05 439.34 C 149.56 432.55 180.78 429.55 211.94 427.80 C 210.83 437.77 209.38 447.71 207.19 457.51 C 205.88 463.68 211.87 469.84 218.07 468.79 C 222.28 468.33 225.86 464.85 226.42 460.65 C 230.92 440.07 232.89 419.02 233.38 397.99 C 234.11 360.46 230.31 322.89 222.82 286.12 C 217.04 258.41 209.14 231.06 197.97 205.02 C 186.43 178.48 171.54 152.54 149.47 133.35 C 141.37 159.67 139.63 187.96 144.38 215.08 C 149.43 245.07 164.13 273.92 187.68 293.55 C 170.15 288.84 152.93 282.37 137.59 272.54 C 118.39 260.50 102.20 242.76 94.62 221.17 C 87.65 201.84 87.98 180.20 94.66 160.84 C 79.96 176.97 68.17 196.15 62.56 217.37 C 56.47 238.99 57.23 262.06 62.27 283.81 C 56.26 276.24 50.87 268.17 46.31 259.65 C 35.18 239.10 29.45 215.16 32.78 191.82 C 36.47 163.77 52.63 138.19 74.94 121.11 C 42.87 129.72 15.19 153.13 1.50 183.41 C 0.95 166.11 3.50 148.53 10.45 132.60 C 20.05 110.06 39.01 91.84 61.71 82.75 C 81.76 74.50 104.33 72.79 125.46 77.51 C 127.33 59.48 136.11 42.58 148.77 29.75 C 166.86 11.25 192.44 0.38 218.30 0.00 Z" />
</g>
</svg>
