<?xml version="1.0" encoding="UTF-8"?>
<svg id="Capa_2" data-name="Capa 2" xmlns="http://www.w3.org/2000/svg" viewBox="0 0 71.69 65.57">
  <defs>
    <style>
      .cls-1 {
        fill: #fff;
        stroke-width: 0px;
      }
    </style>
  </defs>
  <g id="Capa_1-2" data-name="Capa 1">
    <g>
      <g>
        <path class="cls-1" d="m7.35,52.32h2.35v12.93h-2.35v-.99c-.46.43-.92.75-1.38.94-.46.19-.96.29-1.5.29-1.21,0-2.26-.47-3.14-1.4-.88-.93-1.33-2.1-1.33-3.49s.43-2.62,1.28-3.54c.86-.92,1.89-1.38,3.12-1.38.56,0,1.09.11,1.58.32.49.21.95.53,1.37.95v-4.63Zm-2.47,5.52c-.73,0-1.33.26-1.81.77-.48.51-.72,1.17-.72,1.97s.24,1.47.73,1.99c.49.52,1.09.78,1.81.78s1.35-.26,1.84-.77c.49-.51.73-1.18.73-2.01s-.24-1.47-.73-1.97c-.49-.5-1.1-.75-1.85-.75Z"/>
        <path class="cls-1" d="m15.45,55.68c.88,0,1.72.22,2.5.66.78.44,1.39,1.04,1.82,1.79s.66,1.57.66,2.44-.22,1.7-.66,2.47c-.44.77-1.04,1.36-1.8,1.8s-1.6.65-2.51.65c-1.34,0-2.49-.48-3.44-1.43-.95-.95-1.43-2.11-1.43-3.47,0-1.46.54-2.67,1.61-3.64.94-.85,2.03-1.27,3.25-1.27Zm.04,2.2c-.73,0-1.34.25-1.83.76-.49.51-.73,1.15-.73,1.94s.24,1.47.72,1.97,1.09.75,1.83.75,1.35-.25,1.84-.76c.49-.51.73-1.16.73-1.96s-.24-1.45-.72-1.95c-.48-.5-1.1-.75-1.84-.75Z"/>
        <path class="cls-1" d="m21.3,55.92h2.38v4.49c0,.87.06,1.48.18,1.82.12.34.32.6.58.79.27.19.6.28.99.28s.72-.09,1-.28.48-.46.61-.82c.1-.27.15-.84.15-1.72v-4.57h2.35v3.95c0,1.63-.13,2.74-.39,3.34-.32.73-.78,1.29-1.4,1.69-.62.39-1.4.59-2.34.59-1.03,0-1.86-.23-2.5-.69-.63-.46-1.08-1.09-1.34-1.91-.18-.57-.28-1.59-.28-3.09v-3.88Z"/>
        <path class="cls-1" d="m33.19,52.32v4.63c.43-.42.88-.74,1.38-.95.49-.21,1.02-.32,1.59-.32,1.22,0,2.26.46,3.12,1.38.86.92,1.28,2.1,1.28,3.54s-.44,2.55-1.33,3.49c-.89.93-1.93,1.4-3.15,1.4-.54,0-1.04-.1-1.51-.29s-.93-.5-1.39-.94v.99h-2.34v-12.93h2.34Zm2.47,5.52c-.74,0-1.36.25-1.84.75-.49.5-.73,1.16-.73,1.97s.24,1.5.73,2.01c.49.51,1.1.77,1.84.77s1.32-.26,1.81-.78c.49-.52.74-1.18.74-1.99s-.24-1.46-.72-1.97-1.09-.77-1.83-.77Z"/>
        <path class="cls-1" d="m41.21,52.32h2.35v12.93h-2.35v-12.93Z"/>
        <path class="cls-1" d="m54.06,61.27h-7.56c.11.66.4,1.19.87,1.58.47.39,1.08.59,1.81.59.88,0,1.63-.31,2.27-.92l1.98.93c-.49.7-1.09,1.21-1.78,1.55-.69.33-1.51.5-2.46.5-1.47,0-2.67-.46-3.6-1.39-.93-.92-1.39-2.08-1.39-3.47s.46-2.61,1.38-3.55c.92-.94,2.08-1.41,3.47-1.41,1.48,0,2.68.47,3.6,1.41.93.94,1.39,2.18,1.39,3.73v.45Zm-2.35-1.84c-.16-.52-.46-.94-.92-1.27s-.99-.49-1.59-.49c-.66,0-1.23.18-1.73.55-.31.23-.6.63-.86,1.21h5.1Z"/>
        <path class="cls-1" d="m70.79,54.7l-1.7,1.67c-1.08-1.13-2.33-1.7-3.76-1.7-1.25,0-2.29.41-3.14,1.23s-1.26,1.82-1.26,3,.44,2.25,1.31,3.1c.87.85,1.95,1.27,3.24,1.27.83,0,1.54-.17,2.11-.52s1.03-.89,1.38-1.64h-3.67v-2.26h6.38l.02.53c0,1.1-.29,2.15-.86,3.14s-1.32,1.74-2.23,2.26-1.99.78-3.22.78c-1.32,0-2.49-.28-3.52-.85s-1.85-1.38-2.45-2.43-.9-2.19-.9-3.4c0-1.67.55-3.12,1.66-4.36,1.32-1.47,3.03-2.2,5.14-2.2,1.1,0,2.14.2,3.1.61.81.34,1.6.93,2.38,1.77Z"/>
      </g>
      <path class="cls-1" d="m35.79,0C22.59,0,11.89,10.65,11.89,23.78s10.7,23.78,23.9,23.78,23.9-10.65,23.9-23.78S49,0,35.79,0Zm10.51,17.52c1.05,0,1.9.85,1.9,1.89s-.85,1.89-1.9,1.89-1.9-.85-1.9-1.89.85-1.89,1.9-1.89Zm3.99,7.8c-.76,7.82-6.97,13.71-14.46,13.71-8.01,0-14.53-6.84-14.53-15.25s6.52-15.25,14.53-15.25c2.22,0,4.35.51,6.34,1.52l.19.09-1.52,2.37-.15-.07c-1.52-.72-3.16-1.09-4.85-1.09-6.52,0-11.83,5.58-11.83,12.43s5.31,12.42,11.83,12.42c5.9,0,10.9-4.58,11.71-10.69h-2.67c-.82,4.13-4.46,7.11-8.72,7.11-4.9,0-8.89-3.97-8.89-8.84s3.99-8.84,8.89-8.84c1.2,0,2.37.23,3.46.7l.21.09-1.56,2.44-.14-.05c-.63-.22-1.29-.33-1.97-.33-3.33,0-6.03,2.69-6.03,6s2.71,6,6.03,6c2.67,0,5.01-1.74,5.77-4.27h-7.4v-.24l.03-.07,1.48-2.31h14.25v2.44Z"/>
    </g>
  </g>
</svg>