<?xml version="1.0" encoding="UTF-8"?>
<svg id="Capa_2" data-name="Capa 2" xmlns="http://www.w3.org/2000/svg" viewBox="0 0 1476.56 378.92">
  <defs>
    <style>
      .cls-1 {
        fill: #fff;
        stroke-width: 0px;
      }
    </style>
  </defs>
  <g id="Capa_1-2" data-name="Capa 1">
    <g>
      <g>
        <path class="cls-1" d="M266.35,289.5h44.88c6.77,0,12.65.71,17.61,2.12,4.97,1.41,9.09,3.45,12.36,6.12,3.27,2.67,5.71,5.93,7.31,9.77,1.6,3.84,2.4,8.18,2.4,13.04,0,3.27-.39,6.39-1.19,9.34-.79,2.96-2,5.67-3.64,8.16-1.64,2.48-3.7,4.69-6.18,6.63-2.48,1.94-5.4,3.55-8.75,4.83l19.19,28.23h-21.9l-16.6-25.06h-.51l-27.1-.06v25.12h-17.89v-88.23ZM311.68,337.15c3.39,0,6.35-.4,8.89-1.19,2.54-.79,4.67-1.9,6.38-3.33,1.71-1.43,2.99-3.17,3.84-5.22.85-2.05,1.27-4.34,1.27-6.86,0-4.93-1.69-8.74-5.08-11.43-3.39-2.69-8.49-4.04-15.3-4.04h-27.44v32.06h27.44Z"/>
        <path class="cls-1" d="M377.87,289.5h75.14v15.69h-57.24v17.61h50.69v14.73h-50.69v24.56h58.43v15.64h-76.32v-88.23Z"/>
        <path class="cls-1" d="M479.73,289.5h17.9l54.98,28.79v-28.79h17.89v88.23h-17.89v-40.48l-54.98-28.62v69.1h-17.9v-88.23Z"/>
        <path class="cls-1" d="M627.82,305.19h-32.57v-15.69h83.04v15.69h-32.57v72.54h-17.89v-72.54Z"/>
        <path class="cls-1" d="M777.41,289.5h18.97l42.68,88.23h-18.8l-7.06-14.85h-51.54l-6.83,14.85h-18.85l41.44-88.23ZM806.14,348.16l-19.08-40.08-18.57,40.08h37.66Z"/>
        <path class="cls-1" d="M897.36,333.08c0-6.28,1.19-12.15,3.56-17.58,2.37-5.44,5.81-10.16,10.3-14.17,4.5-4.01,9.99-7.16,16.48-9.46,6.49-2.29,13.84-3.44,22.04-3.44,7.19,0,13.78.73,19.79,2.17,6,1.45,11.58,3.66,16.74,6.63l-8.24,13.55c-1.54-1.02-3.32-1.92-5.33-2.71-2.01-.79-4.16-1.46-6.44-2-2.28-.54-4.63-.97-7.06-1.27-2.43-.3-4.83-.45-7.2-.45-5.72,0-10.82.71-15.3,2.12-4.48,1.41-8.25,3.39-11.32,5.93-3.07,2.54-5.4,5.57-7,9.09-1.6,3.52-2.4,7.38-2.4,11.6s.83,8.37,2.48,12.02c1.66,3.65,4.06,6.8,7.2,9.46,3.14,2.65,6.98,4.72,11.52,6.21,4.54,1.49,9.66,2.23,15.38,2.23,2.6,0,5.17-.19,7.73-.56,2.56-.38,5.03-.89,7.42-1.55,2.39-.66,4.69-1.45,6.92-2.37,2.22-.92,4.29-1.93,6.21-3.02l8.24,13.55c-4.82,3.09-10.39,5.5-16.71,7.25-6.32,1.75-13.04,2.63-20.15,2.63-9.07,0-17.03-1.18-23.88-3.53-6.85-2.35-12.57-5.59-17.16-9.71-4.59-4.12-8.05-8.98-10.36-14.57-2.31-5.59-3.47-11.6-3.47-18.04Z"/>
        <path class="cls-1" d="M1044.66,289.5h18.97l42.68,88.23h-18.8l-7.06-14.85h-51.54l-6.83,14.85h-18.85l41.44-88.23ZM1073.4,348.16l-19.08-40.08-18.57,40.08h37.66Z"/>
        <path class="cls-1" d="M1125.81,289.5h44.88c6.77,0,12.65.71,17.61,2.12,4.97,1.41,9.09,3.45,12.36,6.12,3.27,2.67,5.71,5.93,7.31,9.77,1.6,3.84,2.4,8.18,2.4,13.04,0,3.27-.39,6.39-1.19,9.34-.79,2.96-2,5.67-3.64,8.16-1.64,2.48-3.7,4.69-6.18,6.63-2.48,1.94-5.4,3.55-8.75,4.83l19.19,28.23h-21.9l-16.6-25.06h-.51l-27.1-.06v25.12h-17.89v-88.23ZM1171.14,337.15c3.39,0,6.35-.4,8.89-1.19,2.54-.79,4.67-1.9,6.38-3.33,1.71-1.43,2.99-3.17,3.84-5.22.85-2.05,1.27-4.34,1.27-6.86,0-4.93-1.69-8.74-5.08-11.43-3.39-2.69-8.49-4.04-15.3-4.04h-27.44v32.06h27.44Z"/>
      </g>
      <path class="cls-1" d="M245.98,6.39l-27.19,54.67c-1.51,3.03-5.74,3.28-7.59.44L175.6,6.82c-1.9-2.91.19-6.77,3.67-6.77h62.79c3.25,0,5.37,3.42,3.92,6.33Z"/>
      <g>
        <path class="cls-1" d="M45.35,2.42l100.27,200.24c.62,1.24.62,2.69,0,3.93l-18.66,37.08c-1.62,3.22-6.21,3.21-7.82-.01L.47,6.33C-.99,3.42,1.13,0,4.38,0h37.05C43.09,0,44.6.94,45.35,2.42Z"/>
        <path class="cls-1" d="M515.27,188.07c-1.64-1.6-4.25-1.68-5.95-.15-16.03,14.45-34.83,21.42-56.14,21.42-.97,0-1.93-.04-2.89-.07-.67-.02-1.34-.04-2-.07-.68-.04-1.35-.09-2.03-.15-.75-.06-1.51-.11-2.25-.19-.45-.05-.89-.11-1.34-.16-.99-.12-1.98-.24-2.97-.39-.01,0-.02,0-.04,0-6.6-1.03-12.94-2.8-19.18-5.26-10.06-4.4-18.86-10.37-26.4-18.23-7.86-7.54-13.83-16.34-18.23-26.4-1.1-2.59-2.06-5.21-2.89-7.85-2.48-7.93-3.71-16.12-3.71-24.84,0-10.18,1.69-19.63,5.05-28.78.48-1.31,1-2.61,1.55-3.91,4.4-10.06,10.37-18.86,18.23-26.4,7.54-7.86,16.34-13.83,26.4-18.23,6.23-2.46,12.58-4.23,19.18-5.26.01,0,.02,0,.04,0,.98-.15,1.97-.27,2.96-.39.45-.05.89-.11,1.34-.16.75-.08,1.5-.13,2.25-.19.67-.05,1.35-.11,2.03-.14.66-.04,1.33-.05,2-.07.96-.03,1.92-.07,2.89-.07,21.31,0,40.11,6.96,56.14,21.42,1.7,1.53,4.31,1.45,5.95-.15l23.64-23.15c1.8-1.76,1.73-4.66-.11-6.37-10.85-10.1-23.23-18.15-36.9-24.13-2.55-1.11-5.14-2.09-7.75-3.01-.09-.04-.15-.09-.24-.13-.76-.26-1.53-.49-2.29-.74-.61-.2-1.22-.41-1.84-.59-1.52-.46-3.05-.89-4.59-1.29-.3-.08-.6-.17-.9-.25-1.84-.47-3.71-.88-5.58-1.26-.54-.11-1.09-.2-1.63-.3-1.35-.25-2.7-.49-4.07-.7-.69-.1-1.38-.2-2.08-.29-1.26-.17-2.52-.32-3.78-.45-.71-.07-1.42-.15-2.13-.21-1.34-.12-2.68-.21-4.04-.28-.62-.04-1.24-.08-1.87-.11C457.16.05,455.18,0,453.18,0,435.9,0,419.55,3.46,404.47,10.06c-15.4,6.6-28.6,15.4-40.23,27.03-11.32,11.32-20.43,24.52-27.03,39.6-6.58,15.35-10.03,31.63-10.05,48.85,0,.06,0,.12,0,.18h0c0,.07,0,.13,0,.19.02,17.22,3.48,33.5,10.05,48.85,6.6,15.09,15.72,28.29,27.03,39.6,11.63,11.63,24.83,20.43,40.23,27.03,15.09,6.6,31.43,10.06,48.72,10.06,1.99,0,3.97-.05,5.94-.14.63-.03,1.25-.07,1.87-.11,1.35-.08,2.7-.17,4.04-.28.71-.06,1.42-.13,2.13-.21,1.27-.13,2.53-.28,3.78-.45.69-.09,1.39-.18,2.08-.29,1.36-.21,2.72-.45,4.07-.7.54-.1,1.09-.19,1.63-.3,1.87-.38,3.73-.79,5.58-1.26.31-.08.61-.17.92-.25,1.54-.4,3.06-.83,4.57-1.29.62-.19,1.23-.4,1.84-.59.76-.25,1.53-.48,2.28-.74.09-.03.16-.09.24-.12,2.62-.92,5.21-1.9,7.76-3.01,13.67-5.98,26.04-14.02,36.9-24.13,1.84-1.72,1.91-4.61.11-6.37l-23.64-23.15Z"/>
        <path class="cls-1" d="M729.2,0h-165.46c-2.42,0-4.38,1.96-4.38,4.38v33.37c0,2.42,1.96,4.38,4.38,4.38h54.92c2.42,0,4.38,1.96,4.38,4.38v200.58c0,2.42,1.96,4.38,4.38,4.38h33.39c2.42,0,4.38-1.96,4.38-4.38V46.5c0-2.42,1.96-4.38,4.38-4.38h59.64c2.42,0,4.38-1.96,4.38-4.38V4.38C733.58,1.96,731.62,0,729.2,0Z"/>
        <path class="cls-1" d="M967.38,37.09c24.83,24.52,37.4,54.06,37.4,88.64s-12.57,64.43-37.4,88.64c-24.52,24.52-53.75,37.09-88.64,37.09s-64.12-12.57-88.64-37.09c-24.52-24.52-37.09-53.75-37.09-88.64s12.57-64.12,37.09-88.64C814.31,12.57,843.86,0,878.75,0s64.12,12.57,88.64,37.09ZM819.34,66.64c-16.34,16.34-24.2,36.15-24.2,59.09s7.86,43.06,24.2,59.41c16.34,16.34,36.46,24.2,59.41,24.2s42.75-7.86,59.09-24.2c16.66-16.66,24.52-36.46,24.52-59.41s-8.17-42.75-24.52-59.09c-16.35-16.34-36.15-24.52-59.09-24.52s-42.75,7.86-59.41,24.52Z"/>
        <path class="cls-1" d="M1164.97,165.46c-1.27-2.22-.36-5.02,1.94-6.12,12.85-6.11,23.66-15.53,32.43-28.27,10.06-14.14,14.77-29.86,14.77-47.46,0-22.95-8.17-42.43-24.52-59.09C1173.25,8.17,1153.45,0,1130.5,0h-102.73c-2.57,0-4.39,2.12-4.37,4.41,0,0,0,0-.01,0v242.67c0,2.42,1.96,4.38,4.38,4.38h33.36c2.42,0,4.38-1.96,4.38-4.38V46.5c0-2.42,1.96-4.38,4.38-4.38h60.62c11.32,0,21.06,4.09,29.23,12.26,8.49,8.17,12.57,17.91,12.57,29.23s-4.09,21.69-12.57,29.86c-8.17,8.17-17.91,12.26-29.23,12.26l-29.74-.25c-3.39-.03-5.52,3.64-3.83,6.57l67.82,117.22c.78,1.35,2.23,2.19,3.79,2.19h38.02c3.36,0,5.47-3.63,3.8-6.55l-45.4-79.45Z"/>
        <path class="cls-1" d="M1356.35,159.99v-.31l-70.04,90.09c-.83,1.07-2.1,1.69-3.46,1.69h-42.61c-3.65,0-5.7-4.21-3.44-7.08l91.02-115.94c1.25-1.59,1.25-3.82,0-5.41l-91.02-115.95C1234.56,4.21,1236.6,0,1240.25,0h42.61C1284.21,0,1285.49.62,1286.32,1.69l66.59,85.66c1.75,2.25,5.15,2.25,6.91,0L1426.7,1.68C1427.53.62,1428.81,0,1430.15,0h42.02C1475.82,0,1477.87,4.19,1475.62,7.07l-92.55,118.66-26.72,34.26ZM1356.35,159.99l-71.35,91.47,71.35-91.78v.31Z"/>
        <path class="cls-1" d="M303.27.03V0h-32.23c-2.35-.16-4.69,1.7-4.69,4.59v242.14c0,2.67,2,4.46,4.15,4.59v.04h32.76v-.06c2.41.28,4.89-1.6,4.89-4.57V4.6c0-2.97-2.47-4.86-4.89-4.57Z"/>
      </g>
    </g>
  </g>
</svg>