<?xml version="1.0" encoding="UTF-8"?>
<svg id="Capa_2" data-name="Capa 2" xmlns="http://www.w3.org/2000/svg" viewBox="0 0 35 11.91">
  <defs>
    <style>
      .cls-1 {
        fill: #fff;
        stroke-width: 0px;
      }
    </style>
  </defs>
  <g id="Capa_1-2" data-name="Capa 1">
    <path class="cls-1" d="M19.72,6.4s-.03-.09-.05-.12c-.02-.04-.05-.07-.08-.1-.03-.03-.07-.05-.11-.06-.05-.02-.1-.02-.15-.02-.14,0-.27.07-.35.18-.04.06-.06.12-.08.19-.03.14-.03.29,0,.44.01.07.04.13.08.19.08.12.21.19.35.18.05,0,.1-.01.15-.03.05-.02.08-.05.12-.09.03-.04.06-.08.08-.13.02-.05.03-.1.04-.16h.26c0,.09-.02.17-.06.26-.03.07-.08.14-.13.2-.06.06-.13.1-.2.13-.08.03-.17.05-.25.05-.1,0-.21-.02-.3-.06-.09-.04-.17-.1-.23-.18-.06-.08-.11-.16-.14-.26-.07-.2-.07-.43,0-.63.03-.09.08-.18.14-.26.13-.16.32-.25.53-.24.08,0,.16.01.24.04.07.02.14.06.2.1.06.05.1.1.14.17.04.07.06.15.07.22h-.26s0,0,0,0Z"/>
    <path class="cls-1" d="M20.22,5.9h.72c.13-.01.27.03.37.11.08.08.13.19.12.31,0,.06,0,.12-.03.18-.02.04-.05.08-.08.12-.02.03-.05.05-.08.06-.03.01-.05.02-.06.03h0s.05.02.07.03c.03.01.05.03.07.06.02.03.04.06.06.1.02.05.02.1.02.16,0,.08,0,.17.02.25,0,.06.03.11.06.16h-.28s-.03-.07-.03-.11c0-.04,0-.08,0-.12,0-.06,0-.12-.01-.18,0-.05-.02-.09-.05-.13-.02-.03-.05-.06-.09-.08-.05-.02-.1-.03-.15-.02h-.39v.64h-.26v-1.56h0ZM20.49,6.61h.43c.07,0,.14-.02.19-.06.05-.05.07-.12.06-.19,0-.04,0-.08-.02-.12-.01-.03-.03-.05-.06-.07-.02-.02-.05-.03-.08-.03-.03,0-.06,0-.1,0h-.43v.48h0Z"/>
    <path class="cls-1" d="M21.69,5.9h.26v.91c0,.05,0,.1,0,.16,0,.05.02.1.04.15.02.04.06.08.1.1.13.05.27.05.4,0,.05-.03.08-.06.11-.11.02-.05.04-.09.04-.15,0-.05,0-.11,0-.16v-.91h.26v1c0,.09-.01.18-.04.26-.03.07-.07.14-.13.19-.06.05-.12.09-.19.11-.17.05-.34.05-.51,0-.07-.02-.14-.06-.19-.11-.06-.05-.1-.12-.13-.19-.03-.08-.05-.17-.04-.26v-1h0Z"/>
    <path class="cls-1" d="M23.23,5.9h.26v1.56h-.26v-1.56Z"/>
    <path class="cls-1" d="M23.99,6.94c0,.05,0,.11.03.16.02.04.05.08.08.1.03.03.08.05.12.06.05.01.1.02.15.02.05,0,.1,0,.15-.02.04-.01.07-.03.1-.05.02-.02.04-.05.06-.08.01-.03.02-.06.02-.09,0-.05-.01-.09-.04-.13-.02-.03-.05-.05-.08-.06-.06-.02-.12-.04-.19-.06-.07-.02-.16-.04-.26-.07-.06-.01-.11-.04-.16-.07-.04-.03-.07-.06-.1-.09-.02-.03-.04-.07-.05-.11s-.02-.08-.02-.12c0-.07.01-.14.05-.2.03-.06.07-.11.12-.14.05-.04.11-.07.18-.08.06-.02.13-.03.2-.03.08,0,.15.01.22.03.07.02.13.05.18.09.05.04.1.09.13.16.03.07.05.14.04.22h-.26c0-.08-.03-.16-.1-.21-.07-.04-.15-.07-.23-.06-.03,0-.06,0-.09.01s-.06.02-.09.03c-.03.01-.05.04-.07.06-.02.03-.03.06-.03.1,0,.05.02.1.05.13.04.03.08.06.13.07l.06.02.13.04.14.04.1.03s.09.04.13.07c.04.03.07.06.09.09.02.03.04.07.06.11.05.18-.02.38-.17.5-.06.04-.12.07-.19.09-.07.02-.15.03-.22.03-.08,0-.16-.01-.24-.03-.07-.02-.14-.05-.2-.1-.06-.05-.1-.11-.14-.17-.03-.08-.05-.16-.05-.25h.26Z"/>
    <path class="cls-1" d="M25.18,5.9h1.09v.23h-.82v.41h.76v.22h-.76v.46h.84v.23h-1.1v-1.55s0,0,0,0Z"/>
    <path class="cls-1" d="M27.1,5.9h.26v1.32h.77v.23h-1.03v-1.55h0Z"/>
    <path class="cls-1" d="M28.31,5.9h.27v1.56h-.26v-1.56h0Z"/>
    <path class="cls-1" d="M28.88,5.9h.28l.69,1.15h0v-1.15h.25v1.56h-.28l-.68-1.15h0v1.14h-.25v-1.55h0Z"/>
    <path class="cls-1" d="M30.41,5.9h1.09v.23h-.82v.41h.76v.22h-.76v.46h.83v.23h-1.1v-1.55h0Z"/>
    <path class="cls-1" d="M31.91,6.94c0,.05,0,.11.03.16.02.04.05.08.08.1.04.03.08.05.12.06.05.01.1.02.15.02.05,0,.1,0,.15-.02.04-.01.07-.03.1-.05.02-.02.04-.05.06-.08.01-.03.02-.06.02-.09,0-.05,0-.09-.04-.13-.02-.03-.05-.05-.09-.06-.06-.02-.12-.04-.19-.06-.07-.02-.16-.04-.26-.07-.06-.01-.11-.04-.16-.07-.04-.03-.07-.06-.1-.09-.02-.03-.04-.07-.05-.11-.01-.04-.02-.08-.02-.12,0-.07.01-.14.05-.2.03-.06.07-.11.13-.14.05-.04.11-.07.18-.08.06-.02.13-.03.2-.03.08,0,.15.01.22.03.07.02.13.05.18.09.05.04.1.09.12.16.03.07.05.14.05.22h-.26c0-.08-.03-.16-.1-.21-.07-.04-.15-.07-.23-.06-.03,0-.06,0-.1.01s-.06.02-.09.03c-.03.01-.05.04-.07.06-.02.03-.03.06-.03.1,0,.05.02.09.05.13.04.03.08.06.13.07l.07.02.13.03.14.04.1.03s.09.04.13.07c.03.03.07.06.09.09.02.03.04.07.06.11.05.18-.01.38-.17.5-.06.04-.12.07-.19.09-.07.02-.15.03-.22.03-.08,0-.16-.01-.24-.03-.07-.02-.14-.05-.2-.1-.06-.05-.1-.11-.14-.17-.03-.08-.05-.16-.05-.25h.26,0Z"/>
    <path class="cls-1" d="M18.7,8.14h.26v1.56h-.26v-1.56Z"/>
    <path class="cls-1" d="M19.27,8.14h.28l.69,1.15h0v-1.15h.25v1.56h-.28l-.68-1.14h0v1.15h-.25v-1.56h0Z"/>
    <path class="cls-1" d="M20.67,8.14h1.22v.23h-.48v1.32h-.26v-1.32h-.48v-.23h0Z"/>
    <path class="cls-1" d="M22.06,8.14h1.09v.23h-.82v.41h.76v.22h-.76v.45h.83v.23h-1.1v-1.55h0Z"/>
    <path class="cls-1" d="M23.39,8.14h.72c.13-.01.27.03.37.11.09.08.13.19.12.31,0,.06,0,.12-.03.18-.02.04-.05.08-.08.12-.02.03-.05.05-.08.06-.03.01-.05.02-.06.03h0s.05.01.07.02c.03.01.05.03.07.06.02.03.04.06.06.1.02.05.02.1.02.15,0,.08,0,.17.02.25,0,.06.03.11.06.16h-.28s-.03-.07-.03-.11c0-.04,0-.08,0-.12,0-.06,0-.12-.01-.19,0-.05-.02-.09-.05-.13-.02-.03-.05-.06-.09-.08-.05-.02-.1-.02-.15-.02h-.39v.64h-.26v-1.55h0ZM23.65,8.84h.43c.07,0,.14-.02.19-.06.05-.05.07-.12.07-.19,0-.04,0-.08-.02-.12-.01-.03-.03-.05-.06-.07-.02-.02-.05-.03-.08-.03-.03,0-.06,0-.1,0h-.43v.49h0Z"/>
    <path class="cls-1" d="M24.86,8.14h.28l.69,1.15h0v-1.15h.25v1.56h-.28l-.69-1.14h0v1.15h-.25v-1.56h0Z"/>
    <path class="cls-1" d="M26.8,8.14h.28l.58,1.56h-.28l-.14-.41h-.6l-.14.41h-.27l.58-1.56ZM26.7,9.07h.46l-.22-.67h0l-.23.67Z"/>
    <path class="cls-1" d="M27.46,8.14h1.22v.23h-.48v1.32h-.26v-1.32h-.48v-.23h0Z"/>
    <path class="cls-1" d="M28.85,8.14h.26v1.56h-.26v-1.56Z"/>
    <path class="cls-1" d="M30.08,8.1c.2,0,.4.09.53.24.06.08.11.16.14.26.07.2.07.43,0,.63-.03.09-.08.18-.14.26-.06.07-.14.14-.23.18-.19.09-.41.09-.6,0-.09-.04-.16-.1-.23-.18-.06-.08-.11-.16-.14-.26-.07-.2-.07-.43,0-.63.03-.1.08-.18.14-.26.13-.16.33-.25.53-.24ZM30.08,8.32c-.14,0-.27.07-.35.19-.04.06-.06.12-.08.19-.03.14-.03.29,0,.44.02.07.04.13.08.19.13.19.39.25.58.12.05-.03.09-.07.12-.12.04-.06.06-.12.08-.19.03-.14.03-.29,0-.44-.01-.07-.04-.13-.08-.19-.07-.12-.21-.19-.35-.19h0Z"/>
    <path class="cls-1" d="M31.03,8.14h.28l.69,1.15h0v-1.15h.25v1.56h-.27l-.69-1.14h0v1.15h-.25v-1.56h0Z"/>
    <path class="cls-1" d="M32.97,8.14h.28l.58,1.56h-.28l-.14-.41h-.6l-.14.41h-.27l.58-1.56ZM32.88,9.07h.46l-.22-.67h0l-.23.67Z"/>
    <path class="cls-1" d="M33.97,8.14h.26v1.32h.77v.23h-1.03v-1.55h0Z"/>
    <path class="cls-1" d="M19.1,10.32h.28l.58,1.56h-.28l-.14-.41h-.6l-.14.41h-.27l.58-1.56ZM19.01,11.25h.46l-.22-.67h0l-.23.67Z"/>
    <path class="cls-1" d="M20.28,11.36c0,.05,0,.11.03.16.02.04.05.07.08.1.04.03.08.05.12.06.05.01.1.02.15.02.05,0,.1,0,.15-.02.04-.01.07-.03.1-.05.02-.02.04-.05.06-.08.01-.03.02-.06.02-.09,0-.05-.01-.1-.04-.13-.02-.02-.05-.05-.08-.06-.06-.02-.12-.04-.19-.06-.07-.02-.16-.04-.26-.07-.06-.01-.11-.04-.16-.07-.04-.02-.08-.06-.1-.09-.02-.03-.04-.07-.05-.11-.01-.04-.02-.08-.02-.12,0-.07.01-.14.05-.2.03-.06.07-.1.13-.14.05-.04.11-.07.18-.08.07-.02.13-.03.2-.03.08,0,.15.01.22.03.07.02.13.05.18.1.05.04.09.1.13.15.03.07.05.14.05.22h-.26c0-.08-.03-.16-.1-.21-.07-.04-.15-.06-.23-.06-.03,0-.06,0-.09.01-.03,0-.06.02-.09.03-.03.02-.05.04-.07.06-.02.03-.03.06-.03.1,0,.05.02.1.05.13.04.03.08.06.13.07l.07.02.13.03.14.04.1.03s.09.04.13.06c.03.03.07.06.09.1.02.03.04.07.06.11.05.19-.01.38-.17.5-.06.04-.12.07-.19.09-.07.02-.15.03-.22.03-.08,0-.16-.01-.24-.03-.07-.02-.14-.05-.2-.1-.06-.05-.1-.1-.14-.17-.03-.08-.05-.16-.05-.25h.26s0,0,0,0Z"/>
    <path class="cls-1" d="M21.65,11.36c0,.05,0,.11.03.16.02.04.05.07.08.1s.08.05.12.06c.05.01.1.02.15.02.05,0,.1,0,.15-.02.04-.01.07-.03.1-.05.02-.02.04-.05.06-.08.01-.03.02-.06.02-.09,0-.05-.01-.09-.04-.13-.02-.03-.05-.05-.08-.06-.06-.02-.12-.04-.19-.06-.07-.02-.16-.04-.26-.07-.06-.02-.11-.04-.16-.07-.04-.02-.08-.06-.1-.1-.02-.03-.04-.07-.05-.11-.01-.04-.02-.08-.02-.12,0-.07.01-.14.05-.2.03-.06.07-.1.12-.14.05-.04.11-.07.18-.08.06-.02.13-.03.2-.03.08,0,.15.01.22.03.07.02.13.05.18.1.05.04.1.1.13.15.03.07.05.14.05.22h-.26c0-.08-.03-.16-.1-.21-.07-.04-.15-.06-.23-.06-.03,0-.06,0-.1.01-.03,0-.06.02-.09.03s-.05.04-.07.06c-.02.03-.03.06-.03.1,0,.05.02.1.05.13.04.03.08.06.13.07l.07.02.13.03.14.04.1.03s.09.04.13.06c.04.03.07.06.09.1.02.03.04.07.06.11.05.19-.02.38-.17.5-.06.04-.12.07-.19.09-.07.02-.15.03-.22.03-.08,0-.16-.01-.24-.03-.07-.02-.14-.06-.2-.1-.06-.05-.1-.11-.14-.17-.03-.08-.05-.16-.05-.25h.26s0,0,0,0h0Z"/>
    <path class="cls-1" d="M23.48,10.28c.2,0,.4.08.53.24.06.08.11.16.14.26.07.2.07.43,0,.63-.03.1-.08.18-.14.26-.06.07-.14.13-.23.18-.19.09-.41.09-.6,0-.09-.04-.16-.1-.23-.18-.06-.08-.11-.16-.14-.26-.07-.2-.07-.43,0-.63.03-.09.08-.18.14-.26.13-.16.33-.25.53-.24ZM23.48,10.5c-.14,0-.27.06-.35.18-.04.06-.06.12-.08.19-.03.14-.03.29,0,.44.02.07.04.13.08.19.13.19.39.25.58.12.05-.03.09-.07.12-.12.03-.06.06-.12.08-.19.03-.14.03-.29,0-.44-.01-.07-.04-.13-.08-.19-.08-.12-.21-.19-.35-.18h0Z"/>
    <path class="cls-1" d="M25.45,10.81s-.02-.08-.05-.12c-.02-.04-.05-.07-.08-.1-.03-.03-.07-.05-.11-.06-.05-.02-.1-.02-.15-.02-.14,0-.27.06-.35.18-.04.06-.06.12-.08.19-.03.14-.03.29,0,.44.02.07.04.13.08.19.08.12.21.19.35.18.05,0,.11-.01.16-.03.04-.02.08-.05.12-.09.03-.04.06-.08.08-.13.02-.05.03-.1.04-.16h.26c0,.09-.02.18-.06.26-.03.07-.08.14-.13.2s-.12.1-.2.13c-.08.03-.16.05-.25.05-.1,0-.21-.02-.3-.06-.09-.04-.16-.1-.23-.18-.06-.08-.11-.16-.14-.26-.07-.2-.07-.43,0-.63.03-.1.08-.18.14-.26.13-.16.33-.25.53-.24.08,0,.16.01.24.04.07.02.14.06.2.1.06.05.1.1.14.17.04.07.06.15.07.23h-.26s0,0,0,0Z"/>
    <path class="cls-1" d="M25.96,10.32h.26v1.56h-.26v-1.56Z"/>
    <path class="cls-1" d="M26.98,10.32h.28l.58,1.56h-.28l-.14-.41h-.6l-.14.41h-.27l.58-1.56ZM26.89,11.25h.46l-.23-.67h0l-.23.67Z"/>
    <path class="cls-1" d="M27.67,10.32h1.22v.23h-.48v1.32h-.27v-1.32h-.48v-.23h0Z"/>
    <path class="cls-1" d="M29.09,10.32h.26v1.56h-.26v-1.56Z"/>
    <path class="cls-1" d="M30.35,10.28c.2,0,.4.08.53.24.06.08.11.16.14.26.07.2.07.43,0,.63-.03.1-.08.18-.14.26-.06.07-.14.13-.23.18-.19.09-.41.09-.6,0-.09-.04-.17-.1-.23-.18-.06-.08-.11-.16-.14-.26-.07-.2-.07-.43,0-.63.03-.09.08-.18.14-.26.13-.16.33-.25.53-.24ZM30.35,10.5c-.14,0-.27.06-.35.18-.04.06-.06.12-.08.19-.03.14-.03.29,0,.44.01.07.04.13.08.19.13.19.39.25.58.12.05-.03.09-.07.12-.12.04-.06.06-.12.08-.19.03-.14.03-.29,0-.44-.02-.07-.04-.13-.08-.19-.08-.12-.21-.19-.35-.18h0Z"/>
    <path class="cls-1" d="M31.33,10.32h.28l.69,1.15h0v-1.15h.25v1.56h-.28l-.69-1.14h0v1.15h-.25v-1.56h0Z"/>
    <path class="cls-1" d="M9.6,5.87h1.5v6h-1.5v-6Z"/>
    <path class="cls-1" d="M5.43,5.87h1.5v4.74h2.34v1.26h-3.85v-6Z"/>
    <path class="cls-1" d="M4.1,7.83c-.18-.51-.66-.86-1.21-.88-.8,0-1.44.54-1.44,1.85,0,.85.34,1.85,1.49,1.85.39,0,.96-.29,1.19-.82l1.15.56c-.5.91-1.37,1.48-2.35,1.48-1.86,0-2.94-1.44-2.94-3.07s1.01-3.07,2.83-3.07c1.14,0,1.9.56,2.44,1.52l-1.16.58Z"/>
    <polygon class="cls-1" points="13.68 9.12 13.91 9.45 13.24 9.93 13.24 9.63 13.68 9.12"/>
    <polygon class="cls-1" points="13.44 5.87 11.6 5.87 11.6 11.87 13.1 11.87 13.11 8.04 15.76 11.89 17.85 11.89 13.44 5.87"/>
    <path class="cls-1" d="M15.31,8.2h0c1.88-1.62,3.55-3.46,4.99-5.48-.94-.58-2.94-.63-2.94-.63-4.6-.15-9.83,1.94-12.89,3.68l.05.07c1.24-.61,4.7-2.18,8.38-2.31,0,0,1.38-.06,2.23.37,0,0,1.06.44.69,1.82-.21.68-.52,1.32-.93,1.89h0s.42.58.42.58Z"/>
    <path class="cls-1" d="M4.22,5.66l-.04-.05s.11-.1.24-.22c1.07-.93,2.22-1.77,3.43-2.51,1.96-1.2,3.9-1.96,5.27-2.19.25-.04.5-.06.76-.06,0,0,1.21-.02,1.21.63,0,.13-.03.25-.11.35,0,0-.15-.26-.39-.33-.29-.08-1.34-.29-4.37.75-.45.16-.89.35-1.31.57-.5.26-1.01.54-1.51.83-.17.1-.34.22-.51.32-.64.39-1.21.81-1.64,1.13-.55.4-1.02.8-1.02.8Z"/>
    <path class="cls-1" d="M11.73.72s-.3-1.03-3.14.54c-1.08.6-1.92,1.32-2.66,1.98-.72.65-1.4,1.35-2.03,2.09l-.05-.06s1.09-1.48,2.46-2.69c1.28-1.13,1.8-1.44,2.78-1.99,1.17-.65,2.9-.94,2.65.14Z"/>
    <path class="cls-1" d="M7.86.9c-1.63-.38-4.42,4.26-4.42,4.26l-.04-.06c.34-.69.73-1.36,1.15-2,.68-1.02,1.61-1.89,2.05-2.13,1.37-.76,1.26-.07,1.26-.07Z"/>
  </g>
</svg>