<?xml version="1.0" encoding="UTF-8"?>
<svg id="Capa_2" data-name="Capa 2" xmlns="http://www.w3.org/2000/svg" viewBox="0 0 178.87 35.99">
  <defs>
    <style>
      .cls-1 {
        fill: #fff;
        stroke-width: 0px;
      }
    </style>
  </defs>
  <g id="Capa_1-2" data-name="Capa 1">
    <path class="cls-1" d="M25.53,0H6.6C2.96,0,0,2.96,0,6.6v18.92c0,3.66,2.96,6.62,6.6,6.62h18.92c3.65,0,6.62-2.96,6.6-6.62V6.6c0-3.64-2.95-6.6-6.6-6.6ZM9.82,25.9c0,.25-.2.45-.45.45h-3.12c-.25,0-.45-.2-.45-.45v-3.12c0-.25.2-.45.45-.45h3.12c.25,0,.45.2.45.45v3.12ZM26.35,23.21c0,.31-.11.49-.3.69l-3.09,3.08c-.23.23-.56.07-.56-.27v-13.9l-8.62,8.62c-.14.16-.3.23-.56.23h-2.27c-.27,0-.45-.18-.45-.45v-2.27c0-.25.07-.41.23-.56l8.62-8.62H5.43c-.34,0-.49-.34-.27-.56l3.06-3.09c.2-.2.38-.31.69-.31h15.37c1.14,0,2.06.92,2.06,2.06v15.37Z"/>
    <path class="cls-1" d="M73,19.25l6.29-8.69c.18-.27.04-.54-.27-.54h-3.43c-.18,0-.42.07-.54.27l-4.15,6.05-4.25-6.05c-.11-.18-.34-.27-.54-.27h-3.66c-.18,0-.31.16-.31.31,0,.07,0,.16.07.23l6.31,8.72-6.96,9.57c-.18.27-.04.54.23.54h3.46c.18,0,.42-.07.54-.27l4.81-6.93,4.88,6.93c.11.2.34.27.54.27h3.68c.18,0,.31-.16.31-.31,0-.07-.04-.16-.07-.23l-6.96-9.6Z"/>
    <path class="cls-1" d="M58.95,2.75c.27,0,.45.18.45.45v2.58c0,.27-.18.45-.45.45h-12.29v7.68h11.04c.27,0,.45.18.45.45v2.57c0,.27-.18.45-.45.45h-11.04v8.41h12.29c.27,0,.45.18.45.45v2.67c0,.27-.18.45-.45.45h-14.38c-1.1,0-1.93-.83-1.93-1.93V4.69c0-1.1.83-1.93,1.93-1.93h14.38"/>
    <path class="cls-1" d="M92.98,9.41c-3.73,0-5.7,1.64-6.84,3.16v-2.1c0-.27-.18-.45-.45-.45h-3.01c-.27,0-.45.2-.45.45v25.06c0,.27.18.45.45.45h3.05c.27,0,.45-.18.45-.45v-8.64c1.1,1.52,3.08,3.05,6.8,3.05,6.05,0,9.58-4.56,9.58-10.27s-3.53-10.26-9.58-10.26ZM92.31,26.67c-3.73,0-6.28-2.51-6.28-6.96s2.55-7.04,6.28-7.04,6.24,2.58,6.24,7.04-2.51,6.96-6.24,6.96Z"/>
    <path class="cls-1" d="M114.56,9.41c-5.29,0-9.51,3.81-9.51,10.12s3.73,10.43,10.01,10.43c3.61,0,6.62-1.59,8.48-3.81.11-.11.15-.23.15-.34s-.04-.23-.15-.34l-1.75-1.72c-.11-.11-.23-.16-.34-.16s-.23.07-.34.18c-1.44,1.57-3.32,2.89-6.01,2.89-3.94,0-5.83-2.43-6.13-5.93h14.61c.27,0,.45-.2.45-.45v-.76c0-5.79-3.5-10.12-9.47-10.12ZM109.11,17.78c.45-3.18,2.12-5.25,5.42-5.25s5.18,1.93,5.43,5.25h-10.85Z"/>
    <path class="cls-1" d="M178.42,10.02h-3.01c-.27,0-.45.18-.45.45v2.13c-1.14-1.52-3.12-3.16-6.93-3.16-5.97,0-9.51,4.56-9.51,10.27s3.54,10.27,9.51,10.27c3.81,0,5.79-1.64,6.93-3.16v2.09c0,.27.18.45.45.45h3.01c.27,0,.45-.18.45-.45V10.47c.01-.27-.18-.45-.45-.45ZM168.79,26.71c-3.73,0-6.24-2.58-6.24-7.04s2.51-6.96,6.24-6.96,6.28,2.51,6.28,6.96-2.55,7.04-6.28,7.04Z"/>
    <path class="cls-1" d="M146.4,2.75h-3.05c-.27,0-.45.18-.45.45v9.4c-1.14-1.52-3.08-3.16-6.89-3.16-5.97,0-9.51,4.56-9.51,10.27s3.54,10.27,9.51,10.27c3.81,0,5.79-1.64,6.93-3.16v2.09c0,.27.18.45.45.45h3.01c.27,0,.45-.18.45-.45V3.2c0-.27-.18-.45-.45-.45ZM136.78,26.71c-3.73,0-6.24-2.58-6.24-7.04s2.51-6.96,6.24-6.96,6.28,2.51,6.28,6.96-2.55,7.04-6.28,7.04Z"/>
    <path class="cls-1" d="M154.68,2.75c.27,0,.45.18.45.45v3.12c0,.27-.18.45-.45.45h-3.12c-.27,0-.45-.18-.45-.45v-3.12c0-.27.18-.45.45-.45h3.12Z"/>
    <path class="cls-1" d="M154.65,10.02c.27,0,.45.18.45.45v18.44c0,.27-.18.45-.45.45h-3.05c-.27,0-.45-.18-.45-.45V10.47c0-.27.18-.45.45-.45h3.05Z"/>
  </g>
</svg>