<svg width="229" height="26" viewBox="0 0 229 26" fill="none" xmlns="http://www.w3.org/2000/svg">
<path d="M10.1236 18.5405C8.76784 19.8474 6.9361 20.4638 6.69602 20.5274C6.45595 20.5918 6.35972 20.41 6.2033 20.2412C6.04637 20.0729 5.75844 19.5802 5.62717 19.3401C5.49542 19.1018 5.72266 19.0954 5.90327 19.0655C8.32668 18.669 10.2527 16.971 10.6904 16.5331C11.2542 15.97 11.9539 15.1624 12.5216 14.0916C12.3479 15.3255 12.0186 16.7142 10.1236 18.5405ZM9.69877 15.8121C8.59167 16.4909 6.86257 17.062 5.43521 17.2804C4.62322 17.4038 4.4732 17.3391 4.38882 17.1849C4.30172 17.0213 3.92817 16.012 3.87512 15.8375C3.82257 15.6626 3.8428 15.6024 3.979 15.6024C4.67923 15.5969 5.95484 15.4351 6.64717 15.3026C8.53048 14.9377 9.79944 14.4289 10.5465 13.9776C11.2423 13.5572 12.0134 12.8422 12.2263 12.6221C12.5461 12.2902 12.6342 12.1296 12.8382 11.8306C12.4521 13.8483 10.9783 15.028 9.69877 15.8121ZM22.5388 6.68889C22.671 6.71282 22.7327 6.69506 22.7487 6.85099C22.8566 7.89443 23.1808 9.94602 22.5447 13.1619C22.392 13.9359 21.8301 16.2209 20.6012 18.5859C18.1052 23.3849 15.0457 24.9679 13.5103 25.544C13.0938 25.6994 12.7141 25.752 12.3344 25.58C9.76514 24.4183 8.41872 22.97 7.68296 22.0897C7.61708 22.0088 7.62176 21.9582 7.77893 21.8958C9.9867 21.0317 11.2021 19.5299 12.0664 18.1205C12.5347 17.3576 13.4898 14.8417 13.4898 12.873C13.4898 11.5138 13.5219 10.1858 14.0662 9.37039C14.4035 8.86508 15.6818 7.06664 19.329 6.65114C20.6584 6.49965 22.3619 6.65681 22.5388 6.68889ZM22.5955 4.29878C22.5955 4.29878 22.8028 4.26868 22.8087 4.4034C22.8151 4.54108 22.8033 4.97977 22.7919 5.15964C22.7843 5.28745 22.6676 5.3358 22.5447 5.30151C22.1127 5.18209 20.2829 5.06835 18.7951 5.52456C17.82 5.8231 16.0494 6.74095 14.9024 7.73134C14.6759 7.92724 14.3465 8.21789 14.3465 8.21789C14.3465 8.21789 14.4338 7.92428 15.064 7.23491C15.3531 6.9181 16.0645 6.26698 16.7497 5.80731C17.4343 5.34666 18.3184 4.91784 19.4011 4.61904C20.577 4.29533 22.5955 4.29878 22.5955 4.29878ZM22.8151 2.29161C22.8151 2.4167 22.8218 2.64419 22.8087 2.87291C22.7968 3.08905 22.8035 3.11965 22.6355 3.10904C22.0793 3.07425 20.8395 3.0439 19.1079 3.59559C17.7519 4.02762 16.2636 5.07846 15.3369 6.00569C14.8987 6.44413 14.2942 7.23343 14.2942 7.23343C14.2942 7.23343 14.3591 6.89886 14.5261 6.58477C14.9233 5.83717 15.5019 5.15347 16.4018 4.34739C17.3295 3.51541 18.7884 2.91831 19.5057 2.69946C20.4492 2.41152 21.6814 2.23141 22.293 2.20772C22.6784 2.19218 22.8151 2.15936 22.8151 2.29161ZM22.581 -4.57764e-05C22.8087 -4.57764e-05 22.7968 0.0826111 22.7968 0.179577C22.7968 0.277283 22.7919 0.713751 22.7919 0.79764C22.7919 0.881529 22.7744 1.15836 22.5659 1.15836C22.2365 1.15836 21.2905 1.20327 20.4973 1.3481C19.0892 1.60347 17.4299 2.05746 15.7309 3.73451C14.8155 4.63829 13.7284 6.37702 13.6226 7.85865C13.5747 8.53075 13.3615 9.78441 13.2098 10.1506C13.0657 10.4977 12.3102 11.4945 10.9302 12.2019C10.0511 12.6524 8.7935 13.1136 7.50704 13.2249C5.85812 13.3694 4.5788 13.1348 4.13148 13.0186C3.76952 12.9229 3.34243 12.6608 3.34243 12.6608C3.34243 12.6608 3.29505 12.517 3.13936 11.6416C2.89954 10.2902 2.77148 8.62747 2.77148 7.35507C2.77148 6.05898 2.77148 0.215847 2.77148 0.0599117C2.77148 -0.0121346 2.83736 -4.57764e-05 2.93359 -4.57764e-05C3.0725 -4.57764e-05 20.8528 -4.57764e-05 22.581 -4.57764e-05Z" fill="lightgray"/>
<path d="M38.6353 19.9505C39.4104 21.5262 41.1724 23.4365 44.2032 23.4365C47.3394 23.4365 49.2422 21.2575 49.2422 18.576C49.2422 12.4087 38.1421 15.0568 38.1421 7.17901C38.1421 3.45832 41.102 0.84391 45.7888 0.84391C48.0087 0.84391 49.5947 1.34672 51.0042 2.41925C50.5812 3.19061 50.3348 3.96113 50.0528 5.23516H49.6301C49.1364 3.99493 48.0795 2.08414 45.4366 2.08414C42.7934 2.08414 40.8906 3.79377 40.8906 6.24096C40.8906 12.5088 51.991 9.8944 51.991 17.3024C51.991 21.3914 48.7842 24.8439 43.3573 24.8439C40.4323 24.8439 38.7764 23.8724 37.543 22.9337C37.9656 21.8949 38.0713 21.2242 38.2123 19.9505H38.6353Z" fill="gray"/>
<path d="M59.8521 9.92872C59.8521 7.04611 59.7113 4.12971 59.5703 1.28108C61.6845 1.38104 63.7636 1.44826 65.8783 1.44826C67.9925 1.44826 70.0716 1.38104 72.1506 1.28108C72.0802 1.61601 72.0449 1.95142 72.0449 2.28634C72.0449 2.6218 72.0802 2.95673 72.1506 3.29166C69.1906 3.09063 67.4638 2.85624 62.8829 2.85624C62.8475 4.29745 62.7418 5.4706 62.7418 7.11333C62.7418 8.85624 62.7772 10.7001 62.7772 11.5379C66.9351 11.5379 69.2612 11.3706 71.3401 11.2029C71.2697 11.5379 71.2343 11.9065 71.2343 12.242C71.2343 12.5774 71.2697 12.9123 71.3401 13.2473C68.9086 13.0128 64.4684 12.9461 62.7772 12.9461C62.7418 13.7504 62.7418 14.5885 62.7418 17.8062C62.7418 20.3537 62.7772 21.9966 62.8121 22.8342C65.9487 22.8342 70.1067 22.8009 72.327 22.3988C72.2562 22.6999 72.2212 23.1353 72.2212 23.4375C72.2212 23.7395 72.2562 24.1082 72.327 24.4094C70.2478 24.3089 68.1335 24.2422 65.9836 24.2422C63.8341 24.2422 61.7199 24.3089 59.5703 24.4094C59.7113 21.4935 59.8521 18.5771 59.8521 15.6945V9.92872Z" fill="gray"/>
<path d="M86.5307 5.36993L82.6895 13.8844C83.923 13.8844 85.262 13.9516 86.4955 13.9516C87.7994 13.9516 89.1384 13.9178 90.4422 13.8844L86.5307 5.36993ZM87.6934 0.844954C91.1469 8.62145 96.433 20.8231 98.3008 24.4094C97.6665 24.3089 97.0673 24.2422 96.433 24.2422C95.7987 24.2422 95.1995 24.3089 94.5652 24.4094C93.8961 22.0966 92.2041 18.4094 90.9354 15.4257C89.4201 15.3925 87.8697 15.359 86.3192 15.359C84.8747 15.359 83.465 15.3925 82.02 15.4257C80.5402 18.8791 79.2011 22.2978 78.602 24.4094C78.1437 24.3089 77.7209 24.2422 77.298 24.2422C76.8754 24.2422 76.4525 24.3089 75.9941 24.4094C79.7647 16.566 83.4298 8.75574 87.0244 0.844954H87.6934Z" fill="gray"/>
<path d="M105.949 16.2305C105.949 18.4769 106.09 20.7559 106.161 23.0016C107.042 23.1021 108.345 23.1696 109.614 23.1696C112.644 23.1696 115.288 21.1586 115.288 17.5379C115.288 13.7163 112.222 12.8119 107.535 12.8119H105.949V16.2305ZM107.852 11.5716C111.164 11.5716 114.583 10.4653 114.583 6.74464C114.583 3.12444 111.516 2.52131 108.838 2.52131C107.64 2.52131 106.83 2.588 106.161 2.68884C106.09 4.80026 105.949 6.94562 105.949 9.0574V11.5716H107.852ZM103.06 9.92872C103.06 7.04611 102.918 4.12971 102.777 1.28108C104.011 1.38104 105.279 1.44826 106.513 1.44826C107.746 1.44826 109.015 1.28108 110.249 1.28108C114.265 1.28108 117.684 2.32015 117.684 6.10753C117.684 9.39281 115.288 11.2362 111.764 11.9738V12.0405C115.957 12.242 118.53 13.8509 118.53 17.6723C118.53 22.6327 113.702 24.4094 109.614 24.4094C108.486 24.4094 107.323 24.2422 106.196 24.2422C105.068 24.2422 103.905 24.3089 102.777 24.4094C102.918 21.4935 103.06 18.5771 103.06 15.6945V9.92872Z" fill="gray"/>
<path d="M137.56 2.08414C132.062 2.08414 127.834 5.40287 127.834 12.8443C127.834 20.286 132.062 23.6045 137.56 23.6045C143.093 23.6045 147.321 20.286 147.321 12.8443C147.321 5.40287 143.093 2.08414 137.56 2.08414ZM137.56 0.84391C145.348 0.84391 150.775 5.23516 150.775 12.8443C150.775 20.4532 145.348 24.8439 137.56 24.8439C129.807 24.8439 124.381 20.4532 124.381 12.8443C124.381 5.23516 129.807 0.84391 137.56 0.84391Z" fill="gray"/>
<path d="M175.269 1.28004C175.727 1.38 176.221 1.44721 176.715 1.44721C177.067 1.44721 177.454 1.38 177.771 1.28004C177.49 4.39743 177.208 10.2966 177.138 15.1908C177.067 21.1237 173.437 24.8439 167.094 24.8439C160.117 24.8439 157.016 21.7603 157.016 15.2575C157.016 13.1792 157.192 11.6373 157.192 9.96113C157.192 6.27424 157.051 3.22388 156.98 1.28004C157.544 1.38 158.249 1.44721 158.813 1.44721C159.306 1.44721 159.87 1.38 160.328 1.28004C160.117 3.25734 159.905 7.81612 159.905 12.7774C159.905 17.3358 159.905 23.2691 167.764 23.2691C175.481 23.2691 175.481 16.3976 175.481 12.1737C175.481 5.80484 175.481 2.58696 175.269 1.28004Z" fill="gray"/>
<path d="M187.96 11.8647C188.595 11.9984 189.405 12.0319 190.321 12.0319C193.211 12.0319 197.052 10.8927 197.052 6.90325C197.052 3.38402 193.986 2.5127 191.59 2.5127C189.969 2.5127 188.912 2.61319 188.171 2.68023C188.066 5.12693 187.96 7.54031 187.96 9.95356V11.8647ZM185.07 9.95356C185.07 7.07095 184.93 4.15507 184.789 1.27246C186.128 1.37243 187.466 1.43964 188.806 1.43964C190.145 1.43964 191.484 1.27246 192.823 1.27246C196.805 1.27246 200.153 2.57938 200.153 6.56832C200.153 10.8927 195.607 12.6355 192.929 12.9709C194.655 15.0159 200.54 22.2219 202.584 24.4007C201.88 24.3003 201.174 24.2335 200.47 24.2335C199.8 24.2335 199.096 24.3003 198.427 24.4007C197.016 22.3567 192.33 16.1885 189.3 13.2721H187.96V15.7191C187.96 18.6023 188.101 21.5187 188.242 24.4007C187.643 24.3003 187.079 24.2335 186.515 24.2335C185.951 24.2335 185.387 24.3003 184.789 24.4007C184.93 21.5187 185.07 18.6023 185.07 15.7191V9.95356Z" fill="gray"/>
<path d="M227.5 24.8439C222.144 18.8437 215.73 12.4087 209.704 6.30765C209.669 7.54788 209.598 9.55951 209.598 13.1125C209.598 15.9951 209.74 23.0676 209.915 24.4083C209.529 24.3078 209.105 24.2411 208.682 24.2411C208.259 24.2411 207.837 24.3078 207.379 24.4083C207.66 22.8332 208.118 14.252 208.118 9.82718C208.118 5.60386 208.118 2.35252 208.012 0.84391H208.577C214.321 6.77736 222.108 14.8553 226.408 18.9785C226.408 12.9785 226.408 6.44194 226.125 1.28004C226.514 1.38 226.936 1.44721 227.324 1.44721C227.711 1.44721 228.064 1.38 228.452 1.28004C228.24 3.25734 227.887 9.8944 227.887 12.5088C227.887 15.9284 227.958 23.3358 227.993 24.8439H227.5Z" fill="gray"/>
</svg>
