<?xml version="1.0" encoding="utf-8"?>
<!-- Generator: Adobe Illustrator 27.4.0, SVG Export Plug-In . SVG Version: 6.00 Build 0)  -->
<svg version="1.1" id="OC_H_White" xmlns="http://www.w3.org/2000/svg" xmlns:xlink="http://www.w3.org/1999/xlink" x="0px" y="0px"
	 viewBox="0 0 254 64" style="enable-background:new 0 0 254 64;" xml:space="preserve">
<style type="text/css">
	.st0{fill:#FFFFFF;}
</style>
<g>
	<g>
		<path class="st0" d="M39.3,0.8c-8.5,0-15.3,4.6-18.1,11.3c1.6,0.1,3.2,0.4,4.6,0.9c1.7-7.9,7.8-10.6,12.6-10.6
			c10.5,0,14.5,9.3,14.5,17.9c0,10.3-6.2,15-12.8,15c-8.6,0-12.8-6.4-14.2-12.9c-0.1,0-0.2,0-0.3,0.1c-1.7,0.5-3.5,0.8-5.2,0.8
			c1.8,7.6,8.7,13.6,19,13.6c10.6,0,19-7.7,19-18.2C58.3,9.5,52,0.8,39.3,0.8z"/>
		<path class="st0" d="M93.4,27.5c-1.2,3-4.2,7.3-10.9,7.3c-8.6,0-15.5-5.9-15.5-16.7C67,7.6,73.7,2.6,81.7,2.6
			c7.6,0,9.9,4,10.7,7.5c0.4,0.3,1.1,0.3,1.4-0.1c-0.4-3.1-0.7-6.3-0.7-7.5c-0.5,0.1-0.8-0.1-1.5-0.2C89.2,1.6,85.2,1,82.4,1
			C77,1,72.1,2.4,68.3,5.4c-4,3-6.6,7.9-6.6,13.6c0,6.6,3.2,11.3,7.4,14.1c3.8,2.5,8.3,3.4,13,3.4c3.3,0,7.1-0.8,8.2-1.2
			c0.6-0.2,1.2-0.4,1.8-0.5c0.8-1,2.1-4.4,2.5-7C94.5,27.4,93.7,27.3,93.4,27.5z"/>
		<path class="st0" d="M124.6,28.3c-1.4,2.7-2.8,4.5-3.7,5c-1.1,0.6-2.7,0.8-6.7,0.8c-4.6,0-5.7-0.6-6.3-1.2c-0.8-0.9-1-2.6-1-5.3
			v-7.2c0-1.3,0.2-1.4,1.7-1.4h3c2,0,3.3,0.1,4,0.3c1,0.3,1.4,1,1.6,1.9l0.5,2c0.3,0.3,1.1,0.3,1.4-0.1c0-1.1-0.2-3.1-0.2-4.9
			c0-1.9,0.2-3.9,0.2-5.2c-0.2-0.4-1.1-0.4-1.4-0.1l-0.4,2.1c-0.3,1.3-0.6,1.6-1.3,1.8c-0.6,0.2-2.2,0.3-4.4,0.3h-3
			c-1.6,0-1.7,0-1.7-1.4V5.5c0-1.9,0-2,1.6-2h3.8c2.3,0,4,0.1,5.1,0.3c2.7,0.7,3.2,2.5,4,4.9c0.3,0.3,1.1,0.2,1.3-0.1
			c-0.2-2.3-0.5-5.9-0.8-6.8c-0.6,0.2-3.7,0.2-7,0.2h-9.8c-1,0-2,0-3-0.1c-1,0-2-0.1-3.1-0.1c-0.3,0.2-0.4,1.1-0.1,1.3l0.8,0.1
			c3.1,0.4,3.2,1.1,3.2,6.5v18.4c0,5.4-0.3,6.1-3.2,6.4l-1.7,0.2c-0.3,0.3-0.2,1.1,0.1,1.3c3.1-0.1,4.9-0.2,7.1-0.2h4.7
			c2.3,0,4.6,0,7,0.1c2.3,0,4.6,0.1,7,0.1c0.7-1.4,2-5.3,2.3-7.1C125.7,28.2,125,28,124.6,28.3z"/>
		<path class="st0" d="M194.1,1.8c-2,0-3.8-0.1-6.2-0.2c-0.4,0.2-0.5,1-0.1,1.3l0.9,0.1c2.1,0.3,2.9,0.6,3.2,1c1,1.5,1,8.2,1,10.6
			v11c0,1.1,0,1.9-0.2,2.1h-0.1c-2.5-2.5-5.1-5.3-8.6-9.3l-5.1-5.6c-1.7-1.9-7.9-8.7-8.9-11.3c-0.7,0.1-1.6,0.2-2.4,0.2
			c-0.9,0-3.7,0-5.9-0.2c-0.4,0.2-0.4,1-0.1,1.3l0.9,0.1c1.3,0.2,2.5,0.5,3.2,1.2c1.1,1.2,1.1,2.3,1.1,3.7v14.8
			c0,2.5,0.1,8.7-0.7,10.5c-0.3,0.6-1.1,0.9-2.3,1l-1.4,0.2c-0.3,0.3-0.3,1,0.1,1.3c1.8-0.1,3.2-0.2,5.4-0.2c1.9,0,3.8,0.1,6.1,0.2
			c0.4-0.3,0.4-0.9,0.1-1.3l-1.6-0.2c-1.3-0.1-2.3-0.4-2.7-1c-0.8-1.5-0.9-8.2-0.9-10.6V11.6c0-1.5,0.1-2.7,0.3-3.3h0.1
			c1.1,1.1,4.6,5.3,6.1,6.9l12.1,13.5c4.5,5.1,6.1,6.9,6.7,7.7c0.6,0,0.9-0.3,1-0.6c-0.2-1.3-0.2-7.4-0.2-9V14.7
			c0-2.4-0.1-8.7,0.8-10.5c0.2-0.4,1.3-0.8,2.9-1.1l0.7-0.1c0.3-0.3,0.3-1-0.1-1.3C197.7,1.8,196.3,1.8,194.1,1.8z"/>
		<path class="st0" d="M215.2,3.1l1.3-0.1c0.3-0.2,0.2-1.1-0.1-1.3c-2.6,0.1-4.4,0.2-6.5,0.2c-2.2,0-4-0.1-6.6-0.2
			c-0.3,0.2-0.4,1.1-0.1,1.3l1.3,0.1c3.1,0.3,3.2,1.1,3.2,6.6v18.2c0,5.4-0.1,6.1-3.2,6.5l-1.3,0.2c-0.3,0.3-0.2,1.1,0.1,1.3
			c2.6-0.1,4.4-0.2,6.6-0.2c2.1,0,3.9,0.1,6.5,0.2c0.3-0.2,0.4-1.1,0.1-1.3l-1.3-0.2c-3.1-0.4-3.2-1.1-3.2-6.5V9.6
			C212,4.2,212.1,3.3,215.2,3.1z"/>
		<g>
			<path class="st0" d="M159.2,34.3c-2.2-0.3-2.9-1-4.4-5.4l-7.2-20.6c-0.8-2.3-1.6-4.6-2.3-6.9c-0.1-0.4-0.5-0.5-0.8-0.5
				c-0.6,0.7-1.5,1.6-2.7,1.9c0.2,0.8-0.2,1.8-0.9,3.6l-5.3,13.8c-2.2,5.7-3.7,9.1-4.6,11.4c-0.7,1.8-1.9,2.4-3.1,2.5l-1.7,0.2
				c-0.3,0.3-0.2,1.1,0.1,1.3c1.4-0.1,3.3-0.2,5-0.2c2.5,0.1,4.1,0.1,5.4,0.2c0.5-0.2,0.5-1,0.1-1.3l-1.7-0.2
				c-1.3-0.1-1.5-0.4-1.5-1c0-0.6,0.4-1.9,1.1-4.2l1.8-5.4c0.4-1.1,0.7-1.2,2-1.2h7.9c1.6,0,1.8,0.2,2.1,1.3l2.3,7
				c0.4,1.2,0.7,2.2,0.7,2.7c0,0.5-0.7,0.8-1.8,0.9l-1.5,0.2c-0.4,0.3-0.3,1.1,0.1,1.3c1.5-0.1,3.5-0.2,6-0.2c2.3,0,4.2,0.1,6.3,0.2
				c0.3-0.2,0.4-1,0-1.3L159.2,34.3z M145.7,20.4h-6.4c-1.5,0-1.5-0.1-1.1-1.2l3.3-8.9c0.6-1.5,1.1-2.8,1.3-3h0.1
				c0.3,0.6,0.8,2,1.2,3.2l2.8,8.3C147.3,20.2,147.2,20.4,145.7,20.4z"/>
			<path class="st0" d="M253.2,34.5l-1.4-0.2c-2.2-0.3-2.9-1-4.4-5.4l-7.2-20.6c-0.8-2.3-1.6-4.6-2.3-6.9c-0.1-0.4-0.5-0.5-0.8-0.5
				c-0.6,0.7-1.5,1.6-2.7,1.9c0.2,0.8-0.2,1.8-0.9,3.6l-5.3,13.8c-2.2,5.7-3.7,9.1-4.6,11.4c-0.7,1.8-1.9,2.4-3.1,2.5l-1.7,0.2
				c-0.3,0.3-0.2,1.1,0.1,1.3c1.4-0.1,3.3-0.2,5-0.2c2.5,0.1,4.1,0.1,5.4,0.2c0.5-0.2,0.5-1,0.1-1.3l-1.7-0.2
				c-1.3-0.1-1.5-0.4-1.5-1c0-0.6,0.4-1.9,1.1-4.2l1.8-5.4c0.4-1.1,0.7-1.2,2-1.2h7.9c1.6,0,1.8,0.2,2.1,1.3l2.3,7
				c0.4,1.2,0.7,2.2,0.7,2.7c0,0.5-0.7,0.8-1.8,0.9l-1.5,0.2c-0.4,0.3-0.3,1.1,0.1,1.3c1.5-0.1,3.5-0.2,6-0.2c2.3,0,4.2,0.1,6.3,0.2
				C253.5,35.6,253.6,34.8,253.2,34.5z M238.3,20.4h-6.4c-1.5,0-1.5-0.1-1.1-1.2l3.3-8.9c0.6-1.5,1.1-2.8,1.3-3h0.1
				c0.3,0.6,0.8,2,1.2,3.2l2.8,8.3C239.9,20.2,239.8,20.4,238.3,20.4z"/>
		</g>
		<path class="st0" d="M25.8,15.9c-0.1,0-0.2,0-0.4,0"/>
		<g>
			<path class="st0" d="M18.4,16.6c0.6-0.1,1.2-0.2,1.7-0.3c1.9-0.3,3.7-0.4,5.3-0.4c0.1,0,0.2,0,0.4,0c1.4,0.1,2.6,0.3,3.6,0.6l0,0
				c-0.8-0.8-1.8-1.4-2.9-1.9c-0.3-0.1-0.6-0.3-1-0.4c-1.5-0.5-3.1-0.7-4.8-0.8c-2.2,0-4.5,0.3-6.7,0.9c-4.1,1.2-7.8,1.5-10.7,1.2
				c-1-0.1-1.9-0.3-2.8-0.6L0.6,15c3.3,3.2,9.7,3.8,15.3,2.2C16.7,17,17.6,16.8,18.4,16.6z"/>
			<path class="st0" d="M25.8,17.9c-0.1,0-0.3,0.1-0.4,0.1c-0.5,0.1-1.1,0.2-1.6,0.4c-1.3,0.4-2.6,0.7-3.9,0.9
				c-0.5,0.1-1,0.2-1.5,0.2c-3.2,0.4-6,0.2-8.1-0.5L10.2,19c0.7,0.7,1.5,1.2,2.5,1.7c2.1,1,4.7,1.4,7.4,1.4c1.8-0.1,3.7-0.3,5.4-0.8
				c0,0,0.1,0,0.1,0c4.2-1.2,8-1.6,10.9-1.2c0.9,0.1,1.8,0.3,2.5,0.5l0,0C36.2,17.6,30.8,16.9,25.8,17.9z"/>
		</g>
	</g>
	<g>
		<path class="st0" d="M82.8,50.2c-0.4-0.6-1-1-1.6-1.2c-0.7-0.3-1.3-0.4-2-0.4c-0.8,0-1.6,0.1-2.2,0.4c-0.7,0.3-1.2,0.7-1.7,1.2
			c-0.5,0.5-0.9,1.1-1.1,1.8c-0.3,0.7-0.4,1.5-0.4,2.3c0,0.9,0.1,1.7,0.4,2.4c0.3,0.7,0.6,1.3,1.1,1.8c0.5,0.5,1,0.9,1.7,1.2
			c0.7,0.3,1.4,0.4,2.2,0.4c0.8,0,1.6-0.2,2.3-0.5c0.7-0.3,1.2-0.8,1.6-1.3l2.3,1.6c-0.7,0.9-1.6,1.6-2.6,2c-1,0.5-2.2,0.7-3.6,0.7
			c-1.2,0-2.4-0.2-3.4-0.6s-1.9-1-2.7-1.7c-0.7-0.7-1.3-1.6-1.7-2.6c-0.4-1-0.6-2.2-0.6-3.4c0-1.3,0.2-2.4,0.7-3.4
			c0.4-1,1-1.9,1.8-2.6c0.8-0.7,1.7-1.3,2.7-1.7c1-0.4,2.2-0.6,3.4-0.6c0.5,0,1,0,1.6,0.1c0.6,0.1,1.1,0.2,1.6,0.4
			c0.5,0.2,1,0.5,1.4,0.7c0.4,0.3,0.8,0.7,1.1,1.1L82.8,50.2z"/>
		<path class="st0" d="M93.6,46.5h5.5c0.7,0,1.5,0.1,2.2,0.2c0.7,0.2,1.3,0.4,1.9,0.8c0.5,0.4,1,0.8,1.3,1.4
			c0.3,0.6,0.5,1.3,0.5,2.1c0,1.1-0.3,2.1-1,2.8c-0.6,0.7-1.5,1.2-2.6,1.5l4.2,7h-3.4l-3.7-6.7h-2.1v6.7h-2.8V46.5z M98.7,53.4
			c0.4,0,0.8,0,1.2-0.1c0.4-0.1,0.8-0.2,1.1-0.3s0.6-0.4,0.8-0.7c0.2-0.3,0.3-0.7,0.3-1.2c0-0.4-0.1-0.8-0.3-1.1
			c-0.2-0.3-0.4-0.5-0.7-0.7s-0.6-0.3-1-0.3c-0.4-0.1-0.7-0.1-1.1-0.1h-2.5v4.4H98.7z"/>
		<path class="st0" d="M127,56.6c0,1-0.2,1.8-0.5,2.6c-0.3,0.8-0.8,1.4-1.3,2c-0.6,0.5-1.2,1-2,1.2c-0.8,0.3-1.6,0.4-2.5,0.4
			c-0.9,0-1.8-0.1-2.5-0.4c-0.8-0.3-1.4-0.7-2-1.2c-0.6-0.5-1-1.2-1.3-2c-0.3-0.8-0.5-1.6-0.5-2.6v-10h2.8v9.9
			c0,0.5,0.1,0.9,0.2,1.4c0.1,0.5,0.3,0.9,0.6,1.2c0.3,0.4,0.6,0.6,1.1,0.9c0.5,0.2,1,0.3,1.7,0.3c0.7,0,1.2-0.1,1.7-0.3
			s0.8-0.5,1.1-0.9c0.3-0.4,0.5-0.8,0.6-1.2c0.1-0.5,0.2-0.9,0.2-1.4v-9.9h2.8V56.6z"/>
		<path class="st0" d="M137.1,46.5h2.8v15.8h-2.8V46.5z"/>
		<path class="st0" d="M158.1,49.8c-0.3-0.4-0.7-0.7-1.3-1c-0.5-0.3-1.1-0.4-1.6-0.4c-0.3,0-0.7,0-1,0.1c-0.3,0.1-0.6,0.2-0.9,0.4
			c-0.3,0.2-0.5,0.4-0.7,0.7c-0.2,0.3-0.3,0.6-0.3,1c0,0.4,0.1,0.7,0.2,0.9c0.1,0.3,0.4,0.5,0.6,0.6c0.3,0.2,0.6,0.3,1,0.5
			c0.4,0.1,0.8,0.3,1.2,0.4c0.5,0.2,1,0.4,1.6,0.6c0.5,0.2,1,0.5,1.5,0.8c0.5,0.3,0.8,0.8,1.1,1.3c0.3,0.5,0.4,1.2,0.4,1.9
			c0,0.8-0.2,1.6-0.5,2.2c-0.3,0.6-0.7,1.2-1.3,1.6c-0.5,0.4-1.1,0.7-1.8,0.9c-0.7,0.2-1.4,0.3-2.2,0.3c-1,0-2-0.2-3-0.6
			c-1-0.4-1.8-0.9-2.4-1.7l2-1.9c0.4,0.5,0.9,1,1.6,1.3c0.6,0.3,1.3,0.5,1.9,0.5c0.3,0,0.7,0,1-0.1c0.3-0.1,0.7-0.2,0.9-0.4
			c0.3-0.2,0.5-0.4,0.7-0.7c0.2-0.3,0.3-0.7,0.3-1.1c0-0.4-0.1-0.8-0.3-1c-0.2-0.3-0.5-0.5-0.8-0.7c-0.3-0.2-0.7-0.4-1.2-0.5
			c-0.4-0.1-0.9-0.3-1.4-0.5c-0.5-0.1-1-0.3-1.4-0.5c-0.5-0.2-0.9-0.5-1.3-0.8c-0.4-0.3-0.7-0.8-0.9-1.3c-0.2-0.5-0.4-1.1-0.4-1.9
			c0-0.8,0.2-1.5,0.5-2.1c0.3-0.6,0.8-1.1,1.3-1.4c0.5-0.4,1.2-0.7,1.9-0.8c0.7-0.2,1.4-0.3,2.1-0.3c0.8,0,1.6,0.1,2.4,0.4
			c0.8,0.3,1.5,0.7,2.2,1.3L158.1,49.8z"/>
		<path class="st0" d="M169.6,46.5h10.5V49h-7.7v4h7.3v2.4h-7.3v4.5h8.1v2.5h-10.9V46.5z"/>
		<path class="st0" d="M198,49.8c-0.3-0.4-0.7-0.7-1.3-1c-0.5-0.3-1.1-0.4-1.6-0.4c-0.3,0-0.7,0-1,0.1c-0.3,0.1-0.6,0.2-0.9,0.4
			c-0.3,0.2-0.5,0.4-0.7,0.7c-0.2,0.3-0.3,0.6-0.3,1c0,0.4,0.1,0.7,0.2,0.9c0.1,0.3,0.4,0.5,0.6,0.6c0.3,0.2,0.6,0.3,1,0.5
			c0.4,0.1,0.8,0.3,1.2,0.4c0.5,0.2,1,0.4,1.6,0.6c0.5,0.2,1,0.5,1.5,0.8c0.5,0.3,0.8,0.8,1.1,1.3c0.3,0.5,0.4,1.2,0.4,1.9
			c0,0.8-0.2,1.6-0.5,2.2c-0.3,0.6-0.7,1.2-1.3,1.6s-1.1,0.7-1.8,0.9c-0.7,0.2-1.4,0.3-2.2,0.3c-1,0-2-0.2-3-0.6
			c-1-0.4-1.8-0.9-2.4-1.7l2-1.9c0.4,0.5,0.9,1,1.6,1.3c0.6,0.3,1.3,0.5,1.9,0.5c0.3,0,0.7,0,1-0.1c0.3-0.1,0.7-0.2,0.9-0.4
			c0.3-0.2,0.5-0.4,0.7-0.7c0.2-0.3,0.3-0.7,0.3-1.1c0-0.4-0.1-0.8-0.3-1c-0.2-0.3-0.5-0.5-0.8-0.7c-0.3-0.2-0.7-0.4-1.2-0.5
			c-0.4-0.1-0.9-0.3-1.4-0.5c-0.5-0.1-1-0.3-1.4-0.5c-0.5-0.2-0.9-0.5-1.3-0.8c-0.4-0.3-0.7-0.8-0.9-1.3c-0.2-0.5-0.4-1.1-0.4-1.9
			c0-0.8,0.2-1.5,0.5-2.1c0.3-0.6,0.8-1.1,1.3-1.4c0.5-0.4,1.2-0.7,1.9-0.8c0.7-0.2,1.4-0.3,2.1-0.3c0.8,0,1.6,0.1,2.4,0.4
			c0.8,0.3,1.5,0.7,2.2,1.3L198,49.8z"/>
	</g>
	<path class="st0" d="M118.9,16.8"/>
	<g>
		<path class="st0" d="M206.4,46.3c0.5,0,1.1,0.1,1.6,0.4s0.9,0.7,1.2,1.2c0.3,0.5,0.4,1.1,0.4,1.6c0,0.6-0.1,1.1-0.4,1.6
			c-0.3,0.5-0.7,0.9-1.2,1.2c-0.5,0.3-1,0.4-1.6,0.4c-0.6,0-1.1-0.1-1.6-0.4c-0.5-0.3-0.9-0.7-1.2-1.2c-0.3-0.5-0.4-1-0.4-1.6
			c0-0.6,0.1-1.1,0.4-1.6c0.3-0.5,0.7-0.9,1.2-1.2S205.9,46.3,206.4,46.3z M206.4,46.8c-0.5,0-0.9,0.1-1.3,0.3c-0.4,0.2-0.8,0.6-1,1
			c-0.2,0.4-0.4,0.9-0.4,1.3c0,0.5,0.1,0.9,0.4,1.3c0.2,0.4,0.6,0.8,1,1c0.4,0.2,0.9,0.4,1.3,0.4c0.5,0,0.9-0.1,1.3-0.4
			c0.4-0.2,0.8-0.6,1-1c0.2-0.4,0.4-0.9,0.4-1.3c0-0.5-0.1-0.9-0.4-1.3c-0.2-0.4-0.6-0.8-1-1C207.3,46.9,206.9,46.8,206.4,46.8z
			 M205,51.3v-3.5h1.2c0.4,0,0.7,0,0.9,0.1c0.2,0.1,0.3,0.2,0.4,0.3c0.1,0.2,0.2,0.3,0.2,0.5c0,0.3-0.1,0.5-0.3,0.7
			s-0.4,0.3-0.7,0.3c0.1,0.1,0.2,0.1,0.3,0.2c0.1,0.1,0.3,0.4,0.5,0.7l0.4,0.7h-0.7l-0.3-0.5c-0.2-0.4-0.4-0.7-0.6-0.8
			c-0.1-0.1-0.3-0.1-0.4-0.1h-0.3v1.5H205z M205.6,49.3h0.7c0.3,0,0.5,0,0.7-0.1c0.1-0.1,0.2-0.2,0.2-0.4c0-0.1,0-0.2-0.1-0.3
			s-0.1-0.1-0.2-0.2c-0.1,0-0.3-0.1-0.6-0.1h-0.6V49.3z"/>
	</g>
</g>
</svg>
