<?xml version="1.0" encoding="utf-8"?>
<!-- Generator: Adobe Illustrator 25.4.6, SVG Export Plug-In . SVG Version: 6.00 Build 0)  -->
<svg version="1.1" id="Livello_1" xmlns="http://www.w3.org/2000/svg" xmlns:xlink="http://www.w3.org/1999/xlink" x="0px" y="0px"
	 viewBox="0 0 1275.6 459.2" style="enable-background:new 0 0 1275.6 459.2;" xml:space="preserve">
<style type="text/css">
	.st0{fill:#FFFFFF;}
	.st1{fill-rule:evenodd;clip-rule:evenodd;fill:#FFFFFF;}
</style>
<g>
	<path class="st0" d="M786.2,319.5L786.2,319.5l-0.2,0c-6.9-0.7-13.8-1-20.6-1.4c-6.7-0.3-13.7-0.7-20.5-1.4
		c-6.9,0.7-13.8,1-20.5,1.4c-6.8,0.3-13.7,0.7-20.6,1.4c-0.3,0-0.6,0-0.9,0c-7.1,0-14.6-0.3-14.6-7.1c0-6.7,4-8.7,10.5-11.5
		c7.5-3.4,8.4-8.6,8.4-27.9V161.3c0-3.7-0.3-6.8-0.7-8c-1.3,1-3.4,5.3-5.6,9.8l-1.5,3l-68.4,142.7c-3.5,7.1-7.3,10.6-11.3,10.6
		c-4.9,0-7-4.3-8.7-7.8l-0.2-0.4l-67.1-148c-3.4-8-5-8.9-5.5-8.9c-0.5,0-1.2,0-1.2,6.5v92.1c0,19.3,3.4,38.4,27.9,47.8
		c5.3,2,10.3,4.8,10.3,11.5c0,7.1-7.6,7.1-10.8,7.1c-6.1,0-12.3-0.7-18.2-1.4c-5.9-0.7-11.9-1.4-17.9-1.4c-5.9,0-12,0.7-17.9,1.4
		c-6,0.7-12.1,1.4-18.2,1.4c-3.3,0-8.7,0-8.7-7.1c0-6.1,4.1-8.3,8.9-10.8l1.2-0.6c16.5-9,21.6-17.8,21.6-37.8V131.6
		c0-13.6-4.2-31.5-16-37.4c-2-1-3.8-1.8-5.4-2.6c-7.7-3.6-11.6-5.4-11.6-11c0-5,1.7-7.1,6-7.1c5.2,0,10.5,0.4,15.6,0.7
		c5,0.3,10.3,0.7,15.4,0.7c5.1,0,10.3-0.3,15.4-0.7c5.1-0.3,10.4-0.7,15.6-0.7c6.9,0,10.2,0.9,13.1,6.8l67,141.7
		c1.9,3.9,3.4,7.2,4.7,9.9c2.1,4.5,3.7,8,4.6,9.2c1-1,2.9-4.7,4.4-7.7c0.8-1.6,1.7-3.2,2.6-4.9l75.3-146.2c3.7-7.2,5.4-8.9,9.3-8.9
		c5.2,0,10.5,0.4,15.6,0.7c5,0.3,10.3,0.7,15.4,0.7c5.1,0,10.3-0.3,15.4-0.7c5.1-0.3,10.4-0.7,15.6-0.7c1.2,0,2.2,0.4,3,1.3
		c1.1,1.2,1.5,3.2,1.3,6c0,6.2-5.9,8.3-15.7,11.8l-1.8,0.7c-11.4,3.9-16.9,6.6-16.9,26.8V244c0,28.6,1.3,46.6,27.6,56.9
		c7,2.7,11.3,4.7,11.3,11.5C801.5,319.5,793.4,319.5,786.2,319.5L786.2,319.5z"/>
	<path class="st0" d="M921,321.7c-15.6,0-30.1-3.6-44-7c-6.2-1.5-12.6-3.1-19-4.4c-0.4-0.1-0.8-0.2-1.3-0.2
		c-3.5-0.6-9.5-1.7-11.2-7.5l-12.1-47.9c-0.2-1-0.5-2.1-0.8-3.2c-0.8-2.8-1.7-5.9-1.7-8.4c0-1.9,0.7-7.9,10-7.9
		c7.4,0,10.1,7.3,12.2,12.6c0.5,1.2,0.9,2.4,1.4,3.4c11.3,24,35,49.7,67.7,49.7c24.2,0,41.2-15.3,41.2-37.2
		c0-22.5-23.2-30.7-50-40.2C878.4,211,835,195.6,835,140.7c0-38.7,32.5-70.1,72.5-70.1c18.6,0,32.8,5.3,43.1,9.2
		C957,82.1,962,84,965.9,84c1.4,0,4.4-1.3,6.8-2.4c3-1.3,5.6-2.5,7.7-2.5c7.3,0,8.2,4.9,8.2,9.3c-0.5,14,2.2,33.7,3.8,45.5
		c0.7,5.4,1.1,8,1.1,9.2c0,6.3-3.7,10.3-9.6,10.3c-7.8,0-9.9-6.4-12.5-14.5l-0.5-1.5c-7.7-24.5-36.2-45.9-61-45.9
		c-18.2,0-36.7,9.9-36.7,28.9c0,23.8,23.5,31.8,50.7,41c36.3,12.3,77.5,26.3,77.5,81.5C1001.5,280.8,970.7,321.7,921,321.7
		L921,321.7z"/>
	<path class="st0" d="M1157,321.7c-58.7,0-119.5-44-119.5-117.6c0-44.3,13.7-80.1,39.7-103.4c21.6-19.4,51.5-30.1,84.1-30.1
		c25.3,0,46.5,8.3,60.5,13.7c6.2,2.4,11.5,4.5,14,4.5c2.4,0,3.1-1.1,4.5-3.7c1.6-2.9,3.8-7,10.3-7c3.7,0,6.3,2.2,7,6l5.1,47
		c0.3,2.8,0.7,5.6,1.2,8.4c0.6,3.7,1.2,7.2,1.2,9.8c0,5.4-2.7,11-7.8,11c-5.2,0-8.7-6.8-10.9-10.9c-0.2-0.5-0.4-0.8-0.6-1.1
		c-20.4-36.6-47.7-56.8-76.9-56.8c-48.1,0-71.5,31.7-71.5,97.1c0,55.2,34,100.2,75.9,100.2c24.8,0,50.5-11.7,70.6-32.2
		c0.7-0.7,1.5-1.6,2.2-2.4c3.8-4.2,8.6-9.4,14.2-9.4c1.9,0,6.4,0.7,6.4,7.5C1267,264,1230.1,321.7,1157,321.7L1157,321.7z"/>
	<g>
		<path class="st0" d="M542.2,406.1c0.2,1.7,0.6,3.5,0.6,4.6c0,1-0.4,2.1-1.3,2.1c-1,0-2-2.1-2.3-2.8c-5.5-9.8-12.9-15-20.4-15
			c-11,0-19.1,6.4-19.1,25.7c0,13.7,8.5,26.5,20.3,26.5c7.3,0,14.1-3.8,18.7-8.5c1-1.1,2.3-2.8,3.7-2.8c0.7,0,1,0.4,1,1.2
			c0,2.7-9.4,17.2-27.7,17.2c-14.6,0-30.1-10.7-30.1-29.6c0-24.8,16.3-33.7,31.2-33.7c9.6,0,16.9,4.7,19.2,4.7
			c2.2,0,1.4-2.8,3.8-2.8c0.8,0,1,0.5,1.1,1L542.2,406.1z"/>
		<path class="st0" d="M597.8,402.8c0-5.2-3-6.8-6.6-7.4c-1.1-0.2-1.8-0.7-1.8-2.1c0-0.9,0.3-1.4,2.4-1.4s4.4,0.7,10.6,0.7
			c4.7,0,11.1-0.7,15-0.7c11.7,0,23.7,2.2,23.7,16.9c0,6-3,9.1-6.5,11.3c-1.7,1-4.3,1.5-4.3,2.4c0,1.3,9.7,19.1,14,24
			c0.9,1,1.6,1.5,2.3,1.5c1,0,1.9-0.3,2.7-0.3c1,0,1.4,0.6,1.4,1.6c0,3.8-10.3,4.3-13.1,4.3c-2.5,0-5.6-1.8-7.5-5.3l-10.2-19
			c-1.5-2.7-2.9-5-6.1-5c-2.3,0-2.9,0.4-2.9,1.6v15.1c0,7.3,3,8.9,6.6,9.1c1.1,0.1,1.8,0.7,1.8,2.1c0,1.2-1,1.4-5,1.4
			c-3.5,0-7-0.7-10.4-0.7c-3.5,0-7,0.7-10.4,0.7c-1.2,0-2.5,0-2.5-1.4s1.5-1.9,2.3-2.1c3.4-1.1,4.4-4.4,4.4-7.4V402.8z M611,417.3
			c0,1.1,0,3.1,5.6,3.1c7.8,0,11-3.7,11-12.6c0-6.4-3.7-12.6-11.2-12.6c-4.6,0-5.4,1.4-5.4,4.6V417.3z"/>
		<path class="st0" d="M701.5,402.8c0-5.5-3-7.4-6.6-7.4c-1.1,0-1.8-0.7-1.8-1.9c0-1.2,0.8-1.7,5-1.7c3.5,0,7,0.7,10.4,0.7
			c3.5,0,7-0.7,10.4-0.7c2.1,0,2.5,0.5,2.5,1.4c0,1.1-1.2,1.4-2.6,2.1c-2.9,1.4-4.2,4.2-4.2,7.4v27.6c0,10.4,6.8,17.8,17.5,17.8
			c15.6,0,19.4-12.7,19.4-22.5v-22.6c0-4.5-2.3-7.4-7-7.6c-1.5-0.1-2.8-0.7-2.8-2.1c0-1.1,1-1.4,3.2-1.4c2.6,0,5.2,0.4,7.8,0.4
			c2.6,0,5.2-0.4,7.8-0.4c1.7,0,2,0.4,2,1.4c0,1.4-1.6,1.5-3,2.1c-2.5,1.1-3.2,2.7-3.2,10.4v18.9c0,19.7-10,29.7-29.7,29.7
			c-15.9,0-25.2-6.8-25.2-23.7V402.8z"/>
		<path class="st0" d="M866.2,406.1c0.2,1.7,0.6,3.5,0.6,4.6c0,1-0.4,2.1-1.3,2.1c-1,0-2-2.1-2.3-2.8c-5.5-9.8-12.9-15-20.4-15
			c-11,0-19.1,6.4-19.1,25.7c0,13.7,8.5,26.5,20.3,26.5c7.3,0,14.1-3.8,18.7-8.5c1-1.1,2.3-2.8,3.7-2.8c0.7,0,1,0.4,1,1.2
			c0,2.7-9.4,17.2-27.7,17.2c-14.6,0-30.1-10.7-30.1-29.6c0-24.8,16.3-33.7,31.2-33.7c9.6,0,16.9,4.7,19.2,4.7
			c2.2,0,1.4-2.8,3.8-2.8c0.8,0,1,0.5,1.1,1L866.2,406.1z"/>
		<path class="st0" d="M921.2,407.3c0-4.3-0.4-11-4.1-11.4c-2.7-0.4-4.5-1.2-4.5-2.6c0-1.4,1.5-1.4,3.2-1.4
			c6.7,0.9,13.4,0.6,20.1,0.7c6.7,0,13.4-0.7,20.1-0.7c2,0,3.7,0,3.7,1.8c0,2-0.3,3.9-0.3,5.9c0,2,0.3,3.9,0.3,5.9
			c0,1-0.3,1.7-1.6,1.7c-1.4,0-1.7-1.6-1.7-2.4c-0.6-5.6-3.1-7.9-13.3-7.9h-5.7c-2.4,0-3,0.8-3,4.3v15.5c0,1.4,1.5,1.9,5,1.9
			c5,0,8.9-1.5,10.3-5.3c1-2.5,1.3-2.8,2.2-2.8c1.3,0,1.3,1.2,1.3,2.5c0,2.7-0.3,5.3-0.3,8c0,2.7,0.3,5.3,0.3,8c0,1.2,0,2.5-1.7,2.5
			c-1.3,0-1.3-2.7-2.3-4.4c-2.2-3.6-4.7-4.2-9.7-4.2c-4.2,0-5,1.2-5,3.4v15.2c0,6.6,1.1,7.5,5.7,7.5c9.1,0,14.2-2.8,17.1-5.8
			c3-2.9,3.8-5.9,5.2-5.9c1,0,1.4,0.8,1.4,1.7c0,1.8-0.7,5.2-1.3,7c-1.1,3.5-5,7.9-9.1,7.9c-5.8,0-11.7-0.7-17.5-0.7
			c-5.8,0-11.7,0.7-17.5,0.7c-2.7,0-4,0-4-1.4s1.7-2,3.3-2.8c2.9-1.4,3.4-3.5,3.4-8.6V407.3z"/>
		<path class="st0" d="M1016.9,402.8c0-5.2-3-6.8-6.6-7.4c-1.1-0.2-1.8-0.7-1.8-2.1c0-0.9,0.3-1.4,2.4-1.4c2.1,0,4.4,0.7,10.6,0.7
			c4.7,0,11.1-0.7,15-0.7c11.7,0,23.7,2.2,23.7,16.9c0,6-3,9.1-6.5,11.3c-1.7,1-4.3,1.5-4.3,2.4c0,1.3,9.7,19.1,14,24
			c0.9,1,1.6,1.5,2.3,1.5c1,0,1.9-0.3,2.7-0.3c1,0,1.4,0.6,1.4,1.6c0,3.8-10.3,4.3-13.1,4.3c-2.5,0-5.6-1.8-7.5-5.3l-10.2-19
			c-1.5-2.7-2.9-5-6.1-5c-2.3,0-2.9,0.4-2.9,1.6v15.1c0,7.3,3,8.9,6.6,9.1c1.1,0.1,1.8,0.7,1.8,2.1c0,1.2-1,1.4-5,1.4
			c-3.5,0-7-0.7-10.4-0.7c-3.5,0-7,0.7-10.4,0.7c-1.2,0-2.5,0-2.5-1.4s1.5-1.9,2.3-2.1c3.4-1.1,4.4-4.4,4.4-7.4V402.8z
			 M1030.1,417.3c0,1.1,0,3.1,5.6,3.1c7.8,0,11-3.7,11-12.6c0-6.4-3.7-12.6-11.2-12.6c-4.6,0-5.4,1.4-5.4,4.6V417.3z"/>
		<path class="st0" d="M1149.5,391.1c17.8,0,31.8,11.8,31.8,30.6c0,20-17.6,32.7-35.7,32.7c-17.8,0-31-12.1-31-30.1
			C1114.7,405.3,1131.5,391.1,1149.5,391.1z M1149.8,450.4c10.3,0,17.5-11.2,17.5-23.9c0-12.1-7.1-31.5-21-31.5
			c-10.3,0-17.5,11.2-17.5,23.9C1128.8,431,1135.9,450.4,1149.8,450.4z"/>
		<path class="st0" d="M1230,437.7c-0.2-0.8-0.6-2-0.6-2.8c0-0.6,0.3-1.3,1.8-1.3c1.7,0,2.2,2.4,2.8,3.7c3.2,7,9.5,13.2,17.7,13.2
			c6.1,0,11-3.8,11-10.3c0-14.5-32.3-7.5-32.3-31.7c0-9.1,7.3-17.4,17.6-17.4c7.4,0,11.8,3.5,14.7,3.5c1,0,2.9-1.2,3.7-1.2
			c1.1,0,1.4,0.5,1.4,1.7c-0.2,5.1,1.2,13.1,1.2,14.1c0,1.2-0.5,2-1.7,2c-1.6,0-1.9-1.4-2.6-3.6c-2-6.5-9.4-12.3-16-12.3
			c-5.3,0-9.9,3.1-9.9,8.2c0,15.1,32.3,7.1,32.3,31.6c0,8.6-6.6,19.6-19.6,19.6c-5.6,0-10.4-1.9-15.7-2.9c-0.9-0.2-2.3-0.3-2.6-1.5
			L1230,437.7z"/>
	</g>
	<g>
		<path class="st0" d="M213.2,113.9l18.2-68.3v66.9C221.3,112.5,213.2,113.9,213.2,113.9L213.2,113.9z"/>
		<path class="st0" d="M122.2,187.5l-27.7-37l35.5,20.6C126.8,176.6,124.4,181.6,122.2,187.5L122.2,187.5z"/>
		<path class="st0" d="M115.8,247.8l-68.4-18.2c0,0,67,0,67,0C114.4,235.7,114.9,241.9,115.8,247.8L115.8,247.8z"/>
		<path class="st0" d="M157.9,138.5l-5.6-45.8l20.6,35.5C167.4,131.4,162.8,134.5,157.9,138.5L157.9,138.5z"/>
		<path class="st0" d="M189.3,338.8l-37,27.9l20.6-35.7C178.4,334.2,183.4,336.6,189.3,338.8L189.3,338.8z"/>
		<path class="st0" d="M249.6,345.3l-18.2,68.3c0,0-0.1-66.9,0-66.9C237.6,346.7,243.7,346.2,249.6,345.3L249.6,345.3z"/>
		<path class="st0" d="M140.3,303.1l-45.8,5.7l35.5-20.6C133.2,293.7,136.3,298.2,140.3,303.1L140.3,303.1z"/>
		<path class="st0" d="M340.7,271.7l27.7,37l-35.5-20.6C336,282.7,338.4,277.6,340.7,271.7L340.7,271.7z"/>
		<path class="st0" d="M347.1,211.4l68.4,18.2c0,0-67,0-67,0C348.4,223.5,348,217.3,347.1,211.4L347.1,211.4z"/>
		<path class="st0" d="M304.9,320.7l5.7,46L290,331C295.5,327.8,300.1,324.7,304.9,320.7L304.9,320.7z"/>
		<path class="st0" d="M273.6,120.4l37-27.7L290,128.2C284.5,125,279.5,122.6,273.6,120.4L273.6,120.4z"/>
		<path class="st0" d="M322.5,156.1l45.8-5.6l-35.5,20.6C329.5,165.4,326.5,161,322.5,156.1L322.5,156.1z"/>
		<path class="st1" d="M231.4,435l-24.2-90.8c-4.3-0.9-8.2-1.9-12.2-3.3l-49.2,36.9l7.4-61.1c-3.1-2.8-6.1-5.8-8.9-8.9l-61.1,7.4
			l36.9-49.2c-1.3-4-2.4-7.9-3.3-12.1L26,229.6l90.8-24.2c0.9-4.5,2-8.1,3.3-12.1L83.2,144l61.1,7.4c2.8-3.2,5.7-6,8.9-8.9
			l-7.3-61.1l49.2,36.9c4-1.3,7.9-2.4,12.1-3.2l24.2-90.8l24.1,90.8c4.3,0.9,8.3,2,12.3,3.3L317,81.4l-7.3,61.1
			c3.2,2.8,6.1,5.8,8.9,8.9l61.1-7.4l-36.9,49.2c1.3,4,2.3,7.7,3.3,12.2l90.8,24.2L346,253.8c-1,4.4-2,8.1-3.3,12.2l36.9,49.2
			l-61.1-7.4c-2.8,3.1-5.8,6.1-8.9,8.9l7.4,61.1l-49.3-36.9c-4,1.3-7.9,2.3-12.1,3.2L231.4,435L231.4,435z M261.7,342.9l-30.3,113.5
			L201,342.9l-61.6,46.2l9.1-76.6l-76.6,9.2l46.2-61.7L4.6,229.6l113.4-30.3l-46.2-61.8l76.6,9.2l-9.1-76.6l61.6,46.2L231.4,2.8
			l30.3,113.5l61.8-46.2l-9.1,76.6l76.5-9.2l-46.2,61.7l113.5,30.4L344.7,260l46.2,61.7l-76.6-9.1l9.2,76.6L261.7,342.9L261.7,342.9
			z"/>
		<path class="st0" d="M338.2,229.6c0,2.1-1.7,3.9-3.9,3.9c-2.1,0-3.8-1.7-3.8-3.9c0-2.1,1.7-3.9,3.8-3.9
			C336.5,225.8,338.2,227.5,338.2,229.6L338.2,229.6z"/>
		<path class="st0" d="M284.8,137.1c1.8,1.1,2.5,3.4,1.4,5.3c-1.1,1.8-3.4,2.5-5.3,1.4c-1.8-1.1-2.5-3.4-1.4-5.3
			C280.6,136.7,283,136.1,284.8,137.1L284.8,137.1z"/>
		<path class="st0" d="M178,137.1c1.8-1.1,4.2-0.4,5.3,1.4c1.1,1.8,0.4,4.2-1.4,5.3c-1.8,1.1-4.2,0.4-5.3-1.4
			C175.6,140.5,176.2,138.2,178,137.1L178,137.1z"/>
		<path class="st0" d="M124.6,229.6c0-2.1,1.7-3.9,3.9-3.9c2.1,0,3.9,1.7,3.9,3.9c0,2.1-1.7,3.8-3.9,3.8
			C126.4,233.4,124.6,231.7,124.6,229.6L124.6,229.6z"/>
		<path class="st0" d="M178,322.1c-1.8-1.1-2.5-3.4-1.4-5.3c1.1-1.8,3.4-2.5,5.3-1.4c1.8,1.1,2.5,3.4,1.4,5.3
			C182.2,322.5,179.9,323.2,178,322.1L178,322.1z"/>
		<path class="st1" d="M137.8,229.6c0-51.7,41.9-93.6,93.6-93.6c51.7,0,93.6,41.9,93.6,93.6c0,51.7-41.9,93.6-93.6,93.6
			C179.7,323.2,137.8,281.3,137.8,229.6L137.8,229.6z M119.1,229.6c0-62,50.3-112.3,112.3-112.3c62,0,112.3,50.3,112.3,112.3
			c0,62-50.3,112.3-112.3,112.3C169.4,341.9,119.1,291.6,119.1,229.6L119.1,229.6z M340.5,229.6c0-3.4-2.8-6.2-6.2-6.2
			c-3.4,0-6.1,2.7-6.1,6.2c0,3.4,2.8,6.2,6.1,6.2C337.8,235.8,340.5,233,340.5,229.6L340.5,229.6z M286,135.1
			c-3-1.7-6.7-0.7-8.4,2.3c-1.7,2.9-0.7,6.7,2.3,8.4c2.9,1.7,6.7,0.7,8.4-2.3C289.9,140.6,288.9,136.8,286,135.1L286,135.1z
			 M176.9,135.1c-2.9,1.7-4,5.5-2.3,8.4c1.7,3,5.5,4,8.4,2.3c3-1.7,4-5.5,2.3-8.4C183.6,134.4,179.8,133.4,176.9,135.1L176.9,135.1z
			 M122.3,229.6c0,3.4,2.8,6.2,6.2,6.2c3.4,0,6.2-2.8,6.2-6.2c0-3.4-2.8-6.2-6.2-6.2C125.1,223.4,122.3,226.2,122.3,229.6
			L122.3,229.6z M176.9,324.1c2.9,1.7,6.7,0.7,8.4-2.3c1.7-2.9,0.7-6.7-2.3-8.4c-3-1.7-6.7-0.7-8.4,2.3
			C172.9,318.6,173.9,322.4,176.9,324.1L176.9,324.1z M286,324.1c2.9-1.7,4-5.5,2.3-8.4c-1.7-3-5.5-4-8.4-2.3c-3,1.7-4,5.5-2.3,8.4
			C279.2,324.8,283,325.8,286,324.1L286,324.1z"/>
		<path class="st0" d="M284.8,322.1c-1.8,1.1-4.2,0.4-5.3-1.4c-1.1-1.8-0.4-4.2,1.4-5.3c1.8-1.1,4.2-0.4,5.3,1.4
			C287.3,318.7,286.7,321,284.8,322.1L284.8,322.1z"/>
		<path class="st1" d="M197,279.6c0.1,1.7,1.2,3.3,2.8,3.9c2.7,1.1,5.7,1.1,8.4,0c1.6-0.7,2.7-2.2,2.8-3.9c-0.1-1.6-1-3.1-2.5-3.8
			c-1.2-0.6-2.4-1-3.7-1.3c-1.7-0.4-3.4-0.8-5.1-1.1c-0.9-0.2-1.8-0.3-2.6-0.4c-5-0.7-9.6-2.8-13.4-6.1c-0.9-1.1-1.7-2.3-2.2-3.6
			c-3.4-7.7,0-16.7,7.7-20.2c9.4-4.2,20-4.3,29.4-0.3c5.7,2,9.5,7.3,9.5,13.3h-16.2c-0.5-2.4-2.4-4.2-4.8-4.5
			c-2.1-0.5-4.3-0.3-6.2,0.6c-2.2,1-3.3,3.4-2.5,5.7c1.2,2.1,3.3,3.5,5.7,3.8c4.6,0.6,9,1.7,13.4,3.1c1.8,0.4,3.6,1.1,5.2,2.2
			c1.5,1.1,2.7,2.5,3.7,4.1c4.3,7.1,2,16.4-5.1,20.7c-8.7,4.4-18.7,5.2-28,2.3c-7-1.3-12.1-7.4-12.1-14.6H197L197,279.6z M282,262.2
			c-0.2-7.2-4-13.8-10.1-17.6c-8.8-6.3-20.9-5.7-29,1.5c-4.9,4.3-7.8,10.4-8.1,16.9c-0.9,6.5-0.1,13.1,2.2,19.3
			c2.6,5.7,7.5,10.1,13.5,12.2c5.8,2.2,12.3,1.8,17.7-1.1c7.8-3.7,13-11.2,13.7-19.7H267c-0.9,3.1-2.6,5.6-4.7,7
			c-4.8,3.2-10.4,0-12.5-7c-2.1-7,0-15.2,4.8-18.4c4.8-3.1,10.4,0,12.5,7H282L282,262.2z M260.4,225.4v-34.4
			c-0.5-4.7-4.6-8.2-9.3-7.7c-4.3,0.4-7.6,3.9-7.8,8.2v38.8C248.8,227.9,254.5,226.3,260.4,225.4L260.4,225.4z M219.6,229.9v-38.5
			c-0.1-4.8-4-8.5-8.8-8.5c-4.1,0.1-7.6,3-8.3,7.1v35.6C208.3,226.3,214.1,227.7,219.6,229.9L219.6,229.9z M303.9,235.4
			c-6.8,3.8-15,4.2-22.1,1.1c-10.8-4.4-22.9-4.4-33.8,0c-5.3,2.1-10.9,3.2-16.6,3.1c-5.7,0.1-11.3-1-16.6-3.1
			c-10.9-4.4-23-4.3-33.8,0c-7.1,3.1-15.3,2.7-22.1-1.1l3.9-6.5c4.7,2.6,10.4,2.8,15.3,0.7v-64.4h24.2v6.2c0.8-0.8,1.6-1.6,2.5-2.4
			c10.6-8.7,26.4-7.2,35.1,3.5c4.6-5.4,11.2-8.7,18.2-9.1c14-0.7,26,10.1,26.6,24.1v42c4.9,2.2,10.6,1.9,15.3-0.7L303.9,235.4
			L303.9,235.4z"/>
	</g>
</g>
</svg>
