<svg viewBox="0 0 129 39" xmlns="http://www.w3.org/2000/svg" xmlns:xlink="http://www.w3.org/1999/xlink">
              <defs>
                <path id="a" d="M.125.076L15.552 28.29 15.535.076z"></path>
              </defs>
              <g fill="none" fill-rule="evenodd">
                <g fill="#C00">
                  <path d="M36.65 5.558l-1.63-.003a4.952 4.952 0 0 0-4.221 2.505l-12.47 22.468L5.825 8.049a4.948 4.948 0 0 0-4.213-2.491H0l18.325 32.98L36.65 5.558z"></path>
                  <path d="M33.88.076H2.746L18.33 28.092z"></path>
                </g>
                <g transform="translate(2.223)">
                  <mask id="b" fill="#fff">
                    <use xlink:href="#a"></use>
                  </mask>
                  <path mask="url(#b)" d="M.125.076L15.552 28.29 15.535.076z"></path>
                </g>
                <g fill="#FFF">
                  <path d="M21.334 4.87a.3.3 0 0 0-.166-.004.57.57 0 0 0-.278.162.452.452 0 0 0-.117.205.23.23 0 0 0 .01.175c.01.022.022.047.04.065a.161.161 0 0 0 .069.035c.08.023.162.036.238-.023l.02-.012c.053-.038.107-.067.142-.126a.633.633 0 0 1 .085-.107c.05-.051.058-.123.089-.183l-.001-.015a.29.29 0 0 0-.07-.161c-.021-.004-.043-.004-.06-.01zM15.43 7.824c.037.013.08.026.125.004.103-.047.193-.113.28-.184.02-.016.045-.03.057-.05.026-.045.061-.08.087-.124A.276.276 0 0 0 16 7.225c-.01-.026-.026-.052-.032-.079-.009-.032-.029-.047-.056-.056a.244.244 0 0 0-.057-.007.327.327 0 0 0-.18.055 1.898 1.898 0 0 0-.188.144c-.029.023-.05.054-.076.08-.04.036-.045.09-.066.134-.021.042-.03.09-.036.116.004.11.036.18.12.212zm5.666-.154c-.032-.016-.029-.048-.027-.073a.155.155 0 0 1 .03-.092l.014-.02c-.014-.044.014-.087-.01-.13-.007-.01-.004-.025 0-.036a.071.071 0 0 0 .002-.038c-.006-.035 0-.071-.001-.107 0-.026-.01-.055-.003-.078.016-.038.003-.073.002-.11a2.043 2.043 0 0 1-.004-.12c.002-.018.006-.033.01-.05.005-.022.022-.046.018-.067a.08.08 0 0 1 .004-.061.226.226 0 0 0 .012-.102c-.008-.048.01-.09.017-.134.006-.041.018-.078-.006-.12-.013-.025-.03-.05-.03-.084.001-.056-.025-.086-.082-.092a.515.515 0 0 0-.13.006.35.35 0 0 0-.177.1.606.606 0 0 0-.185.342c-.015.072-.019.147-.028.22-.007.052-.015.102-.02.154-.013.12-.022.242-.034.365-.01.095-.022.192-.03.289-.022.21-.04.42-.061.629-.003.038-.004.074-.008.112-.003.07-.016.139-.012.208.003.058.027.117.087.148a.19.19 0 0 0 .157.013.97.97 0 0 0 .323-.19c.05-.044.068-.105.111-.15.003-.062.036-.122.008-.183a.114.114 0 0 1-.004-.047l.011-.261.012-.14c.017.003.03.008.044.012l-.037-.08.032.016c.018-.021.013-.04-.005-.049zm-5.4 1.186a.2.2 0 0 0-.05-.15c-.046-.058-.111-.059-.174-.042a.633.633 0 0 0-.352.237c-.111.149-.15.324-.166.507-.005.067-.01.134-.017.203-.002.027-.004.055-.004.084-.001.052-.001.105-.004.158l-.02.35c-.001.015-.006.03-.007.046-.004.015-.01.028-.01.042-.003.052 0 .103-.007.155-.004.055-.013.11-.013.167 0 .127-.012.255-.016.383-.003.111-.012.224 0 .335.01.12.041.16.168.175a.211.211 0 0 0 .134-.032c.086-.05.167-.103.237-.175l.02-.012c.034.01.037-.016.044-.036.05.003.059-.01.05-.062h-.04l.007-.047c.007-.025.015-.047.02-.07.013-.072.024-.142.038-.214.001-.011.007-.023.005-.032-.022-.083.002-.167-.006-.251-.003-.01 0-.018 0-.028.012-.071.024-.143.033-.215.007-.06.012-.121.029-.18.006-.026.003-.054.005-.079 0-.027 0-.054.005-.08.01-.04.027-.08.033-.12.006-.058.01-.117.007-.176 0-.051-.004-.1.015-.15.018-.042.018-.093.024-.138.004-.032.011-.064.01-.094a.163.163 0 0 1 .018-.093c.008-.014.015-.037.01-.05-.014-.029-.002-.05.006-.07-.015-.035-.031-.065-.036-.097-.011-.044-.003-.053.04-.073-.012-.028-.04-.042-.037-.076zm1.286.227a.23.23 0 0 0 .018-.078.727.727 0 0 1 .041-.136.793.793 0 0 1 .164-.232c.069-.071.15-.133.23-.193a.617.617 0 0 0 .17-.168c.044-.072.04-.148.025-.222-.006-.044-.04-.082-.059-.123-.035-.07-.096-.089-.167-.08a.37.37 0 0 0-.157.056c-.03.018-.062.031-.09.043-.037.016-.074.024-.106.041a.478.478 0 0 1-.2.064.789.789 0 0 0-.286.08.483.483 0 0 0-.204.197.757.757 0 0 0-.079.285c-.011.12-.013.243-.02.366-.003.061-.008.123-.01.185-.006.073-.013.145-.018.218-.002.032.001.068-.01.1a.388.388 0 0 0-.024.142c.006.06-.02.12.003.18l-.003.02c-.015.061-.03.122-.005.187.003.008.003.02.001.031-.003.038-.007.076-.007.115 0 .064-.028.123-.015.188.008.061 0 .123 0 .185 0 .053.017.103.043.147.037.07.106.108.173.096a.703.703 0 0 0 .36-.191c.09-.09.13-.201.142-.328.005-.058-.008-.119.02-.173l.002-.021c-.002-.05-.008-.102-.006-.153l.018-.35c.002-.037.01-.07.01-.104.003-.065 0-.132.004-.197.003-.027.001-.064.034-.075.003-.04-.002-.074.008-.102zm-.827-6.735l-.01.007a.62.62 0 0 0-.318.2.826.826 0 0 0-.158.217c-.033.073-.074.14-.107.214a5.135 5.135 0 0 0-.097.258l-.256.677a27.41 27.41 0 0 0-.168.46c-.034.09-.064.184-.094.274l-.228.643c-.01.028-.024.054-.036.083-.012.03-.025.06-.036.092-.015.047-.024.094-.04.138-.017.055-.044.104-.06.16-.033.11-.062.22-.093.33-.005.017-.013.034-.019.05-.007.024-.016.05-.022.075-.005.037.007.078-.026.11-.007.009-.006.027-.01.04-.004.024-.01.045-.015.068-.049.172-.1.343-.147.516-.02.075-.025.154-.045.23-.02.084-.05.165-.072.248l-.135.52c-.006.027-.015.055-.02.081-.013.058-.025.116-.039.172-.011.05-.028.099-.037.15-.037.19-.07.379-.11.568-.033.153-.065.305-.088.46-.024.17-.058.336-.087.504-.015.098-.026.197-.041.294-.027.162-.05.323-.076.485-.013.104-.024.207-.04.31-.003.029-.016.057-.027.084-.015-.014-.025-.02-.034-.03-.008-.01-.018-.02-.02-.034-.003-.03-.007-.063-.002-.093.007-.034-.003-.05-.03-.059-.005-.073.006-.145-.02-.214a.088.088 0 0 1-.002-.041c.006-.043.013-.083.01-.126a.133.133 0 0 0-.023-.068c-.02-.028-.045-.06-.015-.098l-.04-.009c.007-.054.004-.11.023-.156.024-.053.012-.094-.005-.141l-.007-.014c-.017-.052-.043-.103-.04-.159a.359.359 0 0 0-.025-.14c-.015-.042-.035-.09 0-.134-.033-.059-.034-.059-.038-.133-.003-.034-.019-.063-.027-.095-.02-.044-.053-.089-.034-.134-.016-.022-.03-.037-.033-.053-.005-.05-.007-.099-.02-.148-.015-.047-.017-.098-.029-.148-.006-.036-.008-.074-.015-.11-.003-.054-.04-.106-.005-.162.003-.006-.004-.017-.005-.026-.003-.013-.013-.03-.01-.04.015-.033-.005-.045-.017-.053-.005-.03-.005-.053-.008-.071-.003-.026-.01-.048-.016-.073-.003-.014.003-.034-.003-.043-.032-.042-.021-.094-.032-.14-.02-.091-.027-.186-.042-.279-.031-.186-.064-.37-.096-.555a.498.498 0 0 0-.083-.204c-.103-.145-.315-.17-.455-.082a.385.385 0 0 0-.158.2 2.99 2.99 0 0 0-.058.177l-.133.405c-.007.023-.013.048-.025.069a.282.282 0 0 0-.032.095c-.007.032-.023.062-.032.094-.013.04-.03.08-.037.12-.02.109-.065.207-.095.311-.014.037-.029.073-.038.111-.017.069-.032.14-.072.202a.177.177 0 0 0-.023.08.209.209 0 0 1-.038.114.13.13 0 0 0-.033.064.956.956 0 0 1-.067.222c-.022.057-.047.112-.06.175-.018.087-.055.171-.084.257-.025.08-.053.16-.077.243a.091.091 0 0 0-.002.042c.024.12.092.206.216.233.038.01.079 0 .117 0a.27.27 0 0 0 .188-.097c.01-.013.025-.021.03-.026l.025-.069c.003-.008.01-.018.013-.027a.853.853 0 0 1 .081-.195.142.142 0 0 0 .022-.06c.007-.035.02-.068.05-.082 0-.013-.009-.026-.006-.034.015-.039.035-.078.05-.115.004-.01.004-.02.005-.03l.006-.06c.036-.003.02-.032.026-.051.015-.04.007-.087.043-.118l.004-.01c-.017-.053.038-.081.039-.127.037-.032.031-.078.03-.123a.364.364 0 0 1 .032-.016c.005-.016.01-.038.012-.038.028 0 .03-.023.037-.039.013-.031.023-.063.035-.093.004-.01.017-.024.024-.023a.178.178 0 0 1 .059.029c.017.014.03.034.016.06-.004.006.001.018.004.03l.04-.016c0 .03.006.057 0 .083-.01.038 0 .075.001.112 0 .025.007.042.022.06.014.018.031.04.033.059.001.05.015.092.02.14.019.114.035.232.055.346.011.08.026.157.018.237-.002.016-.002.037.008.047.026.033.024.074.028.111.007.042.013.084.017.127.026.158.05.318.075.479.02.14.037.28.058.42l.058.392c.022.132.04.258.063.389.013.073.027.145.003.218v.01c.049.042.066.067.01.13.035-.007.049.007.053.037.015.082.02.167.041.249.006.025.014.05 0 .077-.004.007.006.02.01.03.001.01.01.021.012.034.018.102.033.204.051.307.019.107.032.213.052.319.027.128.059.256.088.384.013.065.049.115.098.157.077.065.165.06.253.039a.301.301 0 0 0 .217-.214c.038-.111.051-.23.07-.347.021-.112.035-.227.051-.342.018-.135.037-.27.053-.406.03-.222.055-.447.082-.67l.04-.316c.007-.06.013-.123.03-.178.016-.05.037-.096.033-.148.065-.023.068-.044.026-.094l-.013-.025c0-.027.003-.053.007-.08.007-.061.02-.122.02-.185a.182.182 0 0 1 .046-.113.116.116 0 0 0 .028-.066c.002-.011 0-.022.005-.03.034-.053.022-.112.02-.17 0-.004-.008-.014-.016-.016-.025-.003-.025-.02-.025-.039 0-.083.027-.163.042-.244.004-.033.007-.068.019-.098a.12.12 0 0 0 .007-.07c-.007-.024 0-.041.016-.058.01-.01.019-.022.02-.035.004-.05.007-.1.004-.151 0-.023.006-.045.015-.065.015-.05.041-.097.029-.155-.005-.016.008-.039.017-.057.01-.023.028-.042.033-.065a.235.235 0 0 0-.002-.142c-.008-.015-.003-.037.001-.055.001-.02.01-.035.014-.052.002-.017.004-.031.023-.042.014-.007.024-.036.021-.054-.002-.016-.007-.029.007-.04l.002-.025c-.01-.018-.006-.03.005-.044.004-.01.002-.02.004-.031 0-.017-.004-.035 0-.052l.074-.32c.03-.133.056-.267.09-.398.027-.11.044-.222.098-.323.03-.063.032-.138.081-.192l.005-.02c.012-.047.024-.096.04-.143.003-.014.011-.032.024-.039.053-.035.061-.091.073-.146.006-.036 0-.074.005-.11.008-.055.02-.11.028-.166.005-.032.005-.067.015-.098.01-.031.03-.06.042-.09.009-.017.017-.031.02-.05.014-.055.027-.113.04-.17.004-.01.012-.021.016-.031.017-.028.034-.056.048-.086.004-.008.002-.024-.004-.034-.013-.022-.01-.042.003-.065.016-.035.031-.074.045-.112.005-.007.001-.016.002-.024.003-.015.003-.027.006-.04l.012-.045.034-.14c.017-.053.038-.106.055-.16.018-.05.031-.104.05-.155.013-.04.03-.079.045-.118.013-.03.03-.06.039-.09a.923.923 0 0 1 .103-.27c.01-.015.016-.033.025-.047.016-.037.035-.073.05-.11a.125.125 0 0 0 .012-.056.188.188 0 0 1 .02-.098c.047-.11.092-.222.14-.332.068-.155.14-.31.207-.466.018-.042.051-.073.068-.113.035-.077.084-.145.131-.214.06-.09.134-.172.204-.255a.522.522 0 0 1 .078-.074c.008-.008.028-.005.033-.013.009-.01.011-.028.017-.04l.014-.009c.02-.013.036-.026.057-.037.021-.01.03-.05.043-.08.005-.01 0-.026.007-.034.024-.038.053-.074.078-.112a.493.493 0 0 0 .073-.175.648.648 0 0 0-.019-.279.475.475 0 0 0-.322-.336 4.012 4.012 0 0 0-.135-.04h-.127zm9.174 4.898l-.019.006c-.01.044-.055.072-.06.122-.002.016-.023.03-.032.045a.547.547 0 0 1-.15.16c-.037.023-.07.049-.105.07-.122.075-.254.11-.386.152a9.331 9.331 0 0 0-.468.163c-.166.063-.328.136-.489.208-.066.03-.132.067-.196.1l-.676.358c-.09.05-.18.102-.272.151-.047.026-.096.048-.144.075l-.219.127c-.104.061-.213.121-.32.183-.116.069-.234.138-.35.21a9.963 9.963 0 0 0-.56.342c-.129.079-.257.159-.383.24-.022.014-.038.04-.06.051-.021.009-.04.027-.06.036-.064.023-.113.07-.17.107-.089.057-.173.122-.26.184-.03.02-.056.037-.076.07-.015.023-.048.033-.072.05-.026.02-.058.036-.046.082.005.027-.006.058-.009.087a.582.582 0 0 0-.003.094c0 .013.006.027.01.047a.873.873 0 0 1-.033.053c.04.034.008.07.004.111.028.022.027.054.016.092-.012.038-.037.076-.002.118.008.012 0 .036-.03.026.002.014.002.028.008.037.019.028.02.056.004.084l-.004.014c.035.056-.003.11.002.165.004.055-.008.11.004.167.004.02.004.042.007.063.003.014.014.038-.013.05-.008.003-.014.022-.001.04.012.017.014.049.01.071-.019.09 0 .178-.012.269a1.032 1.032 0 0 0-.004.093c0 .021-.011.042.01.06l.003.015c-.019.037-.007.077-.012.116-.001.039.006.079.01.122-.063.011-.033.067-.036.112.018.009.05.012.04.052-.01.002-.023.005-.044.007l.042.056-.02.005c.04.068-.005.116-.026.174.014.032.028.068.044.102.01.022.012.039-.012.053-.032.018-.036.038-.023.07.01.021.023.04.035.063l-.044.014.004.077c.015-.007.023-.013.03-.017.008.02.014.04.02.062l-.032.018c.008.03.038.06-.008.09l.069.068-.03.071a.558.558 0 0 0 .04.01c-.014.02-.037.037-.003.054l.009.013c-.013.04.022.079.004.122l-.03-.009c.017.035.009.064.002.094-.005.015.015.036.024.055l.035-.023.01.07a.23.23 0 0 0 .033.114c.015.019.013.035.002.052-.01.019-.023.035-.038.056.004.003.012.01.021.022l-.04.015c0 .026 0 .057.006.086.003.01.017.02.028.025.002.002.013-.012.023-.022-.01.036.062.036.03.087.012.009.027.018.047.03-.046.01-.046.049-.052.074-.002.022-.013.033-.023.047.003.034.063.032.036.075a.59.59 0 0 1 .06.03c-.025.024-.05.047-.036.083l-.008.01c-.035.035-.034.041.008.063l.01.01c-.018.015-.038.028-.053.047-.014.019-.016.044-.029.063a.32.32 0 0 1-.068.08c-.05.036-.109.066-.165.1h-.198c-.009-.001-.016-.008-.025-.01a.361.361 0 0 1-.285-.279 1.318 1.318 0 0 1-.051-.372c.003-.086.009-.173.01-.26.003-.103.003-.207.005-.309l.003-.122c.004-.117.004-.234.015-.349.008-.09.01-.177.002-.265-.002-.017.002-.035.002-.052.002-.037.002-.075.002-.112v-.142c.003-.068.016-.134-.003-.202l.001-.024c.023-.019.018-.041.018-.064V11.345c.001-.088.005-.176.006-.265v-.135c-.061.036-.115.064-.165.1-.097.07-.19.145-.284.217l-.302.24c-.047.039-.097.076-.146.115-.08.062-.16.125-.239.19-.087.071-.17.146-.258.218-.12.1-.242.199-.364.299-.125.105-.246.21-.372.314-.088.075-.18.15-.271.225a.405.405 0 0 0-.04.04l-.095.094c-.03.033-.056.07-.09.102-.053.05-.112.093-.166.144-.06.055-.113.114-.17.172l-.107.101c-.014.018-.028.041-.043.06a1.275 1.275 0 0 1-.054.062l-.074.076c-.092.097-.183.198-.281.292-.072.066-.133.142-.193.216-.011.014-.025.026-.035.038a1.657 1.657 0 0 1-.066.07l-.023.028-.22.212-.13.124a.213.213 0 0 1-.148.066.583.583 0 0 1-.247-.033c-.128-.056-.188-.157-.205-.29-.006-.042-.014-.084.001-.125.01-.026.017-.054.032-.078.027-.041.055-.082.086-.12a3.37 3.37 0 0 1 .362-.387c.073-.066.143-.136.213-.204.118-.112.23-.225.35-.332.19-.17.382-.334.574-.5.097-.083.195-.162.291-.244.068-.06.131-.123.2-.183.057-.048.121-.094.179-.142.092-.076.182-.153.273-.227.052-.042.106-.083.158-.126.066-.055.134-.11.202-.168.038-.033.077-.068.117-.097.08-.062.162-.118.243-.178.125-.092.247-.186.371-.278l.236-.17c.074-.053.147-.108.22-.163.128-.099.254-.2.385-.297.093-.07.188-.136.29-.208l.003-.218c0-.042-.001-.084-.004-.126 0-.01-.006-.028-.013-.03-.013-.003-.027.003-.036.01-.065.044-.13.092-.196.137l-.015.006c-.045.01-.088.02-.13.042a.212.212 0 0 1-.128.03c-.043-.005-.092.016-.137.027a.544.544 0 0 1-.3-.015c-.121-.047-.224-.12-.272-.255a.952.952 0 0 1-.052-.317c.002-.138.004-.278.002-.416 0-.048-.011-.094-.011-.143 0-.03.009-.061.015-.093.006-.054.014-.109.016-.163.002-.105.018-.21.034-.316.015-.11.038-.22.072-.326.033-.111.07-.223.136-.322.074-.11.146-.222.225-.326a.663.663 0 0 1 .184-.15c.01-.006.023-.011.031-.02.089-.08.2-.102.31-.122a.218.218 0 0 1 .125.025c.048.023.053.08.05.126-.004.052-.023.101-.033.153-.006.04-.034.068-.05.103a.235.235 0 0 1-.089.098.062.062 0 0 0-.023.023c-.024.042-.043.087-.085.12l-.005.008c-.006.054-.048.09-.068.138-.005.013-.013.028-.016.043-.007.04-.013.08-.046.111a.111.111 0 0 0-.02.048l-.042.16c-.004.016-.012.033-.016.05-.01.054-.023.106-.013.16.002.012.01.022.015.033a.1.1 0 0 1 0 .078c-.011.02-.015.043-.02.065-.005.047-.011.092-.014.137-.004.027-.001.053-.001.08 0 .011.004.024 0 .032-.032.054-.01.108-.008.165.001.03-.002.062-.002.093-.002.06.025.116.05.168a.139.139 0 0 0 .14.084.434.434 0 0 0 .301-.143.498.498 0 0 0 .132-.3c.025-.165.044-.327.064-.49.011-.082.022-.162.027-.244.004-.043-.003-.086-.003-.13v-.015c.027-.029.022-.069.024-.104.012-.127.02-.252.03-.377.005-.076.012-.152.019-.228.006-.083.01-.163.02-.243.004-.061.005-.12.033-.178a.349.349 0 0 1 .181-.169.4.4 0 0 1 .23-.033c.054.007.108.023.141.072.02.03.055.05.057.092 0 .014.004.03.004.044 0 .047-.006.095-.007.141 0 .019.007.038.014.059-.003.01-.022.017-.011.041.008.018.004.041-.008.065a.156.156 0 0 0-.003.087c.008.04-.005.08 0 .122.005.039-.017.08-.022.12-.005.015-.015.03.004.042l.005.007c-.038.052-.024.114-.03.173-.016.161-.024.32-.036.483l-.026.376c-.002.03-.015.06-.013.09.003.082-.012.162-.015.243a.24.24 0 0 0 .007.095c.01.026.01.06.003.086-.017.052-.013.104-.01.154 0 .027.002.053-.003.08-.006.052-.018.101-.013.157.005.05 0 .102 0 .153 0 .01.004.02.007.037a.51.51 0 0 0 .048-.028c.076-.051.151-.106.231-.156l.42-.263.122-.075c.083-.055.162-.118.25-.163.109-.054.195-.143.312-.177.021-.006.035-.028.057-.035.036-.012.046-.068.096-.05.032-.019.066-.04.099-.058l.095-.055a1.7 1.7 0 0 0 .1-.06c.033-.02.064-.043.1-.063.044-.027.09-.052.135-.078.165-.095.331-.19.5-.284.131-.077.267-.149.399-.226.145-.083.289-.17.432-.255l.098-.061c-.016-.014-.022-.023-.033-.029a.263.263 0 0 1-.147-.2c-.01-.049-.01-.1-.012-.148a3.643 3.643 0 0 1-.003-.174v-.016c.032-.073.008-.152.027-.227a.049.049 0 0 0 0-.031c-.027-.066-.011-.132.005-.195.006-.016-.002-.034-.003-.052-.003-.016-.013-.034-.008-.047.021-.037.01-.079.02-.119.01-.041.008-.087.009-.132l.001-.373c0-.035-.002-.066-.022-.096-.023-.036-.052-.062-.099-.06-.024.003-.05-.005-.076-.003a.319.319 0 0 0-.17.085c-.015.015-.037.021-.051.035a.242.242 0 0 0-.048.073c-.009.026-.025.037-.044.052-.032.026-.065.05-.076.096-.007.02-.037.035-.059.057-.006.038-.005.084-.036.118l-.005.021c-.003.038.009.078-.017.111-.01.013.028.022.007.04-.01.008-.026.01-.038.016-.005.002-.006.008-.011.017l.028.013-.007.077c-.044.012-.046.012-.036.062a.348.348 0 0 0 .021.065c.012.02.007.044-.007.052-.029.015-.029.045-.05.063-.006.004-.003.035.005.041.026.02.032.045.03.078-.002.016.006.033.01.052-.017.01-.038.022-.052.038-.02.021.001.042.006.051-.01.032-.02.053-.02.076-.004.038-.003.075-.003.112-.002.032-.008.064.041.066-.024.042-.059.075-.015.116a.936.936 0 0 1-.02.013c.034.03.03.028.02.068-.008.028-.026.056-.009.087.001.006-.003.016-.003.024-.002.013-.008.027-.003.032.029.032.007.058-.011.08a.317.317 0 0 0-.064.151c-.003.008-.005.017-.011.023-.048.04-.092.085-.15.112-.043.02-.083.044-.127.065a.301.301 0 0 1-.201.018c-.086-.017-.122-.07-.133-.173-.008-.068.003-.136.006-.204.003-.116.007-.232.012-.347l.015-.4.017-.34c.01-.152.015-.305.023-.456.004-.05.004-.1.015-.149a.657.657 0 0 1 .1-.249.514.514 0 0 1 .38-.222c.01-.002.02-.004.032-.002.044.004.086.012.129-.02.02-.012.053 0 .081.013.05.02.107.03.163.006a.459.459 0 0 0 .146-.09c.02-.022.04-.045.059-.069.015-.015.028-.033.044-.05.045-.046.09-.09.133-.136l.011-.011c.09-.055.177-.116.28-.147a.481.481 0 0 1 .217-.027c.068.014.132.03.181.088.047.053.063.071.076.138.004.024.007.048.034.059l.01.018c-.04.035-.034.066.01.101.001.032.002.059.005.09-.006.004-.028.008-.033.02a.104.104 0 0 0-.008.057c0 .024.001.048.005.073l.032-.021c.006.036-.025.07.02.1-.016.003-.021.005-.035.006l.014.16c-.009 0-.021.004-.035.007-.015.032 0 .05.028.066l-.035.03c.007.015.018.03.02.037-.01.015-.023.025-.023.036-.002.086-.004.17-.002.257 0 .02.015.04.023.062-.012.018-.036.035-.012.065l-.005.021c-.011.037-.011.04.02.06 0 .029.003.057.006.09-.003.002-.017.016-.016.026.004.032.013.061-.016.087l.002.015c.018.028.018.028.003.057l-.007.016a.372.372 0 0 1 .036.029c-.022.01-.034.022-.028.048.005.017-.015.041.018.052l.008.01c-.016.035.01.048.035.061l-.013.031-.02.024c.026.011.045.025.042.057 0 .006.005.04.032.04l.019.015c.035.046.067.058.124.04.047-.015.094-.03.139-.05.124-.063.246-.13.369-.193.075-.039.15-.08.226-.115a.525.525 0 0 1 .303-.033.816.816 0 0 0 .113.009c.043.002.085.036.106.08.022.05.05.1.075.148v.023c-.017.022-.022.042 0 .064v.02zM41.238 13.103h1.18l3.82 7.127 3.822-7.127h1.18l-5.002 9.373-5-9.373zm-1.85 0c.951 0 1.41.427 1.85 1.23l5 9.337 5.001-9.338c.44-.802.899-1.23 1.85-1.23l-6.85 12.795-6.85-12.794zM64.38 19.34c0-2.121-1.708-3.85-3.803-3.85-2.096 0-3.804 1.729-3.804 3.85 0 2.12 1.708 3.849 3.804 3.849 2.095 0 3.803-1.729 3.803-3.85m-8.593 0c0-2.69 2.13-4.846 4.79-4.846 2.659 0 4.79 2.156 4.79 4.846 0 2.691-2.131 4.848-4.79 4.848-2.66 0-4.79-2.157-4.79-4.848m10.213 0c0-3.029-2.43-5.488-5.423-5.488-2.994 0-5.424 2.46-5.424 5.488 0 3.03 2.43 5.489 5.424 5.489 2.993 0 5.423-2.46 5.423-5.489m-11.833 0c0-3.581 2.87-6.486 6.41-6.486 3.539 0 6.41 2.905 6.41 6.486 0 3.582-2.871 6.487-6.41 6.487-3.54 0-6.41-2.905-6.41-6.487M73.769 20.106l3.187-5.88c.37-.678.88-1.123 1.796-1.123l-3.997 7.341v5.132h-.986v-5.47zM70 13.103h1.18l2.272 4.24 2.271-4.24h1.18L73.452 19.5 70 13.103zm2.149 12.473v-5.132l-3.998-7.341c.916 0 1.427.445 1.797 1.122l3.187 5.88v5.471h-.986zM85.451 16.203l5 9.373h-1.18l-3.82-7.127-3.82 7.127H80.45l5.001-9.373zm0-3.421l6.85 12.794c-.95 0-1.409-.427-1.85-1.23l-5-9.337-5.001 9.338c-.44.802-.898 1.23-1.849 1.23l6.85-12.795zM95.954 19.34c0 2.12 1.708 3.849 3.804 3.849.897 0 1.725-.321 2.377-.838v-1.657h-2.888l.546-.998h3.451v2.958c-1.004 1.016-2.06 1.533-3.486 1.533-2.66 0-4.79-2.157-4.79-4.848 0-2.69 2.13-4.846 4.79-4.846.915 0 1.725.25 2.465.694l-.476.874a3.817 3.817 0 0 0-1.99-.57c-2.095 0-3.803 1.728-3.803 3.848zm8.928-1.283v5.185c-1.18 1.568-3.029 2.584-5.124 2.584-3.54 0-6.41-2.905-6.41-6.487 0-3.581 2.87-6.486 6.41-6.486 1.18 0 2.289.32 3.24.891-.3.5-.722.677-1.444.41-.564-.214-1.145-.303-1.796-.303-2.994 0-5.424 2.46-5.424 5.488 0 3.03 2.43 5.489 5.424 5.489 1.62 0 3.116-.695 4.12-1.907v-3.867h-3.751l.546-.997h4.209zM111.555 22.94h5.036v.997h-6.022V19.66h4.103l-.528.998h-2.589v2.281zm-.986-8.198h6.022v.998h-5.036v2.28h3.997l-.546.998h-4.437v-4.276zm-1.62-1.64h7.642c0 .678-.581.998-1.356.998h-5.3v10.478h5.3c.969 0 1.356.482 1.356.998h-7.642V13.103zM120.79 16.613c0-2.085 1.691-3.76 3.804-3.76 1.11 0 2.254.339 3.152 1.123-.264.516-.687.606-1.408.267a3.782 3.782 0 0 0-1.709-.392c-1.672 0-2.852 1.23-2.852 2.708 0 1.676 1.426 2.406 2.888 2.994 1.39.553 2.518 1.123 2.518 2.495 0 1.194-1.18 2.139-2.554 2.139-1.408 0-2.694-.713-3.592-1.604l.458-.873c.687.748 1.99 1.479 3.117 1.479.95 0 1.585-.428 1.585-1.123 0-.642-.6-.98-2.025-1.586-1.462-.624-3.381-1.443-3.381-3.867m8.012 5.453c0 2.192-2.078 3.76-4.244 3.76-1.813 0-3.187-.73-4.332-1.764.282-.482.898-.517 1.444-.143.828.57 1.743.91 2.958.91 1.656 0 3.188-1.195 3.188-2.781 0-1.8-1.427-2.459-2.959-3.083-1.285-.516-2.447-1.14-2.447-2.423 0-1.123.95-2.085 2.218-2.085.793 0 1.55.285 2.36.89l-.475.856c-.705-.588-1.32-.748-1.885-.748-.704 0-1.232.392-1.232 1.033 0 .57.528 1.016 1.867 1.586 1.584.677 3.539 1.443 3.539 3.992"></path>
                </g>
              </g>
            </svg>